<?xml version="1.0" ?><svg viewBox="0 0 1000 1000" xmlns="http://www.w3.org/2000/svg"><path d="m671.76 589.1c21.14.84 42.41.59 63.3-3 20.66-3.6 41-10.7 57.68-23.78 19.17-15.08 31.28-37.53 39.9-59.92 4.57-11.85 8.25-24 11.87-36.19 1.78-6 3.46-12 5.41-18 1.86-5.67 4.26-11.39 8.61-15.62s10.15-6.55 15.53-9.19 10.56-5.84 13.93-10.85c1.3-1.94 1.8-4.23.12-6.14a4.51 4.51 0 0 0 -4.68-1.29c-2.86.77-5.7 1.63-8.55 2.44l-2.59.73.77 1.81 11.65-6.61c1.45-.83 3.39-1.6 4.52-2.89a4.48 4.48 0 0 0 .54-5.33c-1.07-1.6-3.15-1.76-4.9-1.84a30.7 30.7 0 0 0 -16.79 4.16c-.8.46-.52 2 .5 1.85a29.45 29.45 0 0 0 10.32-3.06c2.12-1.1 6.89-3.38 6-6.47-.39-1.34-1.69-2-2.91-2.43a23.36 23.36 0 0 0 -5.42-1.14 25 25 0 0 0 -11.08 1.47c-1 .36-.93 2 .26 1.95a22.61 22.61 0 0 0 13.45-5c1.59-1.28 3.73-3.11 2.63-5.38s-3.52-2.22-5.62-2.39a59 59 0 0 0 -28.59 5 58 58 0 0 0 -14.22 9c-1 .87.46 2.34 1.47 1.47a57 57 0 0 1 41.13-13.46 9.49 9.49 0 0 1 3.15.44c1.58.75.78 2-.14 2.89a20.35 20.35 0 0 1 -13.27 5.44l.26 1.95a23.42 23.42 0 0 1 8.36-1.51 22.3 22.3 0 0 1 4.54.49c1.12.24 2.92.48 3.76 1.33 1.6 1.62-4.56 4.57-5.73 5.11a26.9 26.9 0 0 1 -8.35 2.32l.5 1.84a28.73 28.73 0 0 1 13.39-3.9c1.45-.05 4.47-.43 5.56.84s0 3-1.19 3.76c-3.48 2.15-7.14 4-10.7 6.07l-4.08 2.32a1 1 0 0 0 .76 1.81l7.41-2.11c1.22-.35 2.44-.71 3.66-1a2.49 2.49 0 0 1 3.35 2.49c-.12 1.31-1.45 2.76-2.26 3.71a25.9 25.9 0 0 1 -3.23 3.14 40.27 40.27 0 0 1 -7.42 4.67c-5.11 2.59-10.52 4.72-15.07 8.29-9.36 7.35-11.85 20.11-15.06 30.92-3.49 11.79-7 23.62-11.09 35.21a201.67 201.67 0 0 1 -15.11 33.39c-6 10.31-13.1 20.09-22 28.09-15.39 13.81-35 21.74-55 26-20.29 4.33-41.25 5.19-61.94 4.88q-3.63-.06-7.27-.17a.71.71 0 0 0 0 1.41z"/><rect fill="#fff" height="172.82" rx="5.19" width="261.13" x="713.87" y="163.21"/><path d="m969.81 335.13h-243.54c-2.31 0-4.61 0-6.91 0a4.41 4.41 0 0 1 -4.59-4.38c0-.87 0-1.75 0-2.62v-158.9c0-.26 0-.52 0-.78a4.37 4.37 0 0 1 4.3-4.34h1.31 246.91 2.27a4.41 4.41 0 0 1 4.54 4.41c.08 2.89 0 5.8 0 8.7v148.87c0 3.47.78 8.87-4.29 9-1.16 0-1.16 1.84 0 1.8a6.25 6.25 0 0 0 6.09-6.57v-153.1c0-2.91.06-5.82 0-8.72a6.21 6.21 0 0 0 -6.19-6.19c-.64 0-1.28 0-1.92 0h-247.58a16.33 16.33 0 0 0 -1.85.05c-3.42.39-5.39 3.34-5.39 6.58v159.3 2.53a6.21 6.21 0 0 0 6.22 6.16c2.09.05 4.19 0 6.29 0h244.33a.9.9 0 0 0 0-1.8z"/><path d="m713.87 329.8v-160.36a6.23 6.23 0 0 1 6.23-6.23h-6.69a6.23 6.23 0 0 0 -6.23 6.23v160.36a6.23 6.23 0 0 0 6.23 6.23h6.69a6.23 6.23 0 0 1 -6.23-6.23z"/><path d="m714.77 329.8v-143.8c0-5.52-.14-11.06 0-16.58a5.41 5.41 0 0 1 5.33-5.33.9.9 0 0 0 0-1.8h-5c-2 0-4 0-5.7 1.23a7.47 7.47 0 0 0 -3.13 6.42v158.16 1.7a7.26 7.26 0 0 0 3.26 6c1.78 1.18 3.76 1.14 5.79 1.14h4.77a.9.9 0 0 0 0-1.8 5.41 5.41 0 0 1 -5.33-5.33.9.9 0 0 0 -1.8 0 7.25 7.25 0 0 0 7.13 7.13v-1.8h-4.77c-2.14 0-4.2 0-5.8-1.67a6.19 6.19 0 0 1 -1.45-4.52v-157.23c0-.72 0-1.45 0-2.17a5.49 5.49 0 0 1 1.56-3.88c1.63-1.63 3.68-1.56 5.8-1.56h4.66v-1.8a7.25 7.25 0 0 0 -7.13 7.22v1.82 137.34c0 6.93-.2 13.89 0 20.82a2.8 2.8 0 0 1 0 .29.9.9 0 0 0 1.81 0z"/><path d="m845.05 337.47c-.36 9.31-.36 18.64-.48 27.95s-.28 18.63-.43 27.95c-.31 18.63-.71 37.26-1.32 55.88q-.26 7.74-.54 15.46c-.19 5.28-.77 10.7-.34 16 .1 1.19 2.06 1.68 2.27.3.69-4.53.58-9.19.7-13.77s.24-9.31.36-14q.33-14.08.63-28.19.58-27.94.76-55.89c.06-10.55.2-21.14-.15-31.69a.73.73 0 0 0 -1.46 0z"/><path d="m683.85 503.92c11 3.85 22.75 4.57 34.35 5.25 7.17.42 14.54.82 21.35-1.44 6.38-2.11 11.78-6.4 16.82-10.85a211.43 211.43 0 0 0 59.31-88.08c1.51-4.29 2.91-8.7 5.44-12.49a24.58 24.58 0 0 1 22.56-10.53c3.33.37 7.41 3.2 5.81 6.14a5.69 5.69 0 0 1 -2.29 2l-9.29 5.54c5.81 3.63 6.65 13.07 1.58 17.67" fill="#fff"/><path d="m683.67 504.54c8.27 3 17 4.21 25.69 4.91 4.32.35 8.65.64 13 .84a59 59 0 0 0 12.81-.55c8.12-1.39 14.79-6.08 20.89-11.37a206.21 206.21 0 0 0 16.94-16.53 213.44 213.44 0 0 0 27.46-37.59 209 209 0 0 0 10.6-21.1q2.28-5.23 4.27-10.6c1.46-3.91 2.63-7.95 4.4-11.74a24 24 0 0 1 16.46-13.61c3.26-.75 7.41-1.17 10.43.56 1.21.69 2.88 2.1 2.06 3.67a5.28 5.28 0 0 1 -2.15 1.75l-3.17 1.88-5.92 3.51a1 1 0 0 0 0 1.76c5.31 3.45 5.84 11.74 1.42 16.12-.87.87.43 2.14 1.34 1.34 5.71-5.06 4.56-15.16-1.73-19.22v1.76l6.11-3.66c1.74-1 4-2 5.33-3.57 2.18-2.62.2-5.61-2.31-7-3-1.72-6.76-1.59-10.08-1.07a25.73 25.73 0 0 0 -9.93 3.78 24.88 24.88 0 0 0 -7.47 7.44c-2.31 3.6-3.65 7.71-5.05 11.72a208.78 208.78 0 0 1 -9.38 22.57 211.63 211.63 0 0 1 -26.12 40.95 209.22 209.22 0 0 1 -16.21 17.73c-5.86 5.73-12 11.78-19.33 15.65-8.18 4.33-17.29 3.92-26.25 3.42-9.12-.51-18.33-1.05-27.26-3.13-2.18-.51-4.34-1.12-6.46-1.84-.8-.26-1.12 1-.35 1.25z"/><path d="m534.36 469.93c56.57 15.73 98 19.94 146.48 32.63a31 31 0 0 1 8.34 3.1c8.36 5 10.54 16 11.91 25.62 1.82 12.79 3.49 26.51-2.34 38-2.39 4.73-6 8.93-7.34 14.05-1 3.7-.69 7.61-1.31 11.39a24.29 24.29 0 0 1 -37.17 16.48c-1.86-1.21-3.65-2.71-5.84-3-4-.6-7.32 2.86-10.76 5a19.05 19.05 0 0 1 -19.54.19c-8.57-5.15-12.54-16.82-22.1-19.74-2.75-.84-5.67-.84-8.51-1.26-15.72-2.32-26.41-16.79-34.52-30.46" fill="#18c4ff"/><path d="m534.18 470.57c15.33 4.32 30.81 8.14 46.37 11.56 13.93 3.06 27.94 5.77 41.93 8.54 13.59 2.68 27.17 5.41 40.66 8.55q5.25 1.21 10.48 2.52c3.61.9 7.29 1.71 10.82 2.9a18.34 18.34 0 0 1 8.33 5.37 24.84 24.84 0 0 1 4.38 8c2.18 6.18 2.94 12.84 3.73 19.3.91 7.44 1.48 15.12 0 22.53a35.28 35.28 0 0 1 -3.71 10.25c-1.77 3.18-3.94 6.13-5.45 9.44-3.07 6.71-1.34 14.34-4.52 21a23.45 23.45 0 0 1 -14.52 12.55 24 24 0 0 1 -20.06-3.4c-2.85-2-5.76-3.43-9.24-2.17-3.16 1.14-5.55 3.6-8.45 5.21a18 18 0 0 1 -18.93-1.21c-4.68-3.38-7.79-8.47-11.69-12.64a24.39 24.39 0 0 0 -6.49-5.17c-3.17-1.63-6.58-1.88-10.06-2.26-13.22-1.43-22.82-11.57-29.94-22-1.8-2.63-3.56-5.32-5.19-8.06a1.12 1.12 0 0 0 -1.94 1.13c6.55 11 14.44 22.77 26.47 28.36a31.92 31.92 0 0 0 9.16 2.72c3.62.5 7.31.49 10.6 2.26 5.18 2.78 8.49 8 12.26 12.33 4.27 4.88 9.38 8.54 16.05 8.93a20.32 20.32 0 0 0 9.8-1.91c3.13-1.47 5.55-4.19 8.77-5.47 3.88-1.54 6.63 1.39 9.78 3.16a25.57 25.57 0 0 0 9.85 3.1 25.16 25.16 0 0 0 18.92-5.73 26 26 0 0 0 9-17.12c.43-4 .3-8.06 1.85-11.87 1.42-3.48 3.7-6.53 5.55-9.78 7.49-13.21 5.18-29.37 2.83-43.67-1-6.08-2.45-12.47-6.09-17.57a19.32 19.32 0 0 0 -6.79-6c-3.39-1.76-7.21-2.57-10.89-3.5-14-3.59-28.22-6.64-42.43-9.49s-28.23-5.44-42.32-8.29c-15.49-3.15-30.94-6.52-46.26-10.43q-6.15-1.56-12.28-3.24a.66.66 0 0 0 -.35 1.27z" fill="#18c4ff"/><path d="m396.3 836.79c-14.25-50.32-10.47-108.37 11.94-155.62 1.17-2.46 2.5-5 4.83-6.42 2-1.21 4.5-1.35 6.86-1.42 17.1-.51 34.19.77 51.25 2l95.34 7.13c3.28.25 6.8.6 9.26 2.77 2.17 1.92 3.05 4.86 3.85 7.64 14 48.87 34.12 96.66 53 143.87"/><path d="m397 836.61a227.29 227.29 0 0 1 -7.48-43.41 234.73 234.73 0 0 1 .93-44.35 223.88 223.88 0 0 1 9.4-43.27 197.94 197.94 0 0 1 7.86-20.38c1.36-3 2.64-6.82 5.3-8.93a9.3 9.3 0 0 1 5.27-1.66c2.05-.14 4.11-.14 6.17-.17 17.19-.21 34.35 1.21 51.48 2.49l51.39 3.84 25.58 1.91 12.91 1c3.4.25 7.42.4 9.85 3.17s3 6.79 3.93 10.1q1.76 6 3.64 12 3.72 11.83 7.82 23.55c5.5 15.76 11.48 31.33 17.61 46.85s12.34 30.85 18.6 46.3q2.29 5.69 4.57 11.37c.41 1 2.08.57 1.66-.46-6.33-15.81-12.75-31.58-19-47.44s-12.22-31.73-17.93-47.75-11.05-32.18-15.75-48.54c-.93-3.24-2-6.68-4.76-8.83s-6.42-2.44-9.81-2.7l-26.07-1.95-52.63-4c-17.55-1.31-35.1-2.92-52.7-3.31q-6.6-.15-13.19 0c-3.61.08-7.49 0-10.4 2.49-2.62 2.18-3.93 5.64-5.3 8.66q-2.28 5-4.29 10.18a212.94 212.94 0 0 0 -11.78 43.46 235.11 235.11 0 0 0 -2.86 45.21 225.76 225.76 0 0 0 5.8 44.31c.83 3.55 1.77 7.08 2.78 10.58a.69.69 0 0 0 1.34-.36z"/><g fill="#18c4ff"><path d="m479.24 466.81c3.09 12.14 12.81 23.71 24.15 29 8.21 3.84 18.84 4.61 25.62-1.4 7.35-6.52 6.56-14.21 5.89-24 .12 1.73 17.51 6.19 20.24 7.18a114.88 114.88 0 0 1 17.08 7.89c23.85 13.38 33.77 40.56 34.68 66.68a176.24 176.24 0 0 1 -6.45 53.62c-3 10.54-7.16 20.74-9.56 31.43-3.43 15.29 7.06 34.38-.73 48.43-6.26 11.3-21.53 12.5-32.84 14.24a352.78 352.78 0 0 1 -90.54 2.12c-19.16-2-59.27-2.94-68.83-23.94-5.69-12.49 5.24-26.65 6.74-39.05 2-16.48-3.15-33.07-7.8-48.72-6.81-22.92-9.37-51.18 0-73.79s29.05-36.17 51.93-42.39c10.23-2.78 20.18-6.76 30.67-8.49"/><path d="m478.64 467a45.76 45.76 0 0 0 23.65 29.25 30.3 30.3 0 0 0 17.76 3.16 18.82 18.82 0 0 0 13.95-9.81c3-5.89 2.26-12.81 1.82-19.17l-1.72.23c.14.88 1.35 1.4 2 1.73a43.15 43.15 0 0 0 4.67 1.78c3.74 1.26 7.53 2.33 11.31 3.45a86.44 86.44 0 0 1 14.28 5.83 70.28 70.28 0 0 1 15.4 10c17.07 15.1 23.69 38.55 24.24 60.65a175 175 0 0 1 -4.6 44c-1.67 7.14-3.9 14.11-6.22 21.07-2.2 6.58-4.77 13.38-5.7 20.29-1.58 11.68 3 23.12 2.59 34.79-.22 5.46-1.84 10.91-5.75 14.88-3.55 3.61-8.36 5.6-13.18 6.9a131.24 131.24 0 0 1 -14.87 2.69c-7.23 1.07-14.47 2-21.76 2.71a353.69 353.69 0 0 1 -44.87 1.29c-11.62-.4-23.17-1.62-34.74-2.65a212.88 212.88 0 0 1 -27.22-3.77c-8.45-1.88-17.37-4.61-24.13-10.24a22.8 22.8 0 0 1 -7.12-9.63c-2-5.53-.74-11.45 1-16.87 1.8-5.6 4.3-11 5.67-16.74 1.56-6.56 1.35-13.6.57-20.25a139.6 139.6 0 0 0 -4.43-21.2c-1.82-6.53-3.95-13-5.52-19.59-5.76-24.28-6.55-52.33 7-74.27a69.42 69.42 0 0 1 23.41-22.63 87 87 0 0 1 15-7.12c6-2.19 12.24-3.72 18.34-5.64a151.06 151.06 0 0 1 20.36-5.38c1.41-.24.81-2.39-.6-2.15-7.23 1.19-14.23 3.41-21.23 5.65-6.15 1.93-12.44 3.46-18.48 5.74a80.6 80.6 0 0 0 -28.19 17.45 70.11 70.11 0 0 0 -17.75 29.4c-3.82 12.49-4.47 25.84-3.3 38.79a145.91 145.91 0 0 0 3.12 19.49c1.53 6.71 3.67 13.26 5.53 19.89a138 138 0 0 1 4.67 22c.76 6.81.91 14-.91 20.64-2.95 10.76-10.62 22.61-6.05 34 3.14 7.82 10.42 12.91 17.92 16.11 16.69 7.15 35.4 7.56 53.2 9.39a360.15 360.15 0 0 0 90.6-2.37c9.74-1.46 20.82-2.44 28.5-9.33 9-8.07 7.69-20.78 6.06-31.58-.9-5.94-2-12-1.62-18a47 47 0 0 1 1.88-9.46c1-3.68 2.17-7.3 3.37-10.92 2.34-7.11 4.71-14.2 6.47-21.49a180 180 0 0 0 3.85-21.73c2.79-24.2 1.43-50.55-11.71-71.79a64.35 64.35 0 0 0 -24.92-23.17 91.86 91.86 0 0 0 -16.24-7.02c-3.62-1.08-7.26-2.07-10.86-3.2-1.73-.55-3.47-1.11-5.15-1.79a13.05 13.05 0 0 1 -1.66-.76l-.49-.3c-.2-.16-.07 0-.07 0-.15-1-1.79-.75-1.72.24.37 5.35 1.08 11.09-.7 16.27a16.94 16.94 0 0 1 -12.14 10.74c-11.81 2.74-23.72-4.48-31.35-12.93a44.73 44.73 0 0 1 -10-17.86.62.62 0 0 0 -1.19.33z"/><path d="m477.9 465.64q-82.11 15.39-163.76 33c-11.34 2.46-23.68 5.56-30.61 14.87-9 12-5.18 28.91-.78 43.23 3.93 12.78 8.1 25.61 14.86 37.13s16.4 21.78 28.7 27a17 17 0 0 0 8.55 1.71c5-.59 9.11-4.75 14.14-5 8.7-.54 16.68 10.44 24.42 6.44 4.91-2.54 6-9.87 11.07-12 4-1.62 8.55.69 12.7-.32 8.49-2.07 9.45-15.66 17.8-18.22 2.88-.88 6-.18 9-.48a13.8 13.8 0 0 0 12-12.31"/><path d="m477.73 465c-18.38 3.13-36.71 6.66-55 10.24s-36.43 7.22-54.61 11-36.44 7.55-54.63 11.48c-13.28 2.87-28.31 7.09-34.08 20.81-2.79 6.63-2.87 14-1.91 21 1.05 7.71 3.37 15.16 5.71 22.56 4.86 15.41 10.66 30.92 21.17 43.45a60.7 60.7 0 0 0 16.62 14.06c3.42 1.91 7.2 3.73 11.13 4.19s7.1-1.12 10.41-2.78c3-1.53 6.08-2.8 9.52-2 3 .7 5.6 2.28 8.23 3.71 4.86 2.66 10.63 5.23 15.51 1.13 2.24-1.88 3.56-4.59 5.18-7a11.24 11.24 0 0 1 2.83-3.08 8 8 0 0 1 5.12-1.11c3.54.21 7 1.11 10.4-.43a14.26 14.26 0 0 0 5.51-5c2.81-4 4.7-9.6 9.24-12 3.39-1.79 7.51-.46 11.15-1.09a14.47 14.47 0 0 0 8.31-4.81 14.91 14.91 0 0 0 3.64-8.64c.13-1.52-2.23-1.51-2.36 0a12.58 12.58 0 0 1 -4.61 8.29c-2.82 2.33-6 2.87-9.6 2.78-3.32-.08-6.49.13-9.22 2.2a20.4 20.4 0 0 0 -4.74 5.63c-2.39 3.82-4.61 9.44-9.36 10.82-3.58 1-7.33-.57-11-.09-3.1.42-5.31 2.35-7.07 4.82-1.61 2.26-2.8 4.92-4.91 6.8a7.38 7.38 0 0 1 -7.33 1.26c-5.52-1.68-10-6-15.84-6.74-7.28-.92-12.59 6.26-19.87 4.81a33.44 33.44 0 0 1 -10.47-4.51 54.21 54.21 0 0 1 -8.66-6.49c-11.52-10.51-18.43-24.79-23.55-39.29-2.62-7.41-5.08-15-7-22.59-1.75-7-3-14.27-2.09-21.44a26.25 26.25 0 0 1 9.7-17.61c5.41-4.26 12.18-6.46 18.77-8.13 8.08-2.05 16.29-3.64 24.44-5.39q13.24-2.84 26.51-5.62 26.52-5.57 53.08-10.88t53.16-10.5c4.31-.84 8.61-1.72 12.9-2.6.8-.17.46-1.35-.33-1.21z"/></g><path d="m572.88 383.36c-.09-4.1 3.32-42.41-27.52-46.85a50.71 50.71 0 0 0 -33.49 7.24c-3.12 1.91-9-8.35-11.86-6.06-15.7 12.49-25.25 37.59-21.17 62.23 4 24 20.94 47.54 49.08 55 16.16 4.29 23.81-3.84 30.91-11.44s11-17.92 12.79-28.37 1.52-21.11 1.26-31.75z" fill="#fff"/><path d="m523.69 392.22a1 1 0 0 0 -.76-1 1.69 1.69 0 0 0 -1.22.23 4.35 4.35 0 0 0 -1.61 1.66 3.68 3.68 0 0 0 -.43 2.45 3 3 0 0 0 1.36 1.95 3.07 3.07 0 0 0 4.07-1.07 2.89 2.89 0 0 0 .06-2.71 2.6 2.6 0 0 0 -2.28-1.46 2.5 2.5 0 0 0 -2.49 1.81 2.43 2.43 0 0 0 1.52 2.88 1.42 1.42 0 0 0 1.8-1.58 1.35 1.35 0 0 0 -.39-.83 4.5 4.5 0 0 0 -.37-.28l.29.22-.37-.28.3.23a1.36 1.36 0 0 1 -.17-.17l.23.29a1.28 1.28 0 0 1 -.15-.25l.15.35a2.17 2.17 0 0 1 -.07-.24l.05.38a1.4 1.4 0 0 1 0-.29l-.05.38a1 1 0 0 1 .06-.23l-.14.34a1 1 0 0 1 .1-.17l-.22.28a.77.77 0 0 1 .18-.18l-.29.22a1.28 1.28 0 0 1 .27-.16l-.34.14.32-.08-.38.05a1.15 1.15 0 0 1 .32 0h-.37a.86.86 0 0 1 .3.09l-.33-.15a1.58 1.58 0 0 1 .24.15l-.29-.22a1 1 0 0 1 .2.2l-.22-.29a1.55 1.55 0 0 1 .21.35l-.15-.34a1.9 1.9 0 0 1 .11.39v-.37a1.34 1.34 0 0 1 0 .4v-.37a1.54 1.54 0 0 1 -.1.35l.14-.33a1.86 1.86 0 0 1 -.19.33l.21-.28a1.72 1.72 0 0 1 -.27.27l.28-.21a1.76 1.76 0 0 1 -.42.24l.32-.13a1.83 1.83 0 0 1 -.46.12h.35a2.06 2.06 0 0 1 -.43 0l.35.05a1.56 1.56 0 0 1 -.37-.1l.32.13a1.46 1.46 0 0 1 -.3-.17l.26.2a1.85 1.85 0 0 1 -.28-.28l.2.26a2.09 2.09 0 0 1 -.25-.44l.13.31a2.61 2.61 0 0 1 -.16-.61v.33a2.66 2.66 0 0 1 0-.63v.32a2.59 2.59 0 0 1 .09-.4l.06-.19c.09-.24-.07.14 0 0a5.4 5.4 0 0 1 .42-.7c.14-.19-.15.19 0 0s.16-.21.23-.32a1.66 1.66 0 0 0 .22-.32c-.11.13-.12.15-.06.08.11-.12-.16.08 0 0s.2-.07.06 0a.52.52 0 0 1 -.52-.09.67.67 0 0 0 1.13-.47z"/><path d="m555.3 393.27a1 1 0 0 0 -.77-1 1.65 1.65 0 0 0 -1.22.23 4.35 4.35 0 0 0 -1.61 1.66 3.61 3.61 0 0 0 -.42 2.45 2.94 2.94 0 0 0 1.36 2 3.06 3.06 0 0 0 4.06-1.08 2.87 2.87 0 0 0 .06-2.7 2.58 2.58 0 0 0 -2.28-1.46 2.5 2.5 0 0 0 -2.49 1.81 2.42 2.42 0 0 0 1.53 2.88 1.43 1.43 0 0 0 1.4-.37 1.48 1.48 0 0 0 .4-1.21 1.36 1.36 0 0 0 -.4-.83c-.11-.11-.25-.19-.37-.29l.29.23-.37-.28.3.22a1.29 1.29 0 0 1 -.17-.16l.23.29a1.28 1.28 0 0 1 -.15-.25l.15.34a.86.86 0 0 1 -.06-.23l.05.38a.94.94 0 0 1 0-.29v.38a1 1 0 0 1 .06-.23l-.14.34a1.62 1.62 0 0 1 .1-.18l-.22.29a.77.77 0 0 1 .18-.18l-.29.22a1.12 1.12 0 0 1 .28-.16l-.34.14a1.57 1.57 0 0 1 .31-.08l-.38.05a1.15 1.15 0 0 1 .32 0l-.37-.05a1.09 1.09 0 0 1 .31.08l-.34-.14a1.2 1.2 0 0 1 .24.15l-.29-.22a1 1 0 0 1 .2.2l-.21-.29a2 2 0 0 1 .2.35l-.14-.34a1.72 1.72 0 0 1 .1.39l-.05-.37a1.34 1.34 0 0 1 0 .4l.05-.37a2.25 2.25 0 0 1 -.09.35l.13-.33a1.5 1.5 0 0 1 -.19.32l.22-.27a2.29 2.29 0 0 1 -.27.27l.27-.21a1.76 1.76 0 0 1 -.42.24l.33-.13a2 2 0 0 1 -.47.12h.35-.43l.35.05a2.42 2.42 0 0 1 -.36-.1l.31.13a1.46 1.46 0 0 1 -.3-.17l.26.2a1.85 1.85 0 0 1 -.28-.28l.21.26a1.76 1.76 0 0 1 -.26-.44l.13.31a2.61 2.61 0 0 1 -.16-.61v.33a2.22 2.22 0 0 1 0-.63l-.05.32a2.59 2.59 0 0 1 .09-.4l.06-.19c.09-.24-.07.14 0 0a5.4 5.4 0 0 1 .42-.7c.14-.19-.15.19 0 0l.24-.32a2.2 2.2 0 0 0 .21-.32c-.1.13-.12.15 0 .08.11-.12-.15.07 0 0s.21-.07.07 0a.54.54 0 0 1 -.53-.09.68.68 0 0 0 1.14-.47z"/><path d="m543.46 397.27c.1 1.82.18 3.64.25 5.47a8.54 8.54 0 0 0 .28 2.19 4.08 4.08 0 0 0 1.31 1.89 3.09 3.09 0 0 1 -.32 5 7.7 7.7 0 0 0 -1.76 1.06c-1.06 1.11.64 2.82 1.7 1.7.44-.47 1.25-.66 1.78-1.07a5.53 5.53 0 0 0 1.43-1.69 5.36 5.36 0 0 0 -1.24-6.61c-.3-.26-.63-.49-.93-.74a1.59 1.59 0 0 1 -.59-1.17c-.3-2-.45-4-.63-6.05-.08-.81-1.33-.83-1.28 0z"/><path d="m515.45 451.26c10 4.83 22.49 8.74 32.86 2.74a43.45 43.45 0 0 0 9.8-8.4 51.31 51.31 0 0 0 9.71-14.39c5.51-12.45 6.27-26.21 6.13-39.64 0-3.44-.21-6.89-.13-10.34 0-2.1 0-4.2 0-6.29-.54-13-4.26-27.65-16-35-9-5.62-20.8-5.8-30.82-3.4a53.43 53.43 0 0 0 -8.89 3q-2.22 1-4.33 2.12c-.82.44-1.92 1.52-2.91 1.41-1.49-.16-3-1.93-4-2.87a20.33 20.33 0 0 0 -4-3.21 3.15 3.15 0 0 0 -3.95.48 48.83 48.83 0 0 0 -5.47 5.29 60.39 60.39 0 0 0 -9.11 13.75 73.11 73.11 0 0 0 -7.22 34.69 74.52 74.52 0 0 0 .92 9c.19 1.14 1.92.66 1.74-.48a71.71 71.71 0 0 1 3.17-35.19 64.82 64.82 0 0 1 7.3-14.67 53.91 53.91 0 0 1 4.71-6.05 31.29 31.29 0 0 1 5.49-5.24c1.06-.7 2.25.43 3.07 1.11 1.4 1.16 2.66 2.48 4.08 3.61 1 .82 2.31 1.75 3.72 1.62a6.73 6.73 0 0 0 2.59-1.23c1.41-.8 2.84-1.53 4.31-2.19 10.28-4.68 23-6.36 33.82-2.36 13.36 5 18.61 19.05 19.77 32.2.35 3.89.27 7.76.24 11.66 0 5.78.28 11.54.11 17.32a95.17 95.17 0 0 1 -2.44 20 55.74 55.74 0 0 1 -7 16.81 59.15 59.15 0 0 1 -9.58 11.08 25.86 25.86 0 0 1 -11 6.53c-5.58 1.45-11.24.31-16.62-1.38a68.92 68.92 0 0 1 -9.1-3.56c-1-.5-2 1.05-.91 1.55z"/><g fill="#18c4ff"><path d="m507.58 401.55a.66.66 0 0 0 0-1.31.66.66 0 0 0 0 1.31z"/><path d="m511.77 400.41.2-.2a.55.55 0 0 0 .14-.22.58.58 0 0 0 .06-.26.63.63 0 0 0 -.06-.27.74.74 0 0 0 -.14-.22l-.14-.1a.62.62 0 0 0 -.35-.1h-.18a.64.64 0 0 0 -.3.17l-.2.2a.55.55 0 0 0 -.14.22.58.58 0 0 0 -.06.26.63.63 0 0 0 .06.27.74.74 0 0 0 .14.22l.14.1a.62.62 0 0 0 .35.1h.18a.69.69 0 0 0 .3-.17z"/><path d="m510.31 404.3a.68.68 0 0 0 0-1.35.68.68 0 0 0 0 1.35z"/><path d="m563 399.39a.64.64 0 0 0 0-1.28.64.64 0 0 0 0 1.28z"/><path d="m565 399.33v.19l.07.16a.45.45 0 0 0 .17.19.29.29 0 0 0 .16.09.46.46 0 0 0 .26.06h.18l.16-.07a.58.58 0 0 0 .2-.18.46.46 0 0 0 .12-.23v-.19a.81.81 0 0 0 0-.38.77.77 0 0 0 -.19-.31l-.14-.11a.65.65 0 0 0 -.36-.1.67.67 0 0 0 -.28.06.54.54 0 0 0 -.22.15.77.77 0 0 0 -.19.31.81.81 0 0 0 0 .38z"/><path d="m563.57 403.54a.89.89 0 0 0 0-1.78.89.89 0 0 0 0 1.78z"/></g><path d="m565.33 433.91a.63.63 0 0 0 0-1.25.63.63 0 0 0 0 1.25z"/><path d="m486.47 397a.67.67 0 0 1 .58.07 2.4 2.4 0 0 1 .58.54c-.07-.08.07.11.08.13s.09.13.14.2a4.79 4.79 0 0 1 .25.45l.11.21c.11.23 0-.13.05.11s.11.32.16.49.09.33.13.5 0 .16 0 .23c0-.13 0 .08 0 .11s0 .31 0 .47 0 .1 0 0v.08a.27.27 0 0 1 .09-.12c.08 0 .1-.07.05 0h.07a.29.29 0 0 1 .24 0 .38.38 0 0 1 .31.21c0 .11.05.12 0 0s0 .12 0-.06a.89.89 0 0 1 0-.23c0-.22-.05.15 0-.06l.06-.22c.05-.19 0 .1 0-.07l.12-.27a.85.85 0 0 0 -.21-1.08.83.83 0 0 0 -1.1.07 2.52 2.52 0 0 0 -.44 2.58 1.18 1.18 0 0 0 1.38.69 1.36 1.36 0 0 0 1-1.07 3.94 3.94 0 0 0 -.07-1.37 5.47 5.47 0 0 0 -.3-1.07 5.85 5.85 0 0 0 -1.3-2.08 2.23 2.23 0 0 0 -2.68-.5.61.61 0 0 0 .61 1.06z"/><path d="m480.55 467.52q2.77-12.07 4.72-24.32c.62-3.94 1.13-7.89 1.59-11.86.47-4.17 1-8.39 1.15-12.59.05-1.53-2.16-1.46-2.33 0-.44 4-.65 8.08-1.06 12.11s-.9 8.05-1.4 12.06c-1 8.13-2.38 16.21-4 24.23-.18.87 1.13 1.25 1.33.37z"/><path d="m518.68 398.85a33.77 33.77 0 0 1 8.1.14.82.82 0 0 0 1-.67.81.81 0 0 0 -.79-.9 35.4 35.4 0 0 0 -8.48.21c-.68.1-.53 1.29.17 1.22z"/><path d="m551.35 399.4a38 38 0 0 1 6.65-.4.85.85 0 0 0 0-1.7 20.63 20.63 0 0 0 -7 .94.63.63 0 0 0 .33 1.21z"/><path d="m516.22 384.91a23.52 23.52 0 0 0 7.58-.18 35.64 35.64 0 0 0 3.55-.78c.56-.16 1.11-.34 1.66-.55a3 3 0 0 0 1.78-1.11 1.12 1.12 0 0 0 -.66-1.63 2.71 2.71 0 0 0 -1.78.34c-.54.22-1.09.42-1.64.63-1.06.39-2.13.73-3.22 1a21.13 21.13 0 0 1 -7.07.79c-.83-.06-1 1.34-.2 1.47z"/><path d="m548.54 381.07c.13 1.06.9 1.57 1.75 2.1a22.47 22.47 0 0 0 3.17 1.61c1.1.47 2.2.93 3.34 1.29a12.62 12.62 0 0 0 1.61.4c.37.07.76.12 1.14.17.15 0 .48.15.12 0-.65-.32.7.37 0 0l-.7-.92v.07a1.51 1.51 0 0 0 2.49.66 1.65 1.65 0 0 0 .12-2.28 2.67 2.67 0 0 0 -2.13-.75 22.09 22.09 0 0 1 -3.25-.61c-1.11-.29-2.18-.67-3.28-1-.59-.16-1.17-.29-1.75-.45-.26-.07-1-.19-1.12-.49a.76.76 0 0 0 -.84-.55.75.75 0 0 0 -.67.75z"/><path d="m495.17 398.44c-.91-4-2.47-7.91-6.38-9.06-4.48-1.32-8.49 2-8.86 6.61s2.38 9 5.76 12.23a6.36 6.36 0 0 1 1.81 2.26 5.78 5.78 0 0 1 .19 2.27 75.2 75.2 0 0 1 -1.57 11.39 82.58 82.58 0 0 1 -13.59-37.84c-1.19-11.3-.14-23 4.34-33.43 11.84-27.55 52.38-33.84 77.2-20.39 8.39 4.55 16.4 14.51 15.79 25.08-7-4.67-16.62-6.7-25.05-6.71-12.06 0-24.42.1-35.68 4.41a3.7 3.7 0 0 0 -1.86 1.21 3.88 3.88 0 0 0 -.41 2.29c.16 5.38.21 10.92-1.76 15.92-2.11 5.33-6.45 10-6.63 15.7-.08 2.81.68 6.19-1.48 8-.45.44-1.49.57-1.82.06"/><path d="m495.76 398.28c-.7-3.19-1.78-6.68-4.55-8.68a7.64 7.64 0 0 0 -9 .09c-2.74 2.09-3.64 5.63-3.16 8.92.59 4 3 7.45 5.8 10.18.86.83 1.74 1.54 1.86 2.81a20 20 0 0 1 -.23 3.78 71.4 71.4 0 0 1 -1.34 8.49l1.87-.24a82.52 82.52 0 0 1 -13.7-42.93c-.48-13.18 2.18-27.63 11.26-37.71 7-7.76 16.71-12.48 26.8-14.68a65.17 65.17 0 0 1 31.4.89 43.57 43.57 0 0 1 14.57 6.8c5.29 4 9.6 9.89 11 16.47a20.7 20.7 0 0 1 .37 5.09l1.8-1c-5.85-3.83-12.78-5.76-19.69-6.53a94.21 94.21 0 0 0 -11-.32c-4 0-8 .14-12 .47a81 81 0 0 0 -11.59 1.73 55.69 55.69 0 0 0 -5.68 1.61c-1.47.51-3.41 1-4.3 2.39s-.54 3.5-.52 5.14c0 1.95 0 3.9-.14 5.85a26.35 26.35 0 0 1 -3.22 10.77c-1.81 3.32-4 6.57-4.79 10.33a23.4 23.4 0 0 0 -.23 5.22 10.86 10.86 0 0 1 -.13 2.42c0 .13-.85 2.34-1.19 2-1.1-1.07-2.78.61-1.69 1.69a2.59 2.59 0 0 0 3.5-.07 5.65 5.65 0 0 0 1.78-3.64 34.94 34.94 0 0 0 .05-4.69 13.44 13.44 0 0 1 1-4.85c1.25-3.21 3.3-6 4.79-9.14a29.11 29.11 0 0 0 2.54-10.94c.12-1.95.11-3.9.06-5.85 0-.83-.27-2.1.15-2.85s1.7-1 2.5-1.32a61.86 61.86 0 0 1 11.71-2.81 137.56 137.56 0 0 1 23.92-1.05c8 .24 16.17 2.12 22.89 6.51a1.21 1.21 0 0 0 1.8-1c.33-7.1-2.88-13.82-7.53-19a38.26 38.26 0 0 0 -15.21-10 66 66 0 0 0 -32.73-3.35c-10.76 1.53-21.41 5.73-29.56 13.05-10.09 9.06-14.35 22.43-15 35.7a83.45 83.45 0 0 0 11.08 45.72q1.49 2.54 3.15 5a1 1 0 0 0 1.86-.24 64.87 64.87 0 0 0 1.62-12.24 5.27 5.27 0 0 0 -1.65-4 29.79 29.79 0 0 1 -3.66-4.27c-1.93-2.84-3.31-6.59-2-10a6 6 0 0 1 7.19-3.81c3.75 1.06 5.19 4.93 6 8.36.19.76 1.34.44 1.17-.33z"/><path d="m533.4 477c.63-3.64 1.32-7.28 2.2-10.87.43-1.76.88-3.51 1.3-5.26.15-.63.38-1.22.56-1.84s.18-1.12.81-1.51a.91.91 0 0 0 -.92-1.57 5.06 5.06 0 0 0 -2.78 3.14 38.84 38.84 0 0 0 -.94 5.47c-.55 4.08-1.13 8.16-1.65 12.25-.1.8 1.28 1 1.42.19z"/><path d="m538.32 427.79c-.51-.15-1.07-.19-1.6-.29a11.56 11.56 0 0 1 -1.52-.36 21.37 21.37 0 0 1 -2.87-1.23 5 5 0 0 0 -3-.56 2.56 2.56 0 0 0 -2.17 1.81c-.21.94 1 1.77 1.69 1a2.22 2.22 0 0 1 .7-.55 1.69 1.69 0 0 1 .77-.06 9.16 9.16 0 0 1 2.3.82 10.91 10.91 0 0 0 2.82.71 6.4 6.4 0 0 0 2.92-.09.62.62 0 0 0 0-1.19z"/><path d="m505.28 352.11c1.09 4.25 4.68 7.36 8.29 9.87 14.75 10.27 32.79 15.36 50.76 15.82 5.39.14 10.92-.16 15.88-2.26a2 2 0 0 0 .84-.53 2.12 2.12 0 0 0 .34-1.38 44.62 44.62 0 0 0 -3.64-16.06 50.74 50.74 0 0 0 -34.42-29.43"/><path d="m504.61 352.29c1.32 5.18 5.67 8.64 9.89 11.5a85.18 85.18 0 0 0 15 8.08 97.29 97.29 0 0 0 34.17 7.26 55.32 55.32 0 0 0 9.19-.32 24.43 24.43 0 0 0 8.31-2.25c2.3-1.24 1.52-4.65 1.23-6.75a46.87 46.87 0 0 0 -1.91-8.34 52.17 52.17 0 0 0 -37-34.16.86.86 0 0 0 -.46 1.66 49.92 49.92 0 0 1 22.97 13.03 53.12 53.12 0 0 1 10.4 15.48 42.28 42.28 0 0 1 3.6 14.06c0 .57.07 1.14.08 1.72s0 .84-.62 1.16a16.15 16.15 0 0 1 -4.28 1.28 42.47 42.47 0 0 1 -8.58.77 99.45 99.45 0 0 1 -32-5.19 85 85 0 0 1 -16.35-7.47c-4.74-2.82-10.62-6.26-12.28-11.89a.7.7 0 0 0 -1.34.37z"/><path d="m476.63 406.58c-8.75-6-20.45-4.89-30.87-2.8-9.16 1.83-18.2 4.21-27.24 6.59-2.82.74-5.79 1.57-7.86 3.63a11.14 11.14 0 0 0 -2.81 8.66 29.37 29.37 0 0 0 2.54 9c1.94 4.71 4.18 9.51 8.08 12.79s9.89 4.59 14.13 1.77l-4.9 4.56a3.58 3.58 0 0 0 -1.12 1.48c-.38 1.23.59 2.42 1.48 3.34l6.41 6.59c1.92 2 4 4 6.64 4.73s6.05-.56 6.62-3.26l-.28 5.39c2.48 2.71 6.94 2.73 10.18 1s5.5-4.82 7.53-7.88a273.48 273.48 0 0 0 14-24.62c3.29-6.28 6.66-12.91 6.5-20"/><path d="m477 406c-6.39-4.65-14.42-5.37-22.08-4.72-8.77.75-17.46 3-26 5.12-4.47 1.12-9 2.11-13.42 3.53-3.6 1.16-6.63 3.19-8.05 6.82s-.9 7.77.31 11.45a56.32 56.32 0 0 0 4.87 11c2.14 3.65 5.07 6.92 9 8.59a12.44 12.44 0 0 0 11.56-.53l-1.49-1.93c-1.63 1.52-3.28 3-4.89 4.57-1.18 1.13-1.91 2.45-1.33 4.1.64 1.8 2.44 3.19 3.73 4.51 1.51 1.55 3 3.1 4.52 4.64 2.28 2.32 5 4.95 8.46 5.11 2.81.13 5.8-1.5 6.53-4.34l-2.07-.28-.24 4.41a2.63 2.63 0 0 0 .18 1.62 4.56 4.56 0 0 0 1.31 1.16 8.92 8.92 0 0 0 5.71 1.42c4.84-.36 8.35-3.79 11.06-7.53a142.76 142.76 0 0 0 8.95-14.56c2.79-5 5.51-10.1 8.09-15.24 2.73-5.44 5.09-11.21 5-17.39a1.14 1.14 0 0 0 -2.27 0 31.63 31.63 0 0 1 -3.28 13.47c-1.94 4.25-4.21 8.36-6.4 12.48-2.29 4.3-4.63 8.58-7.15 12.76-2.27 3.76-4.56 7.9-7.8 10.92-3 2.83-8.3 4.57-11.61 1.16l.31.75.28-5.39a1.06 1.06 0 0 0 -2.07-.28c-.58 2.25-3.26 2.92-5.3 2.4-2.72-.7-4.73-3-6.61-5l-3.37-3.47a36.56 36.56 0 0 1 -3.2-3.39c-.51-.69-.7-1.23-.09-1.92s1.1-1 1.64-1.54l3.68-3.41a1.24 1.24 0 0 0 -1.49-1.93 10.07 10.07 0 0 1 -9.32.41 16.78 16.78 0 0 1 -7.47-6.92 53.55 53.55 0 0 1 -4.57-9.83c-1.24-3.4-2.14-7.12-1-10.68s4.28-5.17 7.69-6.16c4-1.14 8-2.14 12-3.16a216 216 0 0 1 23.59-5.15c7.91-1.1 16.43-.88 23.4 3.47.72.45 1.31-.64.65-1.12z"/><path d="m475.44 406.05a64.6 64.6 0 0 0 4.39 6.6c.8 1 1.64 2.06 2.53 3s1.94 1.83 2.72 2.72a1.1 1.1 0 0 0 1.72-.22 1.72 1.72 0 0 0 -.57-2.18c-.5-.45-1-.9-1.47-1.37-1-.95-2-1.9-2.94-2.9a50.47 50.47 0 0 1 -5.26-6.33c-.47-.68-1.55-.08-1.12.65z" fill="#18c4ff"/><path d="m404 610.24a12.25 12.25 0 0 1 9.49-5.31c2.1-.1 4.21.14 6.28-.4a11.45 11.45 0 0 0 4.86-2.58c.67-.63-.24-1.86-1-1.3a12.35 12.35 0 0 1 -5.44 2.49c-2.23.37-4.5.05-6.72.53a13.87 13.87 0 0 0 -8.54 6c-.44.67.62 1.27 1.07.62z"/><path d="m607.1 551.55a212.42 212.42 0 0 1 -.78 23.8c-.77 8-2.22 15.87-3.77 23.75-.23 1.16 1.49 1.66 1.79.49a139.17 139.17 0 0 0 3.79-23.76 151.41 151.41 0 0 0 .2-24.28c-.06-.79-1.25-.81-1.23 0z"/><path d="m823.82 303.27-10.36.07q-10.9.17-15.93.47-4.49.39-6.42.39a11.11 11.11 0 0 1 -7.5-2.4 7.41 7.41 0 0 1 -2.7-5.72 5.27 5.27 0 0 1 1-3.41 26.84 26.84 0 0 1 4.87-3.86 8 8 0 0 0 3.1-4.83 115.72 115.72 0 0 0 1.85-14.11q1.47-16.86 1.47-41.53 0-9-1.2-12c-.8-2-2.66-3.62-5.6-4.91-3.4-1.44-5.11-3.55-5.11-6.34a6.57 6.57 0 0 1 3.06-5.57 13.27 13.27 0 0 1 7.85-2.16q2.63 0 6.72.23 6.81.31 14.69.31 5.8 0 22.81-.46 5.34-.16 9.67-.16a67.51 67.51 0 0 1 16.58 1.66 27.44 27.44 0 0 1 10.94 5.61q7.57 6.42 7.58 17.17a25.48 25.48 0 0 1 -2.19 10.37 21 21 0 0 1 -6 8.08c-1.81 1.45-2.71 2.76-2.71 4s1.08 2.37 3.25 3.25a30 30 0 0 1 11.46 8.58q5.34 6.26 5.33 15.69 0 11.14-8.11 20.34-10.76 12.13-31.78 12.14-2.86 0-14.07-.39zm5.34-83.89v15.92q0 3.8 1 5.34a3.66 3.66 0 0 0 3.36 1.55c3.82 0 6.63-1.18 8.43-3.52s2.71-6 2.71-11q0-7.28-2.78-11.25a9.06 9.06 0 0 0 -7.89-4q-2.72 0-3.75 1.5c-.74 1.01-1.08 2.83-1.08 5.46zm0 44.53v7.35q0 10.13 1.46 13.45t6 3.33q11.74 0 11.75-13.77 0-17.16-13.14-17.16-3.41 0-4.72 1.47c-.92.98-1.35 2.75-1.35 5.33z" fill="#18c4ff"/><path d="m160.51 417.12c-5.07-4.6-4.23-14 1.58-17.67l-9.29-5.54a5.69 5.69 0 0 1 -2.29-2c-1.6-2.94 2.48-5.77 5.81-6.14a24.58 24.58 0 0 1 22.56 10.53c2.53 3.79 3.93 8.2 5.44 12.49a211.43 211.43 0 0 0 59.31 88.08c5 4.45 10.44 8.74 16.82 10.85 6.81 2.26 14.18 1.86 21.35 1.44 11.6-.68 23.39-1.4 34.35-5.25 0 0 18.56 35.59 13.85 76.6l-1.76 7.88c-45.54 1.57-100.61-1.77-132.86-38.76-1.12-1.28-2.2-2.6-3.25-3.94-21.62-27.77-29.7-60.1-39.65-93.12-2.21-7.34-4.61-15-10-20.43-5.23-5.24-12.56-7.67-19.08-11.2-4.38-2.37-8.69-5.73-11.14-9.93a3.43 3.43 0 0 1 3.92-5l11.29 3.22-14.88-8.45a3.76 3.76 0 0 1 -1.88-4.13c.46-1.76 2.11-2.08 3.58-2.2a29.48 29.48 0 0 1 17.16 4 27.63 27.63 0 0 1 -13.84-5.45c-.87-.66-1.79-1.6-1.59-2.68s1.29-1.56 2.26-1.89a23.89 23.89 0 0 1 16 .32 21.23 21.23 0 0 1 -14.26-6c-.77-.75-1.54-1.69-.91-3a3 3 0 0 1 2.29-1.53 58 58 0 0 1 44.5 13.49" fill="#fff"/><path d="m328.24 587.75c-20.59.58-41.4.21-61.74-3.27s-40.19-10.12-56.68-22.59c-19-14.4-31.24-36.2-39.87-58.06-4.5-11.4-8.14-23.11-11.65-34.85-1.77-5.93-3.5-11.88-5.3-17.8-1.66-5.46-3.47-11-6.72-15.78s-7.88-8-13-10.55c-5.26-2.67-10.88-4.83-15.43-8.69a25.44 25.44 0 0 1 -2.91-2.87c-.84-1-2.18-2.43-2.3-3.77-.17-2 1.82-3 3.54-2.55 2.88.79 5.74 1.64 8.61 2.46l2.38.68a.92.92 0 0 0 .7-1.67l-9.87-5.62q-2.34-1.32-4.67-2.65a3.22 3.22 0 0 1 -1.85-2.48c-.16-2.4 2.62-2.34 4.29-2.38a28.8 28.8 0 0 1 15.16 3.93l.48-1.76a26.74 26.74 0 0 1 -8.18-2.24c-1.2-.55-7.58-3.58-5.92-5.25.85-.86 2.64-1.09 3.77-1.33a21.67 21.67 0 0 1 4.33-.48 23.31 23.31 0 0 1 8.58 1.51l.26-1.93a20.39 20.39 0 0 1 -12-4.39 7.69 7.69 0 0 1 -2.17-2.12c-.78-1.57 1.27-2 2.34-2.11a54.72 54.72 0 0 1 6.27-.3 58.18 58.18 0 0 1 36.55 13.57c.92.79 2.26-.54 1.34-1.34a58.73 58.73 0 0 0 -26.35-13 58 58 0 0 0 -14.58-1.17c-2 .1-5-.1-6.58 1.36s-1.26 3.68.25 5.2a22.34 22.34 0 0 0 15 6.29c1.17 0 1.25-1.57.26-1.93a24.72 24.72 0 0 0 -11.08-1.45 22.67 22.67 0 0 0 -5.41 1.14 4.11 4.11 0 0 0 -2.89 2.41c-.89 3.07 3.87 5.34 6 6.43a29.52 29.52 0 0 0 10.3 3c1 .11 1.24-1.32.48-1.76a30.73 30.73 0 0 0 -14.59-4.16c-1.9-.05-4.39-.19-6.06.9a4 4 0 0 0 -1.23 4.9c.82 1.9 2.76 2.71 4.44 3.66l7.33 4.15 5.13 2.96.7-1.66-7.86-2.24c-2.71-.77-5.93-2.19-8 .57-1.57 2-.8 4.23.54 6.13a27 27 0 0 0 6.09 6.07c4.83 3.58 10.54 5.63 15.79 8.48a33.22 33.22 0 0 1 7.48 5.29 28.44 28.44 0 0 1 5.27 7.45c2.76 5.46 4.3 11.48 6 17.32 3.6 12.09 7.08 24.22 11.24 36.13a212.84 212.84 0 0 0 15.08 34.46c6 10.6 13.08 20.77 22 29.09 15.44 14.4 35.35 22.91 55.79 27.37 20.82 4.55 42.26 5.4 63.5 4.84 2.54-.07 5.08-.15 7.62-.26.82 0 .83-1.31 0-1.29z"/><path d="m161 416.66c-4.63-4.43-3.89-13 1.54-16.49a.85.85 0 0 0 0-1.45l-5.9-3.54c-1-.59-2-1.17-3-1.77s-2-1.08-2.47-2.11c-.65-1.57 1-2.92 2.19-3.61a10.3 10.3 0 0 1 5.17-1.13 23.8 23.8 0 0 1 18.75 9.09c2.57 3.35 4 7.36 5.42 11.31 1.29 3.69 2.62 7.37 4.09 11a209.89 209.89 0 0 0 9.95 21.21 213.58 213.58 0 0 0 26.42 38.33 210.45 210.45 0 0 0 16.42 17c5.76 5.31 11.8 10.77 19.19 13.67 8 3.14 16.9 2.38 25.33 1.89 8.75-.51 17.56-1.15 26.09-3.27a54.21 54.21 0 0 0 6.2-1.93c1.11-.42.67-2.2-.51-1.83a116.82 116.82 0 0 1 -26.88 4.69c-4.54.33-9.1.66-13.65.78a45.32 45.32 0 0 1 -13.35-1.29c-8.22-2.29-14.84-8.24-21-13.89a210.33 210.33 0 0 1 -44-57.62 207 207 0 0 1 -10-22.08c-2.83-7.41-4.66-15.78-10.5-21.52a25.53 25.53 0 0 0 -19.48-7.28c-2.84.21-6.39 1.5-7.52 4.39-1.51 3.85 3.44 5.83 6 7.33l6.13 3.63v-1.45c-6.19 4-7.09 13.83-1.61 18.86.61.56 1.52-.34.92-.92z"/><path d="m286.13 329.8v-160.36a6.23 6.23 0 0 0 -6.23-6.23h6.69a6.23 6.23 0 0 1 6.23 6.23v160.36a6.23 6.23 0 0 1 -6.23 6.23h-6.69a6.23 6.23 0 0 0 6.23-6.23z"/><path d="m287 329.8v-156.8c0-2.39.28-5-1-7.13a7.25 7.25 0 0 0 -6.15-3.53v1.8h4.77c2.14 0 4.2 0 5.8 1.68a6.17 6.17 0 0 1 1.45 4.52v157.18 2.18a5.49 5.49 0 0 1 -1.56 3.87c-1.63 1.63-3.68 1.56-5.8 1.56h-4.61v1.8a7.25 7.25 0 0 0 7.1-7.13.9.9 0 0 0 -1.8 0 5.41 5.41 0 0 1 -5.33 5.33.9.9 0 0 0 0 1.8h5c2 0 3.95 0 5.7-1.23a7.45 7.45 0 0 0 3.13-6.42v-158.14c0-.56 0-1.13 0-1.69a7.26 7.26 0 0 0 -3.26-6c-1.78-1.17-3.76-1.14-5.79-1.14h-4.75a.9.9 0 0 0 0 1.8 5.45 5.45 0 0 1 5.33 5.65v139.46c0 6.75-.2 13.54 0 20.29v.29a.9.9 0 0 0 1.77 0z"/><rect fill="#18c4ff" height="172.82" rx="5.19" width="261.13" x="25" y="163.21"/><path d="m30.19 336.93h244.73c2 0 4 .05 5.94 0a6.2 6.2 0 0 0 6.17-6.21c0-.94 0-1.88 0-2.82v-148.83c0-3.42 0-6.85 0-10.27a6.24 6.24 0 0 0 -6.1-6.49h-250.69a6.22 6.22 0 0 0 -6.14 6.25c-.06 3.06 0 6.12 0 9.17v152.7a6.24 6.24 0 0 0 6.09 6.5c1.16 0 1.16-1.76 0-1.8a4.36 4.36 0 0 1 -4.29-4.36c0-.28 0-.56 0-.84v-153.21c0-2.75-.09-5.51 0-8.26a4.42 4.42 0 0 1 4.63-4.35h2.44 246.82a10.57 10.57 0 0 1 1.95.07c2.68.5 3.49 2.88 3.49 5.22v159 2.35a4.42 4.42 0 0 1 -4.67 4.33c-2.42 0-4.84 0-7.26 0h-243.11a.9.9 0 0 0 0 1.85z"/><path d="m153.49 337.47c-.31 9.3-.21 18.64-.17 27.95s.11 18.8.24 28.2c.25 18.63.66 37.25 1.09 55.88q.18 7.86.39 15.71c.14 5.23 0 10.59.75 15.77.21 1.37 2.17.9 2.27-.3.38-4.62-.09-9.34-.26-14s-.34-9.31-.5-14q-.47-14-.8-27.94-.66-27.93-1-55.89c-.13-10.47-.12-21-.52-31.44a.73.73 0 0 0 -1.46 0z"/><path d="m192.94 249.92 14.61 31.31a21.89 21.89 0 0 0 3.48 5.68 7.69 7.69 0 0 0 4.25 1.82q5.57.86 5.57 5.65 0 5.64-6.81 8.11t-22.26 2.51q-17.47 0-25.91-1.47a11.81 11.81 0 0 1 -6.14-2.82 6.78 6.78 0 0 1 -2.28-5.14 5.09 5.09 0 0 1 1.19-3.6 11.07 11.07 0 0 1 4.45-2.36q3.63-1.23 3.63-4.17 0-5.19-6.26-6.11a147.13 147.13 0 0 0 -18.94-.93q-10.29 0-12.3 1.24a6.24 6.24 0 0 0 -2.16 2.78 9.2 9.2 0 0 0 -.93 3.87c0 1.13.22 1.87.66 2.2a20.17 20.17 0 0 0 4.29 1.66c3.14.93 4.72 2.79 4.72 5.57q0 9.21-22 9.2-12.53 0-18.4-1.7-5.42-1.62-5.41-7.11a5.33 5.33 0 0 1 1.19-3.71 10.54 10.54 0 0 1 4.3-2.4 16.59 16.59 0 0 0 7.61-5q2.6-3.21 7.39-13.72l10.9-23.89a189.1 189.1 0 0 0 8.08-19.68 44.64 44.64 0 0 0 2.12-12.8 41.17 41.17 0 0 1 .82-9.24 11.59 11.59 0 0 1 3.28-5.06 18.29 18.29 0 0 1 13.61-5.42q7.81 0 14.92 6.11 9.86 8.34 28.73 48.62zm-53.82 9.74h15.16q4.17 0 4.17-1.86 0-2.55-5.8-12.52a40.54 40.54 0 0 0 -4-6.11 4 4 0 0 0 -2.94-1.55q-2.77 0-4.64 5.18-.3.7-2.24 5.49-3.24 7.89-3.25 9.44c-.02 1.27 1.17 1.93 3.54 1.93z"/><path d="m159.24 415.27c-1.35-2.17-2.55-4.61-2.35-7.16.23-3.11 2.45-5.64 4.26-8.18a.67.67 0 0 0 .16-.39c0-.28-.32-.42-.59-.5a31.25 31.25 0 0 1 -8.42-4 6.32 6.32 0 0 1 -2.19-2.17c-1-1.93.09-4.4 1.84-5.68 2.93-2.13 7.28-2.55 10.76-1.84s7.1 2.83 10.18 4.82" fill="#fff"/><path d="m159.76 415a13.79 13.79 0 0 1 -1.92-5.8 9.23 9.23 0 0 1 1.93-5.52c.49-.75 1-1.47 1.55-2.19.4-.54 1.06-1.19 1-1.91-.06-1.61-2.56-1.87-3.68-2.31a30.83 30.83 0 0 1 -5.49-2.87c-1.65-1.09-3-2.48-2.09-4.55 1.42-3.18 6-3.88 9.06-3.76a16.74 16.74 0 0 1 6.13 1.54c2.14 1 4 2.35 6.1 3.4.93.46 2.1-.79 1.18-1.53-5.69-4.63-15-7.82-21.7-3.5-2.71 1.74-4.37 5.49-2.08 8.26a16.34 16.34 0 0 0 5.05 3.52 29.35 29.35 0 0 0 2.67 1.24c.55.23 1.1.45 1.67.65a6.34 6.34 0 0 1 1.24.43l-.11-.8c-.14.62-.89 1.29-1.27 1.81s-.89 1.22-1.29 1.86a11.56 11.56 0 0 0 -1.71 4.12c-.57 3.17.92 6 2.67 8.52a.61.61 0 0 0 1-.61z"/><g fill="#fff"><path d="m373.35 493.6c-3.5 5.41-6.86 10.9-10.26 16.37-1.1 1.77-3.49 4.64-1.34 6.56a8.68 8.68 0 0 0 2.86 1.32c1.47.54 3 1 4.48 1.42a65.66 65.66 0 0 0 8.79 1.73c1.48.18 3 .32 4.45.4a21.29 21.29 0 0 0 4.37.05c2.67-.42 1.61-3.49 1.14-5.23a48.51 48.51 0 0 0 -2.64-7.33 47.19 47.19 0 0 0 -4.46-7.78q-1.19-1.69-2.52-3.27c-.48-.57-1-1.13-1.48-1.68-.3-.32-1.56-1.27-1.51-1.65l-.45.78.12-.09-.68.09-.26-.35.22-.83-.1.08c-.74.62.21 1.8 1 1.32l.11-.06a.87.87 0 0 0 .39-1c-.39-1.7-2.89-.76-2.05.94a12.26 12.26 0 0 0 2.11 2.39c.91 1 1.78 2 2.59 3.11a46.27 46.27 0 0 1 7 13.26c.39 1.17.73 2.34 1 3.53.08.31.48 1.33.33 1.63-.25.51-1.41.24-1.9.23a60.41 60.41 0 0 1 -17.11-2.74c-1.27-.39-2.56-.76-3.79-1.27-.93-.39-1.32-.8-.84-1.88a17 17 0 0 1 1.15-2c3.47-5.8 7-11.59 10.35-17.46a.63.63 0 0 0 -1.09-.64z"/><path d="m354.62 585.36c2.2-3.64 4-7.6 5.94-11.38l1.44-2.8c.22-.43.43-.87.67-1.29a1.09 1.09 0 0 1 1.53-.6 10.75 10.75 0 0 1 2.32 1.43q1.28.87 2.49 1.83a42.48 42.48 0 0 1 7.72 8c.28.38.58.67.57 1.15s-.51.79-1 1.08a10.73 10.73 0 0 1 -2.3 1 22.91 22.91 0 0 1 -5.08.74c-1.85.11-3.7.15-5.54.37a21.93 21.93 0 0 0 -2.67.47c-.46.11-3.22 1.28-3.27.28a.92.92 0 0 0 -1.84 0c0 2.31 2.45 2.51 4.13 2a26.65 26.65 0 0 1 6.7-1.09c3.88-.2 9-.06 12.05-3 1.75-1.68.22-3.41-1-4.88a43.85 43.85 0 0 0 -10.68-9.65c-1.49-1-3.68-2.4-5.12-.58a22 22 0 0 0 -2 3.76l-2.17 4.34c-1.39 2.78-2.94 5.54-4.15 8.41-.28.68.81 1.09 1.17.49z"/><path d="m332.56 537.14q3.31 1.86 6.47 4c1 .69 2 1.39 3 2.12a12.75 12.75 0 0 1 2.63 2.22c1.42 1.86-1 3.21-2.44 3.86-1.16.51-2.34 1-3.52 1.43l-1.76.62-1 .34-.44.14q-.74.07-.06.9l-.52.4h.13c1.1-.28.61-1.82-.46-1.66a1.19 1.19 0 0 0 -.52 2c.93.85 2.56-.07 3.53-.41a31.88 31.88 0 0 0 6.91-3c1.61-1.08 2.85-2.85 1.91-4.8a6.29 6.29 0 0 0 -2-2.17c-1.09-.82-2.2-1.6-3.32-2.36a87 87 0 0 0 -7.82-4.7c-.72-.39-1.36.7-.64 1.1z"/><path d="m328.3 499.4a4 4 0 0 0 2.37 2.13 4.34 4.34 0 0 0 3-.23 5.42 5.42 0 0 0 2.82-5.34.79.79 0 0 0 -.77-.77.78.78 0 0 0 -.77.77 4.09 4.09 0 0 1 -1.81 4.06 3 3 0 0 1 -2 .25 2.7 2.7 0 0 1 -1.73-1.51c-.4-.7-1.47-.07-1.08.64z"/><path d="m313 610.07a58.23 58.23 0 0 0 13.64-5.31l-1.15-.47c.58 3.83 1 7.74 1.82 11.52.21.92 1.77.74 1.67-.23-.4-3.92-1.3-7.82-2-11.7a.79.79 0 0 0 -1.15-.47 57.26 57.26 0 0 1 -13.17 5.47.62.62 0 0 0 .32 1.19z"/><path d="m401.43 603.7a57.46 57.46 0 0 1 5.42-12.08c.27-.44.52-.93.83-1.34.2-.25.22-.32.49-.18a2.19 2.19 0 0 1 .46.5c.74.89 1.44 1.81 2.15 2.71l4.5 5.66a.85.85 0 0 0 1.2 0c.33-.35.65-.72 1-1.08.7-.8-.44-2-1.18-1.18-.33.35-.67.7-1 1.06h1.2l-5.36-6.57a9 9 0 0 0 -2.37-2.55 1.77 1.77 0 0 0 -2.32.77 44.13 44.13 0 0 0 -3.52 6.66 61.11 61.11 0 0 0 -2.69 7.28.63.63 0 0 0 1.21.34z"/><path d="m421.15 537c-4.18 1-8.45 2.07-12.17 4.31-1.61 1-3.61 2.28-4.56 4-1.17 2.07.87 3.43 2.32 4.53q3.21 2.41 6.5 4.73c2.07 1.46 4.13 3 6.3 4.3 2.33 1.37 3.25-.91 4.15-2.71a57.15 57.15 0 0 0 2.92-6.89c1.05-3.06 3.33-9.68-1.12-11.24-1.08-.38-1.51 1.3-.47 1.7 2.84 1.09.62 6.88 0 8.69a50.22 50.22 0 0 1 -2.16 5.4c-.4.86-.82 1.7-1.25 2.54-.25.48-.32.93-.86 1s-1.13-.5-1.58-.8q-5.12-3.4-10.06-7c-.81-.6-1.62-1.19-2.41-1.8-.28-.22-.78-.54-.91-.88-.24-.62.38-1.22.75-1.61a16.62 16.62 0 0 1 3.9-3c3.41-1.95 7.25-3 11-3.95a.62.62 0 0 0 -.33-1.19z"/><path d="m441.81 495.77a40.86 40.86 0 0 0 -14.94 2.36c-1.59.56-4.85 1.22-4.46 3.49a10.58 10.58 0 0 0 1.17 2.8 26.53 26.53 0 0 0 1.77 3 31.31 31.31 0 0 0 9.23 9c1.67 1 4 2 5.71.57a6.55 6.55 0 0 0 1.6-2.46c.54-1.2 1.05-2.41 1.54-3.63a64.59 64.59 0 0 0 2.77-8.11c.52-2.08.19-5-2.37-5.43-1.18-.22-1.7 1.57-.5 1.83 2.13.45.94 3.49.53 4.8q-.89 2.85-2 5.64c-.36.94-.74 1.88-1.15 2.82a12.72 12.72 0 0 1 -1.29 2.68c-1.29 1.73-3.67-.12-4.95-1a28.91 28.91 0 0 1 -7.26-7.25 31.53 31.53 0 0 1 -2.55-4.35c-.16-.33-.68-1.12-.44-1.48s.78-.38 1-.49c1.05-.47 2.11-.89 3.19-1.26a42.77 42.77 0 0 1 13.4-2.3.62.62 0 0 0 0-1.24z"/><path d="m436.22 474.7c1.54 1.36 3.09 2.7 4.71 4l2.47 1.9a15 15 0 0 0 2.37 1.69c1.75.86 2.81-1.28 3.64-2.45 1.21-1.72 2.38-3.48 3.42-5.31a.77.77 0 0 0 -1.33-.78c-.92 1.45-1.81 2.91-2.77 4.34-.49.73-1 1.45-1.51 2.17-.19.26-.41.75-.79.67s-.73-.5-1-.67c-2.84-2.05-5.63-4.2-8.35-6.41-.62-.51-1.51.34-.89.88z"/><path d="m468.16 530.74a160.48 160.48 0 0 0 -11.09 14.62c-1.23 1.9-1.44 4.09.44 5.64s5 2.18 7.38 2.81a69.22 69.22 0 0 0 8.81 1.71c1.48.2 3 .34 4.46.44a16.56 16.56 0 0 0 4 0 2.53 2.53 0 0 0 2.07-1.58c.39-1.19-.31-2.6-.65-3.72q-1.37-4.43-2.92-8.77-.88-2.46-1.84-4.89a13.91 13.91 0 0 0 -1.85-3.72c-1.42-1.81-4.3-2.64-6-.72-.79.88.51 2.2 1.31 1.31 1.8-2 3.73 1.19 4.32 2.62.9 2.16 1.71 4.36 2.5 6.57s1.55 4.48 2.27 6.74a25.24 25.24 0 0 1 1 3.17c.14.77.06 1.1-.75 1.21a9.26 9.26 0 0 1 -1.58 0 68.22 68.22 0 0 1 -14.22-2 29.45 29.45 0 0 1 -6.38-2 2.6 2.6 0 0 1 -1.69-2c0-1.16 1-2.32 1.59-3.23q4.59-6.82 9.71-13.26c.5-.63-.38-1.54-.9-.9z"/><path d="m486.58 487.26a93.41 93.41 0 0 0 -.91 10.57c-.07 2.49-.54 5.88 1 8.05 1.88 2.63 4.9.56 6.9-.74a42.05 42.05 0 0 0 7.69-6c.58-.61-.21-1.78-.94-1.22-2.18 1.65-4.23 3.45-6.49 5a30.61 30.61 0 0 1 -3.42 2.2c-1.21.63-2.21.47-2.76-.84a8.88 8.88 0 0 1 -.47-3.24c-.05-1.49-.07-3 0-4.48 0-3 .27-6.08.62-9.1.08-.68-1.1-.84-1.2-.16z"/><path d="m510.67 565.71a99.42 99.42 0 0 1 6.74-13.65c1.31-2.21 2.69-4.38 4.17-6.49a10.3 10.3 0 0 1 1-1.47c.56-.56 1-.46 1.73-.22a23.24 23.24 0 0 1 3 1.29 25.83 25.83 0 0 1 9.78 8.75c.58.88 1.47 2 1.23 3.16a5.66 5.66 0 0 1 -2.25 2.78 17.56 17.56 0 0 1 -6.13 2.86 36.93 36.93 0 0 1 -17.79.45c-1.2-.26-1.71 1.58-.51 1.84a39.18 39.18 0 0 0 18.24-.3 20 20 0 0 0 7.13-3.19c1.81-1.36 3.76-3.35 3.12-5.81s-2.56-4.58-4.17-6.3a27.55 27.55 0 0 0 -5.87-4.78 28.81 28.81 0 0 0 -3.27-1.68 9.73 9.73 0 0 0 -3.52-1.12 2.67 2.67 0 0 0 -2.22 1.39c-1 1.34-1.88 2.74-2.77 4.14a98.05 98.05 0 0 0 -8.91 18c-.29.77.93 1.08 1.23.33z"/><path d="m462.2 602.61-4.2-6.61-2.09-3.3c-.51-.81-2.39-2.9-1.71-3.86a4.76 4.76 0 0 1 1.45-.89 15.12 15.12 0 0 1 1.74-.78 28.81 28.81 0 0 1 3.29-1 70.49 70.49 0 0 1 7.76-1.4 73.19 73.19 0 0 1 7.68-.52h3.61c.86 0 1.1.12.88 1a15.12 15.12 0 0 1 -.61 1.87c-.89 2.2-2.12 4.24-3 6.45s-1.54 4.67-2.65 6.85-2.59 4.15-4.82 5a5.25 5.25 0 0 1 -6.06-1.36c-.67-.8-2.07.27-1.45 1.13 3 4.16 8.92 2.68 11.87-.74a22.31 22.31 0 0 0 3.81-7.45c1-2.91 2.35-5.6 3.6-8.42.7-1.58 2.5-5.24-.08-6a15.15 15.15 0 0 0 -4.15-.17c-1.77 0-3.53.09-5.29.22a74.46 74.46 0 0 0 -9.29 1.32 25.27 25.27 0 0 0 -8.47 2.86c-1 .61-2.05 1.38-1.86 2.66a5.17 5.17 0 0 0 1 1.92l1.63 2.44q3.12 4.68 6.26 9.35c.44.66 1.52 0 1.08-.64z"/><path d="m519.62 613.49a45.61 45.61 0 0 1 4-12.09 41.13 41.13 0 0 1 3.05-5.16c1.1-1.56 2.56-3.14 4.65-2.89 4.33.5 5.89 5.9 7.33 9.25 1.88 4.38 3.8 8.74 5.7 13.1l.56-1.39a29.29 29.29 0 0 1 -11.19 1.93 35.24 35.24 0 0 1 -11.08-2.49c-1-.34-1.58 1.17-.69 1.65 7 3.72 16.23 3.49 23.46.73a1 1 0 0 0 .57-1.38l-5-11.51c-1.43-3.28-2.67-7.39-5.48-9.79-2.22-1.9-5.39-2.54-7.84-.67s-4.24 5.55-5.59 8.45a44.89 44.89 0 0 0 -3.61 11.94c-.12.76 1 1.1 1.17.32z"/><path d="m581.4 567.27-17 7.17c-1.31.56-2.63 1.09-3.94 1.66a1.79 1.79 0 0 0 -1.32 1.83c.14 2.22 1.73 4.58 3 6.28a38.41 38.41 0 0 0 5.12 5.24c1.71 1.51 3.58 3.41 6 3.43 4.69 0 7-5.85 8.29-9.44.67-1.8 5-14.62-.25-13.41-1.16.27-.64 1.94.49 1.76.6-.1-.35 5.2-.45 5.62a41.58 41.58 0 0 1 -1.92 6.36c-1.07 2.72-3.46 8.62-7.41 7-1.79-.75-3.34-2.46-4.76-3.76a29.58 29.58 0 0 1 -4-4.34 17.72 17.72 0 0 1 -1.38-2.24c-.22-.44-.42-.88-.6-1.33-.06-.17-.48-1.06-.4-1.24s1.31-.59 1.54-.69l1.51-.67 3.25-1.44 14.75-6.55c.67-.29.18-1.48-.51-1.2z"/><path d="m569.26 512.5-14.41 2.9-3.49.7a3.76 3.76 0 0 0 -2.51 1.2c-1 1.36-.21 3.29.63 4.52a16.06 16.06 0 0 0 4.29 3.75l6.15 4.24c2.87 2 7.22 4.48 10.19 1.21a9.61 9.61 0 0 0 2-5.22c.37-2.63.76-5.29.91-7.94.06-1-1.51-1.19-1.69-.23-.63 3.38-.53 7-1.61 10.33-.5 1.53-1.58 2.81-3.32 2.77s-3.39-1.11-4.78-2.05c-1.61-1.09-3.21-2.21-4.81-3.32a44.91 44.91 0 0 1 -4.44-3.19c-.83-.73-3.33-3.36-1.45-4.17a13.45 13.45 0 0 1 2.45-.58l3-.7 13.22-3c.8-.18.46-1.37-.33-1.21z"/><path d="m539.06 485.24a26.48 26.48 0 0 0 5.59 2.38 25.17 25.17 0 0 0 3 .67 3.15 3.15 0 0 0 2.55-.25 2.66 2.66 0 0 0 .92-2c.1-1 0-2 0-3s0-2.24 0-3.36a4.29 4.29 0 0 1 0-1.34c0-.11.15-.26.17-.36l.06-.09q-.3-.11-.21 0c.74.52 1.68-.68 1-1.26a1.36 1.36 0 0 0 -2 .08 3.14 3.14 0 0 0 -.75 2.22c0 2.21.11 4.43.09 6.64a2.38 2.38 0 0 1 -.13 1c-.18.38-.56.32-.93.29a20.27 20.27 0 0 1 -3-.59 27.21 27.21 0 0 1 -5.74-2.16c-.75-.39-1.41.71-.67 1.13z"/><path d="m616.51 514.56a38.49 38.49 0 0 0 -14.68-1.11 5.34 5.34 0 0 0 -2.61.71 2.64 2.64 0 0 0 -.93 2.45 25.2 25.2 0 0 0 1.87 6.26 64.39 64.39 0 0 0 2.86 6.54 27.7 27.7 0 0 0 3.3 5.58 4.5 4.5 0 0 0 5.14 1.27c2-.74 3.23-2.44 4.41-4.1q2.61-3.64 5.18-7.31c.85-1.21 2.17-3.64.19-4.56-1.09-.5-2 1.11-1 1.62.62.28-1.85 3.37-2.1 3.73l-3.45 4.88c-1 1.39-2 3.06-3.54 3.84-1.83.91-3.2 0-4.19-1.56a56.91 56.91 0 0 1 -4.84-9.69c-.66-1.67-1.23-3.37-1.74-5.09-.18-.59-.76-1.89-.26-2.47s2.17-.55 2.87-.63a37.21 37.21 0 0 1 13.13.85.63.63 0 0 0 .34-1.21z"/><path d="m582.24 484.7a51.46 51.46 0 0 0 4.87 6.5c.89 1.06 1.82 2.08 2.77 3.08.71.75 1.44 1.63 2.57 1.6a3.1 3.1 0 0 0 2.24-1.46c.79-1.06 1.35-2.3 2-3.42a59.91 59.91 0 0 1 4.79-6.73c.69-.85-.51-2.06-1.21-1.21a62.56 62.56 0 0 0 -4.16 5.71c-.61 1-1.2 2-1.76 2.94-.4.74-.93 2.22-1.81 2.5s-1.9-1.4-2.36-1.89c-.83-.89-1.64-1.8-2.43-2.71-1.59-1.84-3-3.8-4.53-5.69-.46-.58-1.39.17-1 .78z"/><path d="m646.5 556.83a69.65 69.65 0 0 1 -8.89.62c-2.48 0-5-.41-7.51-.16-2 .2-3.81 1.21-4.21 3.36a13.4 13.4 0 0 0 1.17 7 34 34 0 0 0 3.62 6.41c1.24 1.78 2.53 4 4.48 5.1s4 .27 5.4-1.37c1.79-2.11 3.39-4.41 5.07-6.61l3-3.89a13.86 13.86 0 0 0 2.42-3.58 2.65 2.65 0 0 0 -.66-2.92 2.08 2.08 0 0 0 -2.63-.22c-1 .75-.05 2.46 1 1.71.48-.34.44.54.38.77a3.61 3.61 0 0 1 -.63 1.09c-.66.91-1.37 1.79-2.05 2.69l-4 5.18a36.41 36.41 0 0 1 -3.91 5c-1.63 1.48-3.17 0-4.25-1.33a32.8 32.8 0 0 1 -5.82-10c-.46-1.46-1.31-4.24-.23-5.58 1-1.19 3.13-.92 4.45-.86a62.34 62.34 0 0 0 14.17-1c.91-.16.5-1.49-.38-1.37z"/><path d="m672.3 517.71c-4.19-.72-8.38-1.31-12.61-1.73-3.25-.32-8.22-1.68-9.56 2.42-1.17 3.6.79 7.41 2.64 10.4 2.3 3.72 4.7 7.39 7.05 11.08a1 1 0 0 0 1.54.2q3.5-3.14 6.9-6.37a45.12 45.12 0 0 0 6-6.09c1.29-1.82 1.89-4.55.34-6.41a3.51 3.51 0 0 0 -5.09-.38c-.9.88.48 2.26 1.38 1.38a1.53 1.53 0 0 1 2.14.16 2.81 2.81 0 0 1 .38 2.66c-.57 1.9-2.39 3.32-3.76 4.65q-4.73 4.61-9.64 9l1.54.2-6-9.47c-1.77-2.77-4.07-6-3.69-9.46a2.89 2.89 0 0 1 1.11-2.29 4.27 4.27 0 0 1 2.33-.23c1.93.1 3.86.27 5.79.43 3.71.33 7.42.67 11.11 1.08.7.07.87-1.12.17-1.24z"/><path d="m633.05 494.16a20.27 20.27 0 0 0 5.8 8.42 4.3 4.3 0 0 0 2.08 1.26 1.79 1.79 0 0 0 1.72-.88 4.53 4.53 0 0 0 .57-1.88 12 12 0 0 1 .54-2.37 11.33 11.33 0 0 1 3.24-4.71c.78-.69-.34-1.76-1.12-1.12a11.42 11.42 0 0 0 -3.35 4.65 12 12 0 0 0 -.73 2.69c-.07.52 0 1.67-.49 2s-1.59-.88-1.94-1.2a18.61 18.61 0 0 1 -2-2.07 19.38 19.38 0 0 1 -3.09-5.17c-.29-.73-1.49-.43-1.21.34z"/><path d="m693.12 559.78a39.29 39.29 0 0 0 -9.67 1c-2.36.54-5.29 1.18-6.87 3.19-1.79 2.3-.67 5.11.83 7.22a97.41 97.41 0 0 0 6.23 7.93c.68.78 2-.24 1.44-1.11-1.58-2.33-3.41-4.5-5.14-6.72-1.31-1.68-3.59-4.44-1.67-6.48 1.54-1.64 4.36-2.16 6.45-2.64a37.1 37.1 0 0 1 8.4-.93.71.71 0 0 0 0-1.41z"/><path d="m687 508.55c.87 1.36 1.95 3 3.66 3.31a3 3 0 0 0 3.6-1.95.75.75 0 0 0 -.51-.9.73.73 0 0 0 -.9.51v.21s0-.06 0 .08a1.09 1.09 0 0 1 -.08.15c0 .06.05 0 0 .05l-.14.14c-.15.14.1 0-.08.06a1.57 1.57 0 0 1 -.31.18 1.1 1.1 0 0 1 -.31.1h-.18-.07a2.16 2.16 0 0 1 -.74 0c-1.25-.31-2.07-1.58-2.75-2.58a.62.62 0 1 0 -1.06.63z"/><path d="m661.72 612.21a5.57 5.57 0 0 1 5.17-4.44 4.46 4.46 0 0 1 3.14 1.45 4.24 4.24 0 0 1 1.12 3.24.81.81 0 0 0 1.59.21c.63-3.25-2.45-6.37-5.62-6.44a6.9 6.9 0 0 0 -6.57 5.66c-.14.76 1 1.09 1.17.32z"/><path d="m611 604a21.33 21.33 0 0 1 6.63-4.2l-.9-.51a73.94 73.94 0 0 1 3.46 10.65.85.85 0 0 0 1.63-.45 75.76 75.76 0 0 0 -3.76-10.76.72.72 0 0 0 -.82-.33 23.17 23.17 0 0 0 -7.15 4.7c-.59.57.3 1.45.91.9z"/><path d="m570.06 644.75a95.29 95.29 0 0 1 3-11.66c.62-2 1.28-3.9 2.07-5.78a2.31 2.31 0 0 1 .8-1.2 1.68 1.68 0 0 1 1.55.29 16.19 16.19 0 0 1 2.28 1.77c2.79 2.35 5.79 5.27 5.92 9.18.11 3.49-2.58 6-5.48 7.48-3.86 1.93-8.33 2-12.31 3.64-1.09.43-.67 2.17.49 1.79 4.26-1.4 8.94-1.74 13-3.83 3.31-1.73 6.16-4.76 6.25-8.68.09-4.48-3.12-8.09-6.37-10.76-1.32-1.08-2.93-2.71-4.77-2.74-2.18 0-2.82 2.22-3.43 3.89a96.8 96.8 0 0 0 -4.34 16.22c-.16.91 1.23 1.31 1.41.39z"/><path d="m478.64 650.15 10.3-10.86c1.49-1.58 3.2-3.63 5.44-4.09s3.94 1.74 5.29 3.21a39.45 39.45 0 0 1 7.12 10.87c.38.88 1.43 2.66.35 3.27a11.94 11.94 0 0 1 -3.38.68l-7.19 1.31c-4.84.89-11.5 3.33-14.9-1.65-.71-1-2.39-.06-1.69 1a9 9 0 0 0 5.34 3.8c2.78.66 5.69-.11 8.42-.62l9.09-1.7c1.38-.26 2.79-.46 4.16-.78a3.31 3.31 0 0 0 2.4-1.62c.5-1.08 0-2.23-.41-3.25-.5-1.23-1.05-2.43-1.66-3.61a40.29 40.29 0 0 0 -4.21-6.44 24.94 24.94 0 0 0 -5.3-5.31 5.43 5.43 0 0 0 -6.19.36c-2.55 1.71-4.53 4.33-6.6 6.57l-7.32 7.94c-.58.62.35 1.56.94.94z"/><path d="m425 641.36a116.26 116.26 0 0 0 8.32-13.28q.93-1.73 1.8-3.48a25.74 25.74 0 0 1 1.57-3.1c1.93-2.83 4.76 1 5.92 2.6a93.27 93.27 0 0 1 7.44 13.27c.77 1.6 2.25 4.64.47 6.07-.84.69-2.11.7-3.13.93-1.25.29-2.44.79-3.66 1.18-2.78.9-5.14.36-7.89-.32-2.34-.59-4.65-.94-6.92.07-1 .43-.27 2.14.73 1.73 2.61-1.08 5.25 0 7.85.56a13.22 13.22 0 0 0 7.74-.58 28 28 0 0 1 3.81-1.07 5.28 5.28 0 0 0 3.18-1.57c1.42-1.68 1-4.14.25-6a68.57 68.57 0 0 0 -3.57-7.31 61.41 61.41 0 0 0 -4.5-7.47c-1.38-1.92-3.08-4.39-5.63-4.72s-3.6 2-4.5 3.92a112.82 112.82 0 0 1 -10.46 17.9c-.51.72.67 1.4 1.18.69z"/><path d="m399 666.29 8.7-.38c1.44-.07 3.22-.51 4.11.92a6.27 6.27 0 0 1 .75 3.73c-.18 2.63-1.45 5.11-2.63 7.41-1.33 2.58-2.78 5.13-4 7.77-.45 1 .93 1.88 1.51.88 1.66-2.86 3.12-5.92 4.57-8.9 1.27-2.62 2.47-5.56 2.16-8.54a7 7 0 0 0 -1.31-3.58 3.66 3.66 0 0 0 -3.36-1.31c-3.51.17-7 .44-10.53.65-.86.06-.87 1.39 0 1.35z"/><path d="m442 698.49c1.47-2.76 3-5.49 4.65-8.16.8-1.32 1.62-2.64 2.47-3.93a6.81 6.81 0 0 1 3.06-3 2.41 2.41 0 0 1 3.2 1.39c.68 1.37 1.23 2.81 1.84 4.21s1.27 2.94 1.91 4.4a49 49 0 0 0 2 4.57.86.86 0 0 0 1.56-.66c-.58-1.76-1.47-3.46-2.22-5.16s-1.55-3.53-2.32-5.3c-.62-1.41-1.13-3.15-2.26-4.26a3.85 3.85 0 0 0 -3.45-.94c-3.06.57-4.63 3.84-6.08 6.24q-2.94 4.86-5.54 9.91c-.39.77.76 1.45 1.17.68z"/><path d="m511.88 676.86a30.29 30.29 0 0 0 -13.86 4.5 4.92 4.92 0 0 0 -2.68 4.88 11.72 11.72 0 0 0 2.75 5.76 38.36 38.36 0 0 0 10.59 8.88c4.48 2.66 7.29-4.69 8.53-7.76a57.38 57.38 0 0 0 2.7-8.13c.53-2.25.11-5.27-2.58-5.83a.91.91 0 0 0 -.48 1.76c2.38.64 1.22 3.84.72 5.42-.58 1.86-1.17 3.72-1.88 5.53a32.54 32.54 0 0 1 -2.49 5.19 7.36 7.36 0 0 1 -1.64 2.15c-1.06.82-2 .07-2.89-.56a43.22 43.22 0 0 1 -8.47-6.95 13.23 13.23 0 0 1 -2.86-4.68 4.1 4.1 0 0 1 -.08-2.52 4.28 4.28 0 0 1 1.94-1.89 31.44 31.44 0 0 1 12.68-4.5c.78-.1.83-1.31 0-1.25z"/><path d="m550.4 656.42a71.74 71.74 0 0 0 -5.93 12.45c-.4 1.12-.78 2.26-1.13 3.4a11.69 11.69 0 0 0 -.77 3.12c0 1.9 1.94 2.23 3.42 2 2.41-.4 4.8-1 7.16-1.63s4.62-1.21 6.86-2c1.57-.57 3.24-1.43 3.86-3.1.76-2-.41-4.16-1.28-6-1.59-3.26-4.2-7.47-8.29-7.6a.91.91 0 0 0 -.24 1.78 7.7 7.7 0 0 1 3.65 1.93 14.82 14.82 0 0 1 2.51 3.48 14.4 14.4 0 0 1 2 4.63c.22 1.75-1.4 2.56-2.81 3.06a96.35 96.35 0 0 1 -11.41 3.11c-.88.2-1.77.44-2.65.56-.21 0-.72.12-.9 0s0-1 .11-1.29q.71-2.68 1.62-5.31a69.1 69.1 0 0 1 5.44-11.82.73.73 0 0 0 -1.26-.74z"/><path d="m577.16 695.62 1.36-5.55a54.18 54.18 0 0 1 1.35-5.34c1.1-3.08 4.59-1.5 6.69-.58.56.25 1.5 0 1.4-.8l-.15-1.29c-.13-1.07-1.74-1.14-1.72 0v1.29l1.4-.81c-2.46-1.41-6.63-2.48-8.52.38a7.26 7.26 0 0 0 -.88 2.49c-.24 1.13-.49 2.25-.74 3.38l-1.43 6.49c-.17.79 1 1.14 1.23.34z"/></g><g fill="#18c4ff"><path d="m436.29 257.77c-17-1.64-30 13.49-36.72 27.33-8.16 16.82-11.23 36.86-2.84 54.22 3.7 7.65 9.8 15 17.87 18.19a16.23 16.23 0 0 0 12.32.13 20.4 20.4 0 0 0 8.95-8c3.05-4.81 4.52-13.91-1.74-17-3.61-1.76-7.46-.25-10.28 2.25a21.64 21.64 0 0 0 -5.93 9.84c-4.28 13.57 1.05 29.85 12.59 38.2a30.36 30.36 0 0 0 4.49 2.67c1.07.51 2-1.06.94-1.61-11.81-6-18.59-19.59-17.36-32.63a28.8 28.8 0 0 1 2.5-9.37c1.54-3.31 4.16-6.76 7.78-7.9a5.71 5.71 0 0 1 7.32 3.83 13.06 13.06 0 0 1 -1 9 18.94 18.94 0 0 1 -7.29 8.11 14 14 0 0 1 -11.5 1.14c-7.77-2.44-13.71-9.38-17.42-16.36-8.28-15.59-6.48-34.1.15-49.92a64.68 64.68 0 0 1 12.78-20.15c5.07-5.24 11.55-9.6 18.93-10.53a24.83 24.83 0 0 1 5.45-.06c.91.08.91-1.34 0-1.43z"/><path d="m516.9 252.78c.87 11 1.88 22.1 2.83 33.15.08.92 1.53.92 1.44 0-1-11.05-2-22.11-3-33.15-.07-.77-1.28-.79-1.22 0z"/><path d="m564.27 245.44a153.83 153.83 0 0 0 -12.27 36.27c-.18.87 1.15 1.24 1.34.36a161.52 161.52 0 0 1 12-36c.34-.71-.72-1.34-1.07-.62z"/><path d="m606.48 257.51a327.25 327.25 0 0 0 -20.39 35c-.42.83.84 1.56 1.25.72a312.29 312.29 0 0 1 20.21-35.08c.44-.67-.62-1.29-1.07-.63z"/><path d="m437.12 711.63c-3.9 12.56-15 20.77-25.13 28.23l1.38.79a58 58 0 0 1 -.17-11l-1.41.81c2.81 1.28 5.61 2.61 8.45 3.82 1.08.46 2-1.07.94-1.6-2.78-1.34-5.63-2.57-8.44-3.84a1 1 0 0 0 -1.42.81 58.8 58.8 0 0 0 .22 11c.07.6.75 1.25 1.37.79 10.41-7.73 21.62-16.51 25.44-29.48a.64.64 0 0 0 -1.23-.33z"/><path d="m554.22 710.05a42.67 42.67 0 0 0 22.67 22.19.82.82 0 0 0 1-.57 55.85 55.85 0 0 0 .29-12.66.89.89 0 0 0 -1.31-.75l-4.2 2.6-1.9 1.14c-.36.23-.72.47-1.09.67-.14.08-1.24.58-1.15.16.21-1.11-1.43-1.59-1.7-.47a1.9 1.9 0 0 0 .87 2.14 2.74 2.74 0 0 0 2.71-.18c2.54-1.32 4.92-3.07 7.35-4.59l-1.31-.75a54.57 54.57 0 0 1 -.16 12.45l1-.79a42.1 42.1 0 0 1 -22-21.24c-.33-.73-1.38-.1-1.07.62z"/><path d="m514.33 781c1.87 9 4.17 17.94 6.91 26.72q2 6.52 4.39 13a127.68 127.68 0 0 0 5.09 12.69c.44.88 2 .26 1.61-.68-1.6-4.27-3.54-8.42-5.18-12.68s-3.16-8.56-4.57-12.9a257.57 257.57 0 0 1 -7.07-26.44c-.16-.76-1.34-.44-1.18.33z"/></g></svg>