<?xml version="1.0" encoding="UTF-8" standalone="no"?>
<svg width="49px" height="60px" viewBox="0 0 49 60" version="1.1" xmlns="http://www.w3.org/2000/svg" xmlns:xlink="http://www.w3.org/1999/xlink">
    <!-- Generator: Sketch 41.2 (35397) - http://www.bohemiancoding.com/sketch -->
    <title>Gesture 7</title>
    <desc>Created with Sketch.</desc>
    <defs></defs>
    <g id="Page-1" stroke="none" stroke-width="1" fill="none" fill-rule="evenodd">
        <g id="Gesture-7" fill="#000000">
            <path d="M45.4,59.4 L42.4,59.4 L42.4,53.1 L45.4,42.4 L45.4,32.6 L32.7,30.3 C28,29 25.4,26.2 25.4,22.5 L25.4,15.6 C25.4,13.4 23.6,11.6 21.5,11.6 C19.3,11.6 17.5,13.4 17.5,15.6 L17.5,39.4 L6.9,39.4 C4.7,39.4 3,41.2 3,43.4 C3,45.7 4.8,47.5 6.9,47.5 L11.5,47.5 C15.8,47.5 19.2,51 19.2,55.3 L19.2,59.2 L16.2,59.2 L16.2,55.3 C16.2,52.6 14.1,50.5 11.5,50.5 L6.9,50.5 C3.1,50.5 0,47.4 0,43.5 C0,39.6 3.1,36.4 6.9,36.4 L14.5,36.4 L14.5,15.6 C14.5,11.8 17.6,8.6 21.4,8.6 C25.3,8.6 28.4,11.7 28.4,15.6 L28.4,22.5 C28.4,25.3 31.1,26.7 33.5,27.4 L48.4,30.1 L48.4,42.8 L45.4,53.5 L45.4,59.4 Z" id="Shape"></path>
            <path d="M15.5,31.4 C9.3,28.9 5.3,23 5.3,16.3 C5.3,7.3 12.6,0 21.6,0 C30.6,0 37.9,7.3 37.9,16.3 C37.9,21.4 35.6,26.1 31.5,29.2 L29.7,26.8 C33,24.3 34.9,20.4 34.9,16.2 C34.9,8.9 28.9,2.9 21.6,2.9 C14.3,2.9 8.3,8.9 8.3,16.2 C8.3,21.6 11.6,26.5 16.6,28.5 L15.5,31.4 Z" id="Shape"></path>
        </g>
    </g>
</svg>