<?xml version="1.0" ?><svg viewBox="0 0 1000 1000" xmlns="http://www.w3.org/2000/svg"><rect fill="#fff" height="257.58" rx="37.14" width="485.44" x="253.92" y="299.51"/><path d="m689.08 555.06h-369.25c-5 0-10-.1-15 0h-.66c-2.61 0-2.61 4.06 0 4.06h369.29c5 0 10 .1 15 0h.65c2.62 0 2.62-4.06 0-4.06z"/><path d="m256 463.92v-110.07a70.17 70.17 0 0 1 .68-12.2 48.74 48.74 0 0 1 16.24-28.56c9.46-8.14 21.22-11.55 33.51-11.55h375.69a101.49 101.49 0 0 1 13.4.41 48.7 48.7 0 0 1 41.78 46.14c.27 8.1 0 16.25 0 24.35v93.88c0 2.62 4.06 2.62 4.06 0v-111.65a97.69 97.69 0 0 0 -.28-10.27 52.68 52.68 0 0 0 -13.72-30.23c-10.23-11-24.54-16.69-39.46-16.69h-376.37a122.62 122.62 0 0 0 -12.72.28c-22.73 2.43-42 19.89-46 42.49-1.66 9.2-.88 19.09-.88 28.38v95.29c0 2.62 4.06 2.62 4.06 0z"/><g fill="#18c4ff"><path d="m25 880.05c30.57-96 63.75-190.52 121.81-272.84 3-4.24 6.22-8.6 10.87-10.91 5.08-2.52 11-2.21 16.69-1.72 37.62 3.25 76.77 13 103.74 39.47 5.82 5.71 11.1 12.36 13.22 20.23 2.29 8.56.64 17.62-1 26.32-12.43 64.92-26 134.53-38.47 199.45"/><path d="m25.73 880.25c7-21.74 14.13-43.44 21.68-65s15.39-42.77 24-63.82 17.69-41.61 27.82-61.83a664.31 664.31 0 0 1 33.35-59.14q4.59-7.2 9.39-14.27c3.09-4.55 6.08-9.33 9.69-13.5a19.54 19.54 0 0 1 13.91-7.22c5.18-.37 10.47.35 15.62.91 20.36 2.21 40.81 6.41 59.67 14.58a127 127 0 0 1 26.05 15c8.15 6.14 16.42 13.59 21.06 22.83 5.51 11 2.79 23.18.59 34.65q-3.39 17.73-6.81 35.45-6.94 36-13.92 72t-13.83 71.77c-1.1 5.69-2.16 11.39-3.25 17.08-.28 1.46 2 2.09 2.25.62q7-36.36 14-72.69 7.11-36.72 14.2-73.44 3.49-18.12 7-36.24 1.72-8.94 3.43-17.86c1.12-5.93 2.21-12 2-18a34.71 34.71 0 0 0 -4.27-15.75 56 56 0 0 0 -9.74-12.47 113.86 113.86 0 0 0 -24.27-18.31c-17.94-10.2-38.1-16-58.37-19.34-5.09-.84-10.2-1.52-15.32-2.08-5.29-.58-10.74-1.34-16.07-1a21.21 21.21 0 0 0 -13.8 6c-3.79 3.82-6.74 8.53-9.79 12.92a619.78 619.78 0 0 0 -35.77 59.08c-10.84 20.32-20.65 41.18-29.69 62.36s-17.26 42.53-25 64.13c-7.84 21.87-15.1 44-22.18 66.07q-2.58 8.06-5.11 16.11c-.3.93 1.17 1.33 1.46.4z"/><path d="m975 880.05c-30.57-96-63.75-190.52-121.81-272.84-3-4.24-6.22-8.6-10.87-10.91-5.08-2.52-11.05-2.21-16.69-1.72-37.62 3.25-76.77 13-103.74 39.47-5.82 5.71-11.1 12.36-13.22 20.23-2.29 8.56-.64 17.62 1 26.32 12.43 64.92 26 134.53 38.47 199.45"/><path d="m975.73 879.85c-7-22.18-14.14-44.32-21.72-66.31-7.52-21.79-15.53-43.43-24.23-64.78s-18-42.24-28.36-62.76a649.23 649.23 0 0 0 -34.12-59.89q-4.71-7.29-9.62-14.44c-3-4.36-5.92-9.06-9.78-12.74a21.29 21.29 0 0 0 -13.9-5.77c-5.33-.3-10.76.45-16 1-20.59 2.31-41 6.59-60 14.84a126.46 126.46 0 0 0 -26.41 15.24c-8.11 6.15-16.27 13.47-21.13 22.56a35.1 35.1 0 0 0 -4.06 16.13c-.08 6 1 11.91 2.14 17.76q3.43 18 6.9 35.92 7.07 36.63 14.16 73.27t14.09 73.12c1.11 5.78 2.25 11.55 3.35 17.33.29 1.47 2.53.85 2.25-.62q-6.84-35.68-13.72-71.35l-14-72.37q-3.45-17.88-6.89-35.75l-3.33-17.37c-1.14-5.92-2.4-11.86-2.59-17.9a33.37 33.37 0 0 1 3.49-16.64 52.8 52.8 0 0 1 9.64-12.65 111.11 111.11 0 0 1 24.11-18.21c17.72-10.05 37.61-15.73 57.61-19 5.19-.86 10.39-1.55 15.62-2.11s10.46-1.28 15.65-.83c5.69.5 10.08 3.23 13.72 7.54a159.77 159.77 0 0 1 9.68 13.57 628 628 0 0 1 34.96 58.36c10.57 20 20.19 40.46 29.07 61.26s17.05 42 24.73 63.4 15 43.08 22.1 64.78q2.58 7.91 5.13 15.83c.29.93 1.76.54 1.46-.4z"/></g><path d="m174.2 591.28a358.83 358.83 0 0 1 18.37-63c3.75-9.46 7.85-19.05 14.82-26.64 6.31-6.87 14.39-11.74 22.76-15.68 9-4.26 18.49-7.79 27.89-11.16 10.22-3.67 20.73-6.88 31.52-8.32a85.4 85.4 0 0 1 16.22-.64c4.08.24 8.33.77 12 2.62 3.41 1.7 6.17 4.65 6.26 8.65.11 4.54-2.88 8.61-5.85 11.76a98.23 98.23 0 0 1 -11.48 9.77q-6.37 5-13 9.62-13.1 9.25-27 17.3c-2.26 1.31-4.54 2.6-6.83 3.85a1.69 1.69 0 0 0 .85 3.12c13.25.07 23.6 11.39 29.52 22.19s8.91 24.13 7 36.54c-1 6.81-3.41 13.82-7.56 19.4-.86 1.16 1.08 2.28 1.94 1.13a45.36 45.36 0 0 0 5.24-8.48 48.41 48.41 0 0 0 3.06-9.22 55.8 55.8 0 0 0 .49-20c-1.95-13.39-8.6-26.81-18.71-35.91-5.81-5.23-13-9-21-9l.84 3.12q14.64-8.09 28.52-17.44a310.28 310.28 0 0 0 26.69-19.86c6.62-5.63 14.6-15.39 8.83-24.31-5-7.77-16.16-8.48-24.46-8.46-11.22 0-22.33 2.34-33 5.61-10.48 3.2-20.75 7.19-30.87 11.38-9 3.73-17.87 8-25.53 14.12-8.1 6.46-13.59 14.92-17.71 24.34a290.94 290.94 0 0 0 -11.46 31.84q-4.95 16.29-8.29 33c-.56 2.78-1.05 5.58-1.52 8.38-.16 1 1.28 1.38 1.47.41z"/><path d="m736.58 531.78a40 40 0 0 1 -37.18 25.31h-405.94a63.58 63.58 0 0 1 4.85 14.48h401.09a40 40 0 0 0 35.8-22.2 69.59 69.59 0 0 1 1.38-17.59z"/><path d="m734.62 531.24a38.28 38.28 0 0 1 -34.56 23.81c-1.21 0-2.42 0-3.63 0h-384.56c-5.76 0-11.52 0-17.28 0h-1.13a2.05 2.05 0 0 0 -1.75 3.05 64.44 64.44 0 0 1 4.64 14 2 2 0 0 0 2 1.49h401a42.39 42.39 0 0 0 33.45-16.59 39.93 39.93 0 0 0 3-4.41 15.69 15.69 0 0 0 1.19-2.21 8 8 0 0 0 .21-3.13 69.33 69.33 0 0 1 1.38-14.94c.52-2.56-3.4-3.65-3.92-1.08a75.27 75.27 0 0 0 -1.57 14.77 13.57 13.57 0 0 1 .07 2.91 9.63 9.63 0 0 1 -1.22 2.19 37.8 37.8 0 0 1 -3.5 4.92 38.24 38.24 0 0 1 -18.59 12.06 44.08 44.08 0 0 1 -12.3 1.46h-380.88c-5.82 0-11.81-.41-17.62 0-.25 0-.5 0-.74 0l2 1.49a69 69 0 0 0 -5.06-15l-1.75 3.06c4.12.11 8.25 0 12.37 0h393.13a42 42 0 0 0 39.5-26.8c1.02-2.4-2.91-3.45-3.88-1.05z"/><path d="m300.42 643.06a390 390 0 0 0 61.28-56q3.82-4.35 7.54-8.8 1.86-2.22 3.68-4.47a20.92 20.92 0 0 0 3.49-5 1.39 1.39 0 0 0 -2-1.55 18.73 18.73 0 0 0 -3.54 3.84c-1.12 1.39-2.25 2.78-3.38 4.15q-3.27 4-6.63 7.83-6.7 7.76-13.77 15.2-14.26 15-29.87 28.73c-5.8 5.08-11.69 10.07-17.73 14.87-.69.55.23 1.76.95 1.23z"/><path d="m822.82 577.4c-1.94-18.4-4.06-37.17-10.84-54.52a82.79 82.79 0 0 0 -13.57-23.36 77.59 77.59 0 0 0 -21.69-17.58c-18.18-10.08-39-13.62-59.49-14.94-5.6-.36-11.22-.56-16.83-.72-4.42-.12-9.08-.24-13.25 1.47a12.6 12.6 0 0 0 -7.66 8.85 17.56 17.56 0 0 0 1.74 12c2.12 4 5.68 7.1 9.4 9.57a102.37 102.37 0 0 0 13.3 7.14 172.59 172.59 0 0 0 29.9 10.77c2.52.65 5.06 1.24 7.6 1.8l-.88-2.15c-8.78 17.65-9.23 39.06-1.86 57.28a66.74 66.74 0 0 0 8.1 14.56c1.19 1.62 4 .05 2.74-1.61a68.53 68.53 0 0 1 -11.46-53.71 66.46 66.46 0 0 1 5-15 1.49 1.49 0 0 0 -.88-2.15 162.79 162.79 0 0 1 -29-8.78c-4.79-1.93-9.47-4.1-14.06-6.47-4-2.06-8-4.25-11.26-7.3a17.5 17.5 0 0 1 -5.87-10.55c-.48-3.76.52-7.81 3.63-10.2 3.42-2.64 8.12-2.8 12.25-2.76 5.16.05 10.33.27 15.48.54 19.83 1 40 3.75 58 12.6a80.8 80.8 0 0 1 21.87 15.33 75.78 75.78 0 0 1 14.82 21.68c7.5 16.16 10.28 34.11 12.44 51.64.27 2.2.53 4.39.79 6.59.11.93 1.58 1 1.48 0z"/><path d="m711.23 634.56a113.07 113.07 0 0 1 -46.8-46.08q-2.19-4-4-8.24c-1.26-2.88-2.09-6.07-3.59-8.83-.8-1.45-2.72-.38-2.5 1.05.45 2.82 1.89 5.65 3 8.26s2.33 5.09 3.64 7.57a107.53 107.53 0 0 0 9 14.19 112.51 112.51 0 0 0 24.08 23.65 102 102 0 0 0 16.45 9.67c.83.39 1.56-.81.73-1.24z"/><g fill="#18c4ff"><rect height="16.91" rx="4.66" width="16.91" x="312.9" y="437.36"/><path d="m325.15 452.25h-7a3.77 3.77 0 0 1 -1.64-.2c.25.1-.16-.08-.22-.11s-.31-.18-.46-.29c.09.06.18.16-.09-.1-.1-.1-.21-.2-.3-.31.18.21-.1-.15-.13-.2a4.45 4.45 0 0 1 -.26-.48c.11.26-.17-.77-.13-.48a11 11 0 0 1 0-1.52v-5.65c0-.24 0-.49 0-.73v-.18a1.85 1.85 0 0 1 0-.24c0-.57-.08.19.06-.35a2.62 2.62 0 0 1 1.86-1.94 6.82 6.82 0 0 1 1.54-.1h2.71c1.45 0 3-.12 4.4 0 .39 0-.39-.12.24 0a3.06 3.06 0 0 1 .43.13l.12.05a3.58 3.58 0 0 1 .46.29 3.12 3.12 0 0 1 .48.47c-.05-.07-.16-.26.08.11a3.46 3.46 0 0 1 .31.57c-.08-.19.15.61.14.52s0 .43 0 .44v6.63a5.13 5.13 0 0 1 -.19 2c0-.09.14-.27-.06.11a4 4 0 0 1 -.35.56c.15-.19-.55.5-.34.34-.11.09-.24.16-.36.24s-.58.27-.31.16a2.23 2.23 0 0 1 -1 .2c-2.6.06-2.61 4.12 0 4.06a6.8 6.8 0 0 0 6.69-6.73c0-1.85 0-3.7 0-5.54 0-2.41 0-4.69-1.81-6.59a6.82 6.82 0 0 0 -4.88-2.12h-1.72c-1.92 0-3.84 0-5.76 0a6.77 6.77 0 0 0 -6.78 6.22c-.14 1.69 0 3.42 0 5.1 0 2.15-.23 4.4.91 6.34a6.76 6.76 0 0 0 5.2 3.28 22.07 22.07 0 0 0 2.3 0h5.87c2.61.1 2.61-3.96-.01-3.96z"/><rect height="16.91" rx="4.66" width="16.91" x="342.11" y="437.36"/><path d="m354.37 452.25h-7a3.81 3.81 0 0 1 -1.64-.2c.25.1-.16-.08-.21-.11a3.58 3.58 0 0 1 -.46-.29c.08.06.17.16-.09-.1-.1-.1-.21-.2-.3-.31.17.21-.1-.15-.13-.2a3.2 3.2 0 0 1 -.26-.48c.11.26-.18-.77-.14-.48a11 11 0 0 1 0-1.52v-6.56c0-.08 0-.1 0-.24 0-.57-.08.19.06-.35a2.6 2.6 0 0 1 1.86-1.94 6.72 6.72 0 0 1 1.53-.1h2.72c1.45 0 2.95-.12 4.4 0 .38 0-.4-.12.24 0a3.52 3.52 0 0 1 .43.13c-.23-.09.09 0 .11.05a4.57 4.57 0 0 1 .47.29 4.47 4.47 0 0 1 .48.47c-.06-.07-.17-.26.07.11a2.88 2.88 0 0 1 .32.57c-.08-.19.15.61.14.52s0 .43 0 .44v6.63a4.93 4.93 0 0 1 -.2 2c0-.09.14-.27-.06.11a3.22 3.22 0 0 1 -.34.56c.15-.19-.55.5-.34.34a3.37 3.37 0 0 1 -.37.24s-.58.27-.3.16a2.25 2.25 0 0 1 -1 .2c-2.61.06-2.62 4.12 0 4.06a6.81 6.81 0 0 0 6.69-6.73c0-1.85 0-3.7 0-5.54 0-2.41-.05-4.69-1.81-6.59a6.83 6.83 0 0 0 -4.88-2.12h-1.73c-1.92 0-3.84 0-5.76 0a6.78 6.78 0 0 0 -6.78 6.22c-.13 1.69 0 3.42 0 5.1 0 2.15-.22 4.4.91 6.34a6.77 6.77 0 0 0 5.2 3.28 22.07 22.07 0 0 0 2.3 0h5.88c2.62.1 2.62-3.96-.01-3.96z"/><rect height="16.91" rx="4.66" width="16.91" x="371.33" y="437.36"/><path d="m383.58 452.25h-7a3.77 3.77 0 0 1 -1.64-.2c.25.1-.16-.08-.22-.11s-.31-.18-.46-.29c.09.06.18.16-.09-.1-.1-.1-.21-.2-.3-.31.17.21-.1-.15-.13-.2a4.45 4.45 0 0 1 -.26-.48c.11.26-.17-.77-.13-.48a11 11 0 0 1 0-1.52v-5.65c0-.24 0-.49 0-.73a.85.85 0 0 1 0-.16 1.85 1.85 0 0 1 0-.24c0-.57-.08.19.06-.35a2.62 2.62 0 0 1 1.86-1.94 6.82 6.82 0 0 1 1.54-.1h2.71c1.45 0 3-.12 4.4 0 .39 0-.39-.12.24 0a3.06 3.06 0 0 1 .43.13l.12.05a3.58 3.58 0 0 1 .46.29 3.12 3.12 0 0 1 .48.47c-.05-.07-.16-.26.08.11a3.46 3.46 0 0 1 .31.57c-.08-.19.15.61.14.52s0 .43 0 .44v6.63a5.13 5.13 0 0 1 -.19 2c0-.09.14-.27-.06.11a4 4 0 0 1 -.35.56c.15-.19-.55.5-.34.34-.11.09-.24.16-.36.24s-.58.27-.31.16a2.23 2.23 0 0 1 -1 .2c-2.6.06-2.61 4.12 0 4.06a6.8 6.8 0 0 0 6.69-6.73c0-1.85 0-3.7 0-5.54 0-2.41 0-4.69-1.81-6.59a6.82 6.82 0 0 0 -4.88-2.12h-1.72c-1.92 0-3.84 0-5.76 0a6.77 6.77 0 0 0 -6.78 6.22c-.14 1.69 0 3.42 0 5.1 0 2.15-.22 4.4.92 6.34a6.74 6.74 0 0 0 5.2 3.28 22.07 22.07 0 0 0 2.3 0h5.87c2.6.08 2.6-3.98-.02-3.98z"/><rect height="16.91" rx="4.66" width="16.91" x="400.54" y="437.36"/><path d="m412.8 452.25h-7a3.79 3.79 0 0 1 -1.64-.2c.25.1-.16-.08-.21-.11a3.58 3.58 0 0 1 -.46-.29c.08.06.17.16-.09-.1-.1-.1-.21-.2-.3-.31.17.21-.1-.15-.13-.2a3.2 3.2 0 0 1 -.26-.48c.1.26-.18-.77-.14-.48a11 11 0 0 1 0-1.52v-6.56c0-.08 0-.1 0-.24 0-.57-.08.19.06-.35a2.6 2.6 0 0 1 1.86-1.94 6.72 6.72 0 0 1 1.53-.1h2.72c1.45 0 2.95-.12 4.4 0 .38 0-.4-.12.24 0a3.52 3.52 0 0 1 .43.13c-.23-.09.09 0 .11.05a4.57 4.57 0 0 1 .47.29 4.47 4.47 0 0 1 .48.47c-.06-.07-.17-.26.07.11a2.88 2.88 0 0 1 .32.57c-.08-.19.15.61.14.52s0 .43 0 .44v.56 6.07a4.94 4.94 0 0 1 -.19 2c0-.09.14-.27-.06.11a3.22 3.22 0 0 1 -.34.56c.15-.19-.55.5-.34.34a3.37 3.37 0 0 1 -.37.24s-.58.27-.3.16a2.25 2.25 0 0 1 -1 .2c-2.61.06-2.62 4.12 0 4.06a6.81 6.81 0 0 0 6.69-6.73c0-1.85 0-3.7 0-5.54 0-2.41-.05-4.69-1.81-6.59a6.83 6.83 0 0 0 -4.88-2.12h-1.73c-1.92 0-3.84 0-5.76 0a6.78 6.78 0 0 0 -6.78 6.22c-.13 1.69 0 3.42 0 5.1 0 2.15-.22 4.4.91 6.34a6.77 6.77 0 0 0 5.2 3.28 22.07 22.07 0 0 0 2.3 0h5.88c2.59.1 2.6-3.96-.02-3.96z"/><rect height="16.91" rx="4.66" width="16.91" x="429.76" y="437.36"/><path d="m442 452.25h-7a3.77 3.77 0 0 1 -1.64-.2c.25.1-.16-.08-.22-.11a4.43 4.43 0 0 1 -.46-.29c.09.06.18.16-.09-.1-.1-.1-.21-.2-.3-.31.17.21-.1-.15-.13-.2a4.45 4.45 0 0 1 -.26-.48c.11.26-.17-.77-.13-.48a11 11 0 0 1 0-1.52v-5.65c0-.24 0-.49 0-.73a.85.85 0 0 1 0-.16 1.85 1.85 0 0 1 0-.24c0-.57-.08.19.06-.35a2.62 2.62 0 0 1 1.86-1.94 6.82 6.82 0 0 1 1.54-.1h2.77c1.45 0 3-.12 4.4 0 .38 0-.39-.12.24 0a3.06 3.06 0 0 1 .43.13l.12.05a3.58 3.58 0 0 1 .46.29 3.12 3.12 0 0 1 .48.47c0-.07-.16-.26.08.11a3.46 3.46 0 0 1 .31.57c-.08-.19.15.61.14.52s0 .43 0 .44v6.63a5.13 5.13 0 0 1 -.19 2c0-.09.14-.27-.06.11a4 4 0 0 1 -.35.56c.15-.19-.55.5-.34.34-.11.09-.24.16-.36.24s-.58.27-.31.16a2.23 2.23 0 0 1 -1 .2c-2.6.06-2.61 4.12 0 4.06a6.8 6.8 0 0 0 6.69-6.73c0-1.85 0-3.7 0-5.54 0-2.41 0-4.69-1.81-6.59a6.82 6.82 0 0 0 -4.88-2.12h-1.72c-1.92 0-3.84 0-5.76 0a6.77 6.77 0 0 0 -6.78 6.22c-.14 1.69 0 3.42 0 5.1 0 2.15-.22 4.4.92 6.34a6.74 6.74 0 0 0 5.2 3.28 22.07 22.07 0 0 0 2.3 0h5.79c2.63.08 2.63-3.98 0-3.98z"/><rect height="16.91" rx="4.66" width="16.91" x="458.97" y="437.36"/><path d="m471.23 452.25h-7a3.77 3.77 0 0 1 -1.64-.2c.25.1-.16-.08-.21-.11a3.58 3.58 0 0 1 -.46-.29c.08.06.17.16-.09-.1a2.91 2.91 0 0 1 -.3-.31c.17.21-.1-.15-.13-.2a3.2 3.2 0 0 1 -.26-.48c.1.26-.18-.77-.14-.48a11 11 0 0 1 0-1.52v-6.56c0-.08 0-.1 0-.24 0-.57-.08.19.06-.35a2.6 2.6 0 0 1 1.86-1.94 6.72 6.72 0 0 1 1.53-.1h2.72c1.45 0 2.95-.12 4.4 0 .38 0-.4-.12.24 0a2.92 2.92 0 0 1 .42.13l.12.05a4.57 4.57 0 0 1 .47.29 4.47 4.47 0 0 1 .48.47c-.06-.07-.17-.26.07.11a2.88 2.88 0 0 1 .32.57c-.08-.19.15.61.13.52s0 .43 0 .44v.56 6.07a4.94 4.94 0 0 1 -.19 2c0-.09.14-.27-.06.11a3.22 3.22 0 0 1 -.34.56c.15-.19-.55.5-.34.34a3.37 3.37 0 0 1 -.37.24s-.58.27-.31.16a2.19 2.19 0 0 1 -1 .2c-2.61.06-2.62 4.12 0 4.06a6.81 6.81 0 0 0 6.69-6.73c0-1.85 0-3.7 0-5.54 0-2.41-.05-4.69-1.81-6.59a6.83 6.83 0 0 0 -4.88-2.12h-1.71c-1.92 0-3.84 0-5.76 0a6.78 6.78 0 0 0 -6.78 6.22c-.13 1.69 0 3.42 0 5.1 0 2.15-.22 4.4.91 6.34a6.77 6.77 0 0 0 5.2 3.28 22.07 22.07 0 0 0 2.3 0h5.88c2.59.1 2.6-3.96-.02-3.96z"/><rect height="16.91" rx="4.66" width="16.91" x="488.19" y="437.36"/><path d="m500.44 452.25h-7a3.77 3.77 0 0 1 -1.64-.2c.25.1-.16-.08-.22-.11a3.58 3.58 0 0 1 -.46-.29c.09.06.18.16-.09-.1-.1-.1-.21-.2-.3-.31.17.21-.1-.15-.13-.2a4.45 4.45 0 0 1 -.26-.48c.11.26-.17-.77-.13-.48a11 11 0 0 1 0-1.52v-5.65c0-.24 0-.49 0-.73a.85.85 0 0 1 0-.16 1.85 1.85 0 0 1 0-.24c0-.57-.08.19.06-.35a2.62 2.62 0 0 1 1.86-1.94 6.82 6.82 0 0 1 1.54-.1h2.71c1.45 0 2.95-.12 4.4 0 .38 0-.39-.12.24 0a3.06 3.06 0 0 1 .43.13l.12.05a3.58 3.58 0 0 1 .46.29 3.12 3.12 0 0 1 .48.47c0-.07-.16-.26.08.11a3.46 3.46 0 0 1 .31.57c-.08-.19.15.61.14.52s0 .43 0 .44v6.63a5.13 5.13 0 0 1 -.19 2c0-.09.14-.27-.06.11a4 4 0 0 1 -.35.56c.15-.19-.55.5-.34.34-.11.09-.24.16-.36.24s-.58.27-.31.16a2.23 2.23 0 0 1 -1 .2c-2.6.06-2.61 4.12 0 4.06a6.8 6.8 0 0 0 6.69-6.73c0-1.85 0-3.7 0-5.54 0-2.41 0-4.69-1.81-6.59a6.82 6.82 0 0 0 -4.88-2.12h-1.72c-1.92 0-3.84 0-5.76 0a6.77 6.77 0 0 0 -6.78 6.22c-.14 1.69 0 3.42 0 5.1 0 2.15-.22 4.4.92 6.34a6.74 6.74 0 0 0 5.2 3.28 22.07 22.07 0 0 0 2.3 0h5.87c2.6.08 2.6-3.98-.02-3.98z"/><rect height="16.91" rx="4.66" width="16.91" x="517.4" y="437.36"/><path d="m529.66 452.25h-7a3.77 3.77 0 0 1 -1.64-.2c.25.1-.16-.08-.21-.11a3.58 3.58 0 0 1 -.46-.29c.08.06.17.16-.09-.1a2.91 2.91 0 0 1 -.3-.31c.17.21-.1-.15-.13-.2a3.2 3.2 0 0 1 -.26-.48c.1.26-.18-.77-.14-.48a11 11 0 0 1 0-1.52v-6.56c0-.08 0-.1 0-.24 0-.57-.08.19.06-.35a2.6 2.6 0 0 1 1.86-1.94 6.72 6.72 0 0 1 1.53-.1h2.72c1.45 0 2.95-.12 4.4 0 .38 0-.4-.12.24 0a2.92 2.92 0 0 1 .42.13l.12.05a4.57 4.57 0 0 1 .47.29 4.47 4.47 0 0 1 .48.47c-.06-.07-.17-.26.07.11a2.88 2.88 0 0 1 .32.57c-.08-.19.15.61.13.52s0 .43 0 .44v.56 6.07a4.94 4.94 0 0 1 -.19 2c0-.09.14-.27-.06.11a3.22 3.22 0 0 1 -.34.56c.15-.19-.55.5-.34.34a3.37 3.37 0 0 1 -.37.24s-.58.27-.31.16a2.19 2.19 0 0 1 -1 .2c-2.61.06-2.62 4.12 0 4.06a6.81 6.81 0 0 0 6.69-6.73c0-1.85 0-3.7 0-5.54 0-2.41-.05-4.69-1.81-6.59a6.83 6.83 0 0 0 -4.88-2.12h-1.73c-1.92 0-3.84 0-5.76 0a6.78 6.78 0 0 0 -6.78 6.22c-.13 1.69 0 3.42 0 5.1 0 2.15-.22 4.4.91 6.34a6.77 6.77 0 0 0 5.2 3.28 22.07 22.07 0 0 0 2.3 0h5.88c2.61.1 2.62-3.96 0-3.96z"/><rect height="16.91" rx="4.66" width="16.91" x="546.61" y="437.36"/><path d="m558.87 452.25h-7a3.77 3.77 0 0 1 -1.64-.2c.25.1-.16-.08-.22-.11a3.58 3.58 0 0 1 -.46-.29c.08.06.18.16-.09-.1-.1-.1-.21-.2-.3-.31.17.21-.1-.15-.13-.2a4.45 4.45 0 0 1 -.26-.48c.11.26-.17-.77-.13-.48a11 11 0 0 1 0-1.52v-5.65c0-.24 0-.49 0-.73a.85.85 0 0 1 0-.16 1.85 1.85 0 0 1 0-.24c0-.57-.08.19.06-.35a2.62 2.62 0 0 1 1.86-1.94 6.77 6.77 0 0 1 1.53-.1h2.72c1.45 0 2.95-.12 4.4 0 .38 0-.39-.12.24 0a3.06 3.06 0 0 1 .43.13l.12.05a3.58 3.58 0 0 1 .46.29 3.12 3.12 0 0 1 .48.47c-.05-.07-.16-.26.08.11a3.46 3.46 0 0 1 .31.57c-.08-.19.15.61.14.52s0 .43 0 .44v6.63a5.13 5.13 0 0 1 -.19 2c0-.09.14-.27-.06.11a4 4 0 0 1 -.35.56c.15-.19-.55.5-.34.34-.11.09-.24.16-.36.24s-.58.27-.31.16a2.23 2.23 0 0 1 -1 .2c-2.61.06-2.61 4.12 0 4.06a6.8 6.8 0 0 0 6.69-6.73c0-1.85 0-3.7 0-5.54 0-2.41 0-4.69-1.81-6.59a6.82 6.82 0 0 0 -4.88-2.12h-1.72c-1.92 0-3.84 0-5.76 0a6.77 6.77 0 0 0 -6.78 6.22c-.14 1.69 0 3.42 0 5.1 0 2.15-.22 4.4.92 6.34a6.74 6.74 0 0 0 5.2 3.28 22.07 22.07 0 0 0 2.3 0h5.87c2.6.08 2.6-3.98-.02-3.98z"/><rect height="16.91" rx="4.66" width="16.91" x="575.83" y="437.36"/><path d="m588.09 452.25h-7a3.77 3.77 0 0 1 -1.64-.2c.25.1-.16-.08-.21-.11a3.58 3.58 0 0 1 -.46-.29c.08.06.17.16-.09-.1a2.91 2.91 0 0 1 -.3-.31c.17.21-.1-.15-.13-.2a3.2 3.2 0 0 1 -.26-.48c.1.26-.18-.77-.14-.48a11 11 0 0 1 0-1.52v-6.56c0-.08 0-.1 0-.24 0-.57-.08.19.06-.35a2.6 2.6 0 0 1 1.86-1.94 6.72 6.72 0 0 1 1.53-.1h2.69c1.45 0 3-.12 4.4 0 .38 0-.4-.12.24 0a2.92 2.92 0 0 1 .42.13l.12.05a4.57 4.57 0 0 1 .47.29 4.47 4.47 0 0 1 .48.47c-.06-.07-.17-.26.07.11a2.88 2.88 0 0 1 .32.57c-.08-.19.15.61.13.52s0 .43 0 .44v.56 6.07a4.94 4.94 0 0 1 -.19 2c0-.09.14-.27-.06.11a4 4 0 0 1 -.34.56c.15-.19-.55.5-.34.34a3.37 3.37 0 0 1 -.37.24s-.58.27-.31.16a2.19 2.19 0 0 1 -1 .2c-2.61.06-2.62 4.12 0 4.06a6.81 6.81 0 0 0 6.69-6.73c0-1.85 0-3.7 0-5.54 0-2.41 0-4.69-1.81-6.59a6.83 6.83 0 0 0 -4.88-2.12h-1.73c-1.92 0-3.84 0-5.76 0a6.78 6.78 0 0 0 -6.78 6.22c-.13 1.69 0 3.42 0 5.1 0 2.15-.22 4.4.91 6.34a6.77 6.77 0 0 0 5.2 3.28 22.07 22.07 0 0 0 2.3 0h5.88c2.64.1 2.65-3.96.03-3.96z"/><rect height="16.91" rx="4.66" width="16.91" x="605.04" y="437.36"/><path d="m617.3 452.25h-7a3.83 3.83 0 0 1 -1.65-.2c.26.1-.15-.08-.21-.11a3.58 3.58 0 0 1 -.46-.29c.08.06.18.16-.09-.1-.1-.1-.21-.2-.3-.31.17.21-.1-.15-.13-.2a4.45 4.45 0 0 1 -.26-.48c.11.26-.17-.77-.13-.48a11 11 0 0 1 0-1.52v-5.65c0-.24 0-.49 0-.73a.85.85 0 0 1 0-.16 1.85 1.85 0 0 1 0-.24c0-.57-.08.19.06-.35a2.62 2.62 0 0 1 1.86-1.94 6.77 6.77 0 0 1 1.53-.1h2.72c1.45 0 3-.12 4.4 0 .38 0-.39-.12.24 0a3.06 3.06 0 0 1 .43.13l.12.05a3.58 3.58 0 0 1 .46.29 3.12 3.12 0 0 1 .48.47c0-.07-.16-.26.08.11a3.46 3.46 0 0 1 .31.57c-.08-.19.15.61.14.52s0 .43 0 .44v6.63a5.13 5.13 0 0 1 -.19 2c0-.09.14-.27-.06.11a4 4 0 0 1 -.35.56c.15-.19-.55.5-.34.34-.11.09-.24.16-.36.24s-.58.27-.31.16a2.23 2.23 0 0 1 -1 .2c-2.61.06-2.62 4.12 0 4.06a6.8 6.8 0 0 0 6.69-6.73c0-1.85 0-3.7 0-5.54 0-2.41 0-4.69-1.81-6.59a6.82 6.82 0 0 0 -4.88-2.12h-1.72c-1.92 0-3.84 0-5.76 0a6.77 6.77 0 0 0 -6.78 6.22c-.14 1.69 0 3.42 0 5.1 0 2.15-.22 4.4.92 6.34a6.74 6.74 0 0 0 5.2 3.28 22.07 22.07 0 0 0 2.3 0h5.87c2.6.08 2.6-3.98-.02-3.98z"/><rect height="16.91" rx="4.66" width="16.91" x="634.26" y="437.36"/><path d="m646.52 452.25h-7a3.77 3.77 0 0 1 -1.64-.2c.25.1-.16-.08-.21-.11a3.58 3.58 0 0 1 -.46-.29c.08.06.17.16-.09-.1a2.91 2.91 0 0 1 -.3-.31c.17.21-.1-.15-.13-.2a3.2 3.2 0 0 1 -.26-.48c.1.26-.18-.77-.14-.48a11 11 0 0 1 0-1.52v-6.56c0-.08 0-.1 0-.24 0-.57-.08.19.06-.35a2.6 2.6 0 0 1 1.86-1.94 6.72 6.72 0 0 1 1.53-.1h2.72c1.45 0 2.95-.12 4.4 0 .38 0-.4-.12.24 0a2.92 2.92 0 0 1 .42.13l.12.05a4.57 4.57 0 0 1 .47.29 4.47 4.47 0 0 1 .48.47c-.06-.07-.17-.26.07.11a2.88 2.88 0 0 1 .32.57c-.08-.19.15.61.13.52s0 .43 0 .44v.56 6.07a4.94 4.94 0 0 1 -.19 2c0-.09.14-.27-.06.11a4 4 0 0 1 -.34.56c.15-.19-.55.5-.34.34a3.37 3.37 0 0 1 -.37.24s-.58.27-.31.16a2.19 2.19 0 0 1 -1 .2c-2.61.06-2.62 4.12 0 4.06a6.79 6.79 0 0 0 6.68-6.73c0-1.85 0-3.7 0-5.54 0-2.41 0-4.69-1.8-6.59a6.83 6.83 0 0 0 -4.88-2.12h-1.73c-1.92 0-3.84 0-5.76 0a6.78 6.78 0 0 0 -6.78 6.22c-.13 1.69 0 3.42 0 5.1 0 2.15-.22 4.4.91 6.34a6.77 6.77 0 0 0 5.2 3.28 22.07 22.07 0 0 0 2.3 0h5.88c2.61.1 2.62-3.96 0-3.96z"/><rect height="16.91" rx="4.66" width="16.91" x="663.47" y="437.36"/><path d="m675.73 452.25h-7a3.83 3.83 0 0 1 -1.65-.2c.26.1-.15-.08-.21-.11a3.58 3.58 0 0 1 -.46-.29c.08.06.18.16-.09-.1-.1-.1-.21-.2-.3-.31.17.21-.1-.15-.13-.2a4.45 4.45 0 0 1 -.26-.48c.11.26-.18-.77-.13-.48a11 11 0 0 1 0-1.52v-6.38a.85.85 0 0 0 0-.16c0-.08 0-.1 0-.24 0-.57-.08.19.06-.35a2.62 2.62 0 0 1 1.86-1.94 6.77 6.77 0 0 1 1.53-.1h2.72c1.45 0 3-.12 4.4 0 .38 0-.39-.12.24 0a3.06 3.06 0 0 1 .43.13l.12.05a3.58 3.58 0 0 1 .46.29 3.12 3.12 0 0 1 .48.47c0-.07-.16-.26.08.11a3.46 3.46 0 0 1 .31.57c-.08-.19.15.61.14.52s0 .43 0 .44v6.63a4.93 4.93 0 0 1 -.2 2c0-.09.15-.27 0 .11a4 4 0 0 1 -.35.56c.15-.19-.55.5-.34.34-.11.09-.24.16-.36.24s-.58.27-.31.16a2.23 2.23 0 0 1 -1 .2c-2.61.06-2.62 4.12 0 4.06a6.8 6.8 0 0 0 6.69-6.73c0-1.85 0-3.7 0-5.54 0-2.41 0-4.69-1.81-6.59a6.82 6.82 0 0 0 -4.88-2.12h-1.77c-1.92 0-3.84 0-5.76 0a6.77 6.77 0 0 0 -6.78 6.22c-.14 1.69 0 3.42 0 5.1 0 2.15-.22 4.4.92 6.34a6.74 6.74 0 0 0 5.2 3.28 22 22 0 0 0 2.3 0h5.87c2.6.08 2.6-3.98-.02-3.98z"/><rect height="16.91" rx="4.66" width="16.91" x="327.5" y="463.92"/><path d="m339.76 478.81h-7a3.83 3.83 0 0 1 -1.65-.2c.26.1-.16-.08-.21-.11a3.58 3.58 0 0 1 -.46-.29c.08.07.17.16-.09-.1a2.94 2.94 0 0 1 -.3-.31c.17.21-.1-.15-.13-.2a4.45 4.45 0 0 1 -.26-.48c.11.26-.18-.77-.13-.48a11 11 0 0 1 0-1.52v-6.54c0-.08 0-.09 0-.23 0-.58-.08.19.06-.36a2.62 2.62 0 0 1 1.86-1.94 6.77 6.77 0 0 1 1.55-.05h2.72c1.45 0 3-.11 4.4 0 .38 0-.39-.12.24 0l.43.13c-.23-.09.09.05.12.06a2.69 2.69 0 0 1 .46.28 3.12 3.12 0 0 1 .48.47c0-.06-.16-.25.07.11a3.59 3.59 0 0 1 .32.57c-.08-.19.15.61.14.52s0 .43 0 .44v6.64a4.9 4.9 0 0 1 -.2 2c0-.08.14-.27-.05.12a3.94 3.94 0 0 1 -.35.55c.15-.19-.55.51-.34.34a2.82 2.82 0 0 1 -.36.24s-.59.27-.31.16a2.1 2.1 0 0 1 -1 .2c-2.61.06-2.62 4.12 0 4.06a6.8 6.8 0 0 0 6.69-6.73c0-1.85 0-3.69 0-5.54 0-2.41 0-4.69-1.81-6.59a6.82 6.82 0 0 0 -4.88-2.12h-7.48a6.78 6.78 0 0 0 -6.78 6.23c-.14 1.68 0 3.41 0 5.09 0 2.16-.22 4.41.92 6.35a6.75 6.75 0 0 0 5.19 3.27 22.21 22.21 0 0 0 2.31 0h5.87c2.58.02 2.58-4.04-.04-4.04z"/><rect height="16.91" rx="4.66" width="16.91" x="356.72" y="463.92"/><path d="m369 478.81h-7a3.77 3.77 0 0 1 -1.64-.2c.25.1-.16-.08-.22-.11s-.31-.18-.46-.29c.09.07.18.16-.08-.1a2.2 2.2 0 0 1 -.3-.31c.17.21-.1-.15-.14-.2a4.45 4.45 0 0 1 -.26-.48c.11.26-.17-.77-.13-.48a11 11 0 0 1 0-1.52v-6.77c0-.58-.08.19.06-.36a2.62 2.62 0 0 1 1.87-1.94 6.72 6.72 0 0 1 1.53-.1h2.71c1.45 0 3-.11 4.4 0 .39 0-.39-.12.25 0l.42.13c-.23-.09.1.05.12.06a3.24 3.24 0 0 1 .47.28 4.47 4.47 0 0 1 .48.47c-.06-.06-.17-.25.07.11a4.59 4.59 0 0 1 .32.57c-.08-.19.15.61.13.52s0 .43 0 .44v.56 6.08a5.1 5.1 0 0 1 -.19 2c0-.08.14-.27-.06.12a3.87 3.87 0 0 1 -.34.55c.15-.19-.55.51-.34.34a2.92 2.92 0 0 1 -.37.24s-.58.27-.31.16a2.07 2.07 0 0 1 -1 .2c-2.61.06-2.62 4.12 0 4.06a6.79 6.79 0 0 0 6.68-6.73c0-1.85 0-3.69 0-5.54 0-2.41 0-4.69-1.81-6.59a6.79 6.79 0 0 0 -4.87-2.12h-7.49a6.79 6.79 0 0 0 -6.78 6.23c-.14 1.68 0 3.41 0 5.09 0 2.16-.23 4.41.91 6.35a6.79 6.79 0 0 0 5.2 3.27 22.07 22.07 0 0 0 2.3 0h5.87c2.59.07 2.59-3.99 0-3.99z"/><rect height="16.91" rx="4.66" width="16.91" x="385.93" y="463.92"/><path d="m398.19 478.81h-7a3.83 3.83 0 0 1 -1.65-.2c.26.1-.16-.08-.21-.11a3.58 3.58 0 0 1 -.46-.29c.08.07.17.16-.09-.1a2.94 2.94 0 0 1 -.3-.31c.17.21-.1-.15-.13-.2a4.45 4.45 0 0 1 -.26-.48c.11.26-.18-.77-.13-.48a9.65 9.65 0 0 1 0-1.52v-6.54c0-.08 0-.09 0-.23 0-.58-.08.19.06-.36a2.62 2.62 0 0 1 1.86-1.94 6.77 6.77 0 0 1 1.53-.1h2.72c1.45 0 2.95-.11 4.4 0 .38 0-.4-.12.24 0l.43.13c-.23-.09.09.05.12.06a2.69 2.69 0 0 1 .46.28 3.67 3.67 0 0 1 .48.47c0-.06-.16-.25.07.11a3.59 3.59 0 0 1 .32.57c-.08-.19.15.61.14.52s0 .43 0 .44v6.64a4.9 4.9 0 0 1 -.2 2c0-.08.14-.27-.06.12a3.14 3.14 0 0 1 -.34.55c.15-.19-.55.51-.34.34a2.82 2.82 0 0 1 -.36.24s-.59.27-.31.16a2.1 2.1 0 0 1 -1 .2c-2.61.06-2.62 4.12 0 4.06a6.8 6.8 0 0 0 6.69-6.73c0-1.85 0-3.69 0-5.54 0-2.41 0-4.69-1.81-6.59a6.82 6.82 0 0 0 -4.88-2.12h-7.48a6.78 6.78 0 0 0 -6.78 6.23c-.14 1.68 0 3.41 0 5.09 0 2.16-.22 4.41.92 6.35a6.75 6.75 0 0 0 5.19 3.27 22.21 22.21 0 0 0 2.31 0h5.87c2.6.07 2.6-3.99-.02-3.99z"/><rect height="16.91" rx="4.66" width="16.91" x="415.15" y="463.92"/><path d="m427.41 478.81h-7a3.77 3.77 0 0 1 -1.64-.2c.25.1-.16-.08-.22-.11s-.31-.18-.46-.29c.09.07.18.16-.09-.1a2.87 2.87 0 0 1 -.29-.31c.17.21-.1-.15-.14-.2a4.45 4.45 0 0 1 -.26-.48c.11.26-.17-.77-.13-.48a11 11 0 0 1 0-1.52v-6.77c0-.58-.08.19.06-.36a2.62 2.62 0 0 1 1.87-1.94 6.72 6.72 0 0 1 1.53-.1h2.71c1.45 0 3-.11 4.4 0 .39 0-.39-.12.25 0l.42.13c-.23-.09.1.05.12.06a3.24 3.24 0 0 1 .47.28 3.85 3.85 0 0 1 .47.47c-.05-.06-.16-.25.08.11a4.59 4.59 0 0 1 .32.57c-.08-.19.15.61.13.52s0 .43 0 .44v.56 6.08a5.1 5.1 0 0 1 -.19 2c0-.08.14-.27-.06.12a3.87 3.87 0 0 1 -.34.55c.15-.19-.55.51-.34.34a2.92 2.92 0 0 1 -.37.24s-.58.27-.31.16a2.07 2.07 0 0 1 -1 .2c-2.61.06-2.62 4.12 0 4.06a6.79 6.79 0 0 0 6.68-6.73c0-1.85 0-3.69 0-5.54 0-2.41 0-4.69-1.81-6.59a6.79 6.79 0 0 0 -4.87-2.12h-7.49a6.79 6.79 0 0 0 -6.78 6.23c-.14 1.68 0 3.41 0 5.09 0 2.16-.23 4.41.91 6.35a6.79 6.79 0 0 0 5.2 3.27 22.07 22.07 0 0 0 2.3 0h5.88c2.58.07 2.58-3.99-.01-3.99z"/><rect height="16.91" rx="4.66" width="16.91" x="444.36" y="463.92"/><path d="m456.62 478.81h-7a3.83 3.83 0 0 1 -1.65-.2c.26.1-.16-.08-.21-.11a3.58 3.58 0 0 1 -.46-.29c.08.07.17.16-.09-.1a2.94 2.94 0 0 1 -.3-.31c.17.21-.1-.15-.13-.2a4.45 4.45 0 0 1 -.26-.48c.11.26-.18-.77-.13-.48a9.65 9.65 0 0 1 0-1.52v-6.54a2.3 2.3 0 0 1 0-.23c0-.58-.08.19.06-.36a2.62 2.62 0 0 1 1.86-1.94 6.77 6.77 0 0 1 1.53-.1h2.72c1.45 0 2.95-.11 4.4 0 .38 0-.4-.12.24 0l.43.13c-.23-.09.09.05.12.06a2.69 2.69 0 0 1 .46.28 3.67 3.67 0 0 1 .48.47c-.05-.06-.17-.25.07.11a3.59 3.59 0 0 1 .32.57c-.08-.19.15.61.14.52s0 .43 0 .44v6.64a4.9 4.9 0 0 1 -.2 2c0-.08.14-.27-.06.12a3.14 3.14 0 0 1 -.34.55c.15-.19-.55.51-.34.34a2.82 2.82 0 0 1 -.36.24s-.59.27-.31.16a2.1 2.1 0 0 1 -1 .2c-2.61.06-2.62 4.12 0 4.06a6.8 6.8 0 0 0 6.69-6.73c0-1.85 0-3.69 0-5.54 0-2.41 0-4.69-1.81-6.59a6.82 6.82 0 0 0 -4.88-2.12h-7.48a6.79 6.79 0 0 0 -6.79 6.23c-.13 1.68 0 3.41 0 5.09 0 2.16-.22 4.41.92 6.35a6.75 6.75 0 0 0 5.19 3.27 22.21 22.21 0 0 0 2.31 0h5.87c2.6.07 2.61-3.99-.01-3.99z"/><rect height="16.91" rx="4.66" width="16.91" x="473.58" y="463.92"/><path d="m485.84 478.81h-7a3.77 3.77 0 0 1 -1.64-.2c.25.1-.16-.08-.22-.11s-.31-.18-.46-.29c.09.07.18.16-.09-.1a2.87 2.87 0 0 1 -.29-.31c.17.21-.1-.15-.14-.2a4.45 4.45 0 0 1 -.26-.48c.11.26-.17-.77-.13-.48a11 11 0 0 1 0-1.52v-6.77c0-.58-.08.19.06-.36a2.62 2.62 0 0 1 1.87-1.94 6.72 6.72 0 0 1 1.53-.1h2.71c1.45 0 3-.11 4.4 0 .39 0-.39-.12.25 0l.42.13c-.23-.09.1.05.12.06a3.24 3.24 0 0 1 .47.28 3.85 3.85 0 0 1 .47.47c-.05-.06-.16-.25.08.11a4.59 4.59 0 0 1 .32.57c-.08-.19.15.61.13.52s0 .43 0 .44v.56 6.08a5.1 5.1 0 0 1 -.19 2c0-.08.14-.27-.06.12a3.87 3.87 0 0 1 -.34.55c.15-.19-.55.51-.34.34a3.87 3.87 0 0 1 -.37.24s-.58.27-.31.16a2.07 2.07 0 0 1 -1 .2c-2.61.06-2.62 4.12 0 4.06a6.79 6.79 0 0 0 6.68-6.73c0-1.85 0-3.69 0-5.54 0-2.41 0-4.69-1.81-6.59a6.79 6.79 0 0 0 -4.87-2.12h-7.49a6.79 6.79 0 0 0 -6.78 6.23c-.14 1.68 0 3.41 0 5.09 0 2.16-.23 4.41.91 6.35a6.77 6.77 0 0 0 5.2 3.27 22.07 22.07 0 0 0 2.3 0h5.88c2.6.07 2.6-3.99-.01-3.99z"/><rect height="16.91" rx="4.66" width="16.91" x="502.79" y="463.92"/><path d="m515.05 478.81h-7a3.83 3.83 0 0 1 -1.65-.2c.26.1-.16-.08-.21-.11a3.58 3.58 0 0 1 -.46-.29c.08.07.17.16-.09-.1a2.94 2.94 0 0 1 -.3-.31c.17.21-.1-.15-.13-.2a4.45 4.45 0 0 1 -.26-.48c.11.26-.18-.77-.13-.48a9.65 9.65 0 0 1 0-1.52v-6.54a2.3 2.3 0 0 1 0-.23c0-.58-.08.19.06-.36a2.62 2.62 0 0 1 1.86-1.94 6.77 6.77 0 0 1 1.53-.1h2.73c1.45 0 3-.11 4.4 0 .38 0-.4-.12.24 0l.43.13c-.23-.09.09.05.12.06a3.14 3.14 0 0 1 .46.28 3.67 3.67 0 0 1 .48.47c-.06-.06-.17-.25.07.11a3.59 3.59 0 0 1 .32.57c-.08-.19.15.61.14.52s0 .43 0 .44v6.64a4.9 4.9 0 0 1 -.2 2c0-.08.14-.27-.06.12a3.14 3.14 0 0 1 -.34.55c.15-.19-.55.51-.34.34a2.82 2.82 0 0 1 -.36.24s-.59.27-.31.16a2.12 2.12 0 0 1 -1 .2c-2.61.06-2.62 4.12 0 4.06a6.8 6.8 0 0 0 6.69-6.73c0-1.85 0-3.69 0-5.54 0-2.41 0-4.69-1.81-6.59a6.82 6.82 0 0 0 -4.88-2.12h-7.48a6.79 6.79 0 0 0 -6.79 6.23c-.13 1.68 0 3.41 0 5.09 0 2.16-.22 4.41.91 6.35a6.79 6.79 0 0 0 5.2 3.27 22.21 22.21 0 0 0 2.31 0h5.87c2.59.07 2.6-3.99-.02-3.99z"/><rect height="16.91" rx="4.66" width="16.91" x="532.01" y="463.92"/><path d="m544.27 478.81h-7a3.77 3.77 0 0 1 -1.64-.2c.25.1-.16-.08-.22-.11s-.31-.18-.46-.29c.09.07.18.16-.09-.1a2.87 2.87 0 0 1 -.29-.31c.17.21-.1-.15-.14-.2a4.45 4.45 0 0 1 -.26-.48c.11.26-.17-.77-.13-.48a11 11 0 0 1 0-1.52v-6.77c0-.58-.08.19.06-.36a2.62 2.62 0 0 1 1.87-1.94 6.72 6.72 0 0 1 1.53-.1h2.71c1.45 0 3-.11 4.4 0 .39 0-.39-.12.25 0l.42.13c-.23-.09.1.05.12.06a3.24 3.24 0 0 1 .47.28 3.85 3.85 0 0 1 .47.47c-.05-.06-.16-.25.08.11a4.59 4.59 0 0 1 .32.57c-.08-.19.15.61.13.52s0 .43 0 .44v.56 6.08a5.1 5.1 0 0 1 -.19 2c0-.08.14-.27-.06.12a3.87 3.87 0 0 1 -.34.55c.15-.19-.56.51-.34.34a3.87 3.87 0 0 1 -.37.24s-.58.27-.31.16a2.07 2.07 0 0 1 -1 .2c-2.61.06-2.62 4.12 0 4.06a6.79 6.79 0 0 0 6.68-6.73c0-1.85 0-3.69 0-5.54 0-2.41 0-4.69-1.81-6.59a6.79 6.79 0 0 0 -4.87-2.12h-7.49a6.79 6.79 0 0 0 -6.78 6.23c-.14 1.68 0 3.41 0 5.09 0 2.16-.23 4.41.91 6.35a6.77 6.77 0 0 0 5.2 3.27 22.07 22.07 0 0 0 2.3 0h5.88c2.6.07 2.6-3.99-.01-3.99z"/><rect height="16.91" rx="4.66" width="16.91" x="561.22" y="463.92"/><path d="m573.48 478.81h-7a3.81 3.81 0 0 1 -1.64-.2c.25.1-.16-.08-.21-.11a3.58 3.58 0 0 1 -.46-.29c.08.07.17.16-.09-.1a2.94 2.94 0 0 1 -.3-.31c.17.21-.1-.15-.13-.2a4.45 4.45 0 0 1 -.26-.48c.11.26-.18-.77-.13-.48a9.65 9.65 0 0 1 0-1.52v-6.54a2.3 2.3 0 0 1 0-.23c0-.58-.08.19.06-.36a2.62 2.62 0 0 1 1.86-1.94 6.72 6.72 0 0 1 1.53-.1h2.72c1.45 0 3-.11 4.4 0 .38 0-.4-.12.24 0l.43.13c-.23-.09.09.05.12.06a3.14 3.14 0 0 1 .46.28 3.67 3.67 0 0 1 .48.47c-.06-.06-.17-.25.07.11a3.59 3.59 0 0 1 .32.57c-.08-.19.15.61.14.52s0 .43 0 .44v6.64a4.9 4.9 0 0 1 -.2 2c0-.08.14-.27-.06.12a3.14 3.14 0 0 1 -.34.55c.15-.19-.55.51-.34.34a2.82 2.82 0 0 1 -.36.24s-.59.27-.31.16a2.12 2.12 0 0 1 -1 .2c-2.61.06-2.62 4.12 0 4.06a6.8 6.8 0 0 0 6.69-6.73c0-1.85 0-3.69 0-5.54 0-2.41 0-4.69-1.81-6.59a6.82 6.82 0 0 0 -4.88-2.12h-7.48a6.79 6.79 0 0 0 -6.79 6.23c-.13 1.68 0 3.41 0 5.09 0 2.16-.22 4.41.91 6.35a6.79 6.79 0 0 0 5.2 3.27 22.21 22.21 0 0 0 2.31 0h5.87c2.59.07 2.6-3.99-.02-3.99z"/><rect height="16.91" rx="4.66" width="16.91" x="590.44" y="463.92"/><path d="m602.7 478.81h-7a3.77 3.77 0 0 1 -1.64-.2c.25.1-.16-.08-.22-.11s-.31-.18-.46-.29c.09.07.18.16-.09-.1-.1-.09-.2-.2-.3-.31.18.21-.09-.15-.13-.2a4.45 4.45 0 0 1 -.26-.48c.11.26-.17-.77-.13-.48a11 11 0 0 1 0-1.52v-6.77c0-.58-.08.19.06-.36a2.62 2.62 0 0 1 1.87-1.94 6.72 6.72 0 0 1 1.53-.1h2.71c1.45 0 3-.11 4.4 0 .39 0-.39-.12.25 0l.42.13c-.23-.09.1.05.12.06a3.24 3.24 0 0 1 .47.28 3.85 3.85 0 0 1 .47.47c0-.06-.16-.25.08.11a4.59 4.59 0 0 1 .32.57c-.08-.19.15.61.13.52s0 .43 0 .44v.56 6.08a5.1 5.1 0 0 1 -.19 2c0-.08.14-.27-.06.12a3.87 3.87 0 0 1 -.34.55c.14-.19-.56.51-.34.34a3.87 3.87 0 0 1 -.37.24s-.58.27-.31.16a2.07 2.07 0 0 1 -1 .2c-2.61.06-2.62 4.12 0 4.06a6.79 6.79 0 0 0 6.68-6.73c0-1.85 0-3.69 0-5.54 0-2.41 0-4.69-1.81-6.59a6.81 6.81 0 0 0 -4.87-2.12h-7.49a6.79 6.79 0 0 0 -6.78 6.23c-.14 1.68 0 3.41 0 5.09 0 2.16-.23 4.41.91 6.35a6.77 6.77 0 0 0 5.2 3.27 22.07 22.07 0 0 0 2.3 0h5.88c2.6.07 2.6-3.99-.01-3.99z"/><rect height="16.91" rx="4.66" width="16.91" x="619.65" y="463.92"/><path d="m631.91 478.81h-7a3.81 3.81 0 0 1 -1.64-.2c.25.1-.16-.08-.21-.11a3.58 3.58 0 0 1 -.46-.29c.08.07.17.16-.09-.1a2.94 2.94 0 0 1 -.3-.31c.17.21-.1-.15-.13-.2a4.45 4.45 0 0 1 -.26-.48c.11.26-.18-.77-.13-.48a9.65 9.65 0 0 1 0-1.52v-6.54a2.3 2.3 0 0 1 0-.23c0-.58-.08.19.06-.36a2.62 2.62 0 0 1 1.86-1.94 6.72 6.72 0 0 1 1.53-.1h2.72c1.45 0 2.95-.11 4.4 0 .38 0-.4-.12.24 0l.43.13c-.23-.09.09.05.12.06a3.14 3.14 0 0 1 .46.28 3.67 3.67 0 0 1 .48.47c-.06-.06-.17-.25.07.11a3.59 3.59 0 0 1 .32.57c-.08-.19.15.61.14.52s0 .43 0 .44v6.64a4.9 4.9 0 0 1 -.2 2c0-.08.14-.27-.06.12a3.14 3.14 0 0 1 -.34.55c.15-.19-.55.51-.34.34a2.82 2.82 0 0 1 -.36.24s-.59.27-.31.16a2.12 2.12 0 0 1 -1 .2c-2.61.06-2.62 4.12 0 4.06a6.8 6.8 0 0 0 6.69-6.73c0-1.85 0-3.69 0-5.54 0-2.41 0-4.69-1.81-6.59a6.82 6.82 0 0 0 -4.88-2.12h-7.48a6.79 6.79 0 0 0 -6.79 6.23c-.13 1.68 0 3.41 0 5.09 0 2.16-.22 4.41.91 6.35a6.79 6.79 0 0 0 5.2 3.27 22.21 22.21 0 0 0 2.31 0h5.87c2.59.07 2.6-3.99-.02-3.99z"/><rect height="16.91" rx="4.66" width="16.91" x="648.87" y="463.92"/><path d="m661.13 478.81h-7a3.77 3.77 0 0 1 -1.64-.2c.25.1-.16-.08-.22-.11s-.31-.18-.46-.29c.09.07.18.16-.09-.1-.1-.09-.2-.2-.3-.31.18.21-.09-.15-.13-.2a4.45 4.45 0 0 1 -.26-.48c.11.26-.17-.77-.13-.48a11 11 0 0 1 0-1.52v-6.77c0-.58-.08.19.06-.36a2.62 2.62 0 0 1 1.87-1.94 6.72 6.72 0 0 1 1.53-.1h2.71c1.45 0 3-.11 4.4 0 .39 0-.39-.12.25 0l.42.13c-.23-.09.1.05.12.06a3.24 3.24 0 0 1 .47.28 3.85 3.85 0 0 1 .47.47c-.05-.06-.16-.25.08.11a4.59 4.59 0 0 1 .32.57c-.09-.19.15.61.13.52s0 .43 0 .44v6.64a5.1 5.1 0 0 1 -.19 2c0-.08.14-.27-.06.12a3.87 3.87 0 0 1 -.34.55c.14-.19-.56.51-.34.34a3.87 3.87 0 0 1 -.37.24s-.58.27-.31.16a2.07 2.07 0 0 1 -1 .2c-2.61.06-2.62 4.12 0 4.06a6.79 6.79 0 0 0 6.68-6.73c0-1.85 0-3.69 0-5.54 0-2.41 0-4.69-1.81-6.59a6.81 6.81 0 0 0 -4.87-2.12h-7.49a6.79 6.79 0 0 0 -6.78 6.23c-.14 1.68 0 3.41 0 5.09 0 2.16-.23 4.41.91 6.35a6.77 6.77 0 0 0 5.2 3.27 22.07 22.07 0 0 0 2.3 0h5.88c2.6.07 2.6-3.99-.01-3.99z"/><rect height="16.91" rx="4.66" width="16.91" x="342.11" y="490.49"/><path d="m354.37 505.37h-7a4 4 0 0 1 -1.64-.19c.25.09-.16-.08-.21-.11a5.16 5.16 0 0 1 -.46-.29c.08.06.17.15-.09-.1-.1-.1-.21-.21-.3-.32.17.21-.1-.14-.13-.2a2.77 2.77 0 0 1 -.26-.48c.11.27-.18-.77-.14-.47a11.16 11.16 0 0 1 0-1.53v-6.53c0-.08 0-.1 0-.24 0-.58-.08.19.06-.36a2.62 2.62 0 0 1 1.86-1.94 6.81 6.81 0 0 1 1.53-.09h2.72c1.45 0 2.95-.12 4.4 0 .38 0-.4-.12.24.05l.43.13c-.23-.09.09.05.11.06a4.48 4.48 0 0 1 .47.28 5.84 5.84 0 0 1 .48.47c-.06-.06-.17-.25.07.11a3.59 3.59 0 0 1 .32.57c-.08-.19.15.61.14.53s0 .42 0 .43v6.64a4.9 4.9 0 0 1 -.2 2c0-.08.14-.27-.06.12a3.22 3.22 0 0 1 -.34.56c.15-.2-.55.5-.34.34a3.32 3.32 0 0 1 -.37.23s-.58.27-.3.17a2.1 2.1 0 0 1 -1 .19c-2.61.06-2.62 4.13 0 4.06a6.8 6.8 0 0 0 6.69-6.73c0-1.84 0-3.69 0-5.54 0-2.4-.05-4.69-1.81-6.59a6.82 6.82 0 0 0 -4.88-2.11c-.58 0-1.15 0-1.73 0-1.92 0-3.84 0-5.76 0a6.78 6.78 0 0 0 -6.78 6.22c-.13 1.68 0 3.41 0 5.1 0 2.15-.22 4.4.91 6.34a6.8 6.8 0 0 0 5.2 3.28c.76.07 1.54 0 2.3 0h5.88c2.62 0 2.62-4.06-.01-4.06z"/><rect height="16.91" rx="4.66" width="16.91" x="371.33" y="490.49"/><path d="m383.58 505.37h-7a3.93 3.93 0 0 1 -1.64-.19c.25.09-.16-.08-.22-.11s-.31-.18-.46-.29c.09.06.18.15-.09-.1-.1-.1-.21-.21-.3-.32.17.21-.1-.14-.13-.2a3.67 3.67 0 0 1 -.26-.48c.11.27-.17-.77-.13-.47a11.16 11.16 0 0 1 0-1.53v-5.68c0-.24 0-.48 0-.72a.86.86 0 0 1 0-.16 1.85 1.85 0 0 1 0-.24c0-.58-.08.19.06-.36a2.64 2.64 0 0 1 1.86-1.94 6.9 6.9 0 0 1 1.54-.09h2.71c1.45 0 3-.12 4.4 0 .39 0-.39-.12.24.05l.43.13c-.23-.09.1.05.12.06a3.52 3.52 0 0 1 .46.28 3.72 3.72 0 0 1 .48.47c-.05-.06-.16-.25.08.11a4.51 4.51 0 0 1 .31.57c-.08-.19.15.61.14.53s0 .42 0 .43v6.64a5.1 5.1 0 0 1 -.19 2c0-.08.14-.27-.06.12a4 4 0 0 1 -.35.56c.15-.2-.55.5-.34.34l-.36.23s-.58.27-.31.17a2.08 2.08 0 0 1 -1 .19c-2.6.06-2.61 4.13 0 4.06a6.79 6.79 0 0 0 6.69-6.73c0-1.84 0-3.69 0-5.54 0-2.4 0-4.69-1.81-6.59a6.81 6.81 0 0 0 -4.88-2.11c-.57 0-1.15 0-1.72 0-1.92 0-3.84 0-5.76 0a6.77 6.77 0 0 0 -6.78 6.22c-.14 1.68 0 3.41 0 5.1 0 2.15-.22 4.4.92 6.34a6.77 6.77 0 0 0 5.2 3.28c.76.07 1.54 0 2.3 0h5.87c2.6.03 2.6-4.03-.02-4.03z"/><rect height="16.91" rx="4.66" width="16.91" x="400.54" y="490.49"/><path d="m412.8 505.37h-7a4 4 0 0 1 -1.64-.19c.25.09-.16-.08-.21-.11a5.16 5.16 0 0 1 -.46-.29c.08.06.17.15-.09-.1-.1-.1-.21-.21-.3-.32.17.21-.1-.14-.13-.2a2.77 2.77 0 0 1 -.26-.48c.1.27-.18-.77-.14-.47a11.16 11.16 0 0 1 0-1.53v-6.53c0-.08 0-.1 0-.24 0-.58-.08.19.06-.36a2.62 2.62 0 0 1 1.86-1.94 6.81 6.81 0 0 1 1.53-.09h2.72c1.45 0 2.95-.12 4.4 0 .38 0-.4-.12.24.05l.43.13c-.23-.09.09.05.11.06a4.48 4.48 0 0 1 .47.28 5.84 5.84 0 0 1 .48.47c-.06-.06-.17-.25.07.11a3.59 3.59 0 0 1 .32.57c-.08-.19.15.61.14.53s0 .42 0 .43v.56 6.08a4.91 4.91 0 0 1 -.19 2c0-.08.14-.27-.06.12a3.22 3.22 0 0 1 -.34.56c.15-.2-.55.5-.34.34a3.32 3.32 0 0 1 -.37.23s-.58.27-.3.17a2.1 2.1 0 0 1 -1 .19c-2.61.06-2.62 4.13 0 4.06a6.8 6.8 0 0 0 6.69-6.73c0-1.84 0-3.69 0-5.54 0-2.4-.05-4.69-1.81-6.59a6.82 6.82 0 0 0 -4.88-2.11c-.58 0-1.15 0-1.73 0-1.92 0-3.84 0-5.76 0a6.78 6.78 0 0 0 -6.78 6.22c-.13 1.68 0 3.41 0 5.1 0 2.15-.22 4.4.91 6.34a6.8 6.8 0 0 0 5.2 3.28c.76.07 1.54 0 2.3 0h5.88c2.59 0 2.6-4.06-.02-4.06z"/><rect height="16.91" rx="4.66" width="16.91" x="429.76" y="490.49"/><path d="m442 505.37h-7a3.93 3.93 0 0 1 -1.64-.19c.25.09-.16-.08-.22-.11s-.32-.18-.46-.29c.09.06.18.15-.09-.1-.1-.1-.21-.21-.3-.32.17.21-.1-.14-.13-.2a3.67 3.67 0 0 1 -.26-.48c.11.27-.17-.77-.13-.47a11.16 11.16 0 0 1 0-1.53v-5.68c0-.24 0-.48 0-.72a.86.86 0 0 1 0-.16 1.85 1.85 0 0 1 0-.24c0-.58-.08.19.06-.36a2.64 2.64 0 0 1 1.86-1.94 6.9 6.9 0 0 1 1.54-.09h2.77c1.45 0 3-.12 4.4 0 .38 0-.39-.12.24.05l.43.13c-.23-.09.1.05.12.06a3.52 3.52 0 0 1 .46.28 3.72 3.72 0 0 1 .48.47c0-.06-.16-.25.08.11a4.51 4.51 0 0 1 .31.57c-.08-.19.15.61.14.53s0 .42 0 .43v6.64a5.1 5.1 0 0 1 -.19 2c0-.08.14-.27-.06.12a4 4 0 0 1 -.35.56c.15-.2-.55.5-.34.34l-.36.23s-.58.27-.31.17a2.08 2.08 0 0 1 -1 .19c-2.6.06-2.61 4.13 0 4.06a6.79 6.79 0 0 0 6.69-6.73c0-1.84 0-3.69 0-5.54 0-2.4 0-4.69-1.81-6.59a6.81 6.81 0 0 0 -4.88-2.11c-.57 0-1.15 0-1.72 0-1.92 0-3.84 0-5.76 0a6.77 6.77 0 0 0 -6.78 6.22c-.14 1.68 0 3.41 0 5.1 0 2.15-.22 4.4.92 6.34a6.77 6.77 0 0 0 5.2 3.28c.76.07 1.54 0 2.3 0h5.79c2.63.03 2.63-4.03 0-4.03z"/><rect height="16.91" rx="4.66" width="16.91" x="458.97" y="490.49"/><path d="m471.23 505.37h-7a3.93 3.93 0 0 1 -1.64-.19c.25.09-.16-.08-.21-.11a5.16 5.16 0 0 1 -.46-.29c.08.06.17.15-.09-.1a3 3 0 0 1 -.3-.32c.17.21-.1-.14-.13-.2a2.77 2.77 0 0 1 -.26-.48c.1.27-.18-.77-.14-.47a11.16 11.16 0 0 1 0-1.53v-6.53c0-.08 0-.1 0-.24 0-.58-.08.19.06-.36a2.62 2.62 0 0 1 1.86-1.94 6.81 6.81 0 0 1 1.53-.09h2.72c1.45 0 2.95-.12 4.4 0 .38 0-.4-.12.24.05l.42.13c-.22-.09.1.05.12.06a4.48 4.48 0 0 1 .47.28 5.84 5.84 0 0 1 .48.47c-.06-.06-.17-.25.07.11a3.59 3.59 0 0 1 .32.57c-.08-.19.15.61.13.53s0 .42 0 .43v.56 6.08a4.91 4.91 0 0 1 -.19 2c0-.08.14-.27-.06.12a3.22 3.22 0 0 1 -.34.56c.15-.2-.55.5-.34.34a3.32 3.32 0 0 1 -.37.23s-.58.27-.31.17a2 2 0 0 1 -1 .19c-2.61.06-2.62 4.13 0 4.06a6.8 6.8 0 0 0 6.69-6.73c0-1.84 0-3.69 0-5.54 0-2.4-.05-4.69-1.81-6.59a6.82 6.82 0 0 0 -4.88-2.11c-.58 0-1.15 0-1.73 0-1.92 0-3.84 0-5.76 0a6.78 6.78 0 0 0 -6.78 6.22c-.13 1.68 0 3.41 0 5.1 0 2.15-.22 4.4.91 6.34a6.8 6.8 0 0 0 5.2 3.28c.76.07 1.54 0 2.3 0h5.88c2.61 0 2.62-4.06 0-4.06z"/><rect height="16.91" rx="4.66" width="16.91" x="488.19" y="490.49"/><path d="m500.44 505.37h-7a3.93 3.93 0 0 1 -1.64-.19c.25.09-.16-.08-.22-.11a5.16 5.16 0 0 1 -.46-.29c.09.06.18.15-.09-.1-.1-.1-.21-.21-.3-.32.17.21-.1-.14-.13-.2a3.67 3.67 0 0 1 -.26-.48c.11.27-.17-.77-.13-.47a11.16 11.16 0 0 1 0-1.53v-5.68c0-.24 0-.48 0-.72a.86.86 0 0 1 0-.16 1.85 1.85 0 0 1 0-.24c0-.58-.08.19.06-.36a2.64 2.64 0 0 1 1.86-1.94 6.9 6.9 0 0 1 1.54-.09h2.71c1.45 0 2.95-.12 4.4 0 .38 0-.39-.12.24.05l.43.13c-.23-.09.1.05.12.06a3.52 3.52 0 0 1 .46.28 3.72 3.72 0 0 1 .48.47c0-.06-.16-.25.08.11a4.51 4.51 0 0 1 .31.57c-.08-.19.15.61.14.53s0 .42 0 .43v6.64a5.1 5.1 0 0 1 -.19 2c0-.08.14-.27-.06.12a4 4 0 0 1 -.35.56c.15-.2-.55.5-.34.34l-.36.23s-.58.27-.31.17a2.08 2.08 0 0 1 -1 .19c-2.6.06-2.61 4.13 0 4.06a6.79 6.79 0 0 0 6.69-6.73c0-1.84 0-3.69 0-5.54 0-2.4 0-4.69-1.81-6.59a6.81 6.81 0 0 0 -4.88-2.11c-.57 0-1.15 0-1.72 0-1.92 0-3.84 0-5.76 0a6.77 6.77 0 0 0 -6.78 6.22c-.14 1.68 0 3.41 0 5.1 0 2.15-.22 4.4.92 6.34a6.77 6.77 0 0 0 5.2 3.28c.76.07 1.54 0 2.3 0h5.87c2.6.03 2.6-4.03-.02-4.03z"/><rect height="16.91" rx="4.66" width="16.91" x="517.4" y="490.49"/><path d="m529.66 505.37h-7a3.93 3.93 0 0 1 -1.64-.19c.25.09-.16-.08-.21-.11a5.16 5.16 0 0 1 -.46-.29c.08.06.17.15-.09-.1a3 3 0 0 1 -.3-.32c.17.21-.1-.14-.13-.2a2.77 2.77 0 0 1 -.26-.48c.1.27-.18-.77-.14-.47a11.16 11.16 0 0 1 0-1.53v-6.53c0-.08 0-.1 0-.24 0-.58-.08.19.06-.36a2.62 2.62 0 0 1 1.86-1.94 6.81 6.81 0 0 1 1.53-.09h2.72c1.45 0 2.95-.12 4.4 0 .38 0-.4-.12.24.05l.42.13c-.22-.09.1.05.12.06a4.48 4.48 0 0 1 .47.28 5.84 5.84 0 0 1 .48.47c-.06-.06-.17-.25.07.11a3.59 3.59 0 0 1 .32.57c-.08-.19.15.61.13.53s0 .42 0 .43v.56 6.08a4.91 4.91 0 0 1 -.19 2c0-.08.14-.27-.06.12a3.22 3.22 0 0 1 -.34.56c.15-.2-.55.5-.34.34a3.32 3.32 0 0 1 -.37.23s-.58.27-.31.17a2 2 0 0 1 -1 .19c-2.61.06-2.62 4.13 0 4.06a6.8 6.8 0 0 0 6.69-6.73c0-1.84 0-3.69 0-5.54 0-2.4-.05-4.69-1.81-6.59a6.82 6.82 0 0 0 -4.88-2.11c-.58 0-1.15 0-1.73 0-1.92 0-3.84 0-5.76 0a6.78 6.78 0 0 0 -6.78 6.22c-.13 1.68 0 3.41 0 5.1 0 2.15-.22 4.4.91 6.34a6.8 6.8 0 0 0 5.2 3.28c.76.07 1.54 0 2.3 0h5.88c2.61 0 2.62-4.06 0-4.06z"/><rect height="16.91" rx="4.66" width="16.91" x="546.61" y="490.49"/><path d="m558.87 505.37h-7a3.93 3.93 0 0 1 -1.64-.19c.25.09-.16-.08-.22-.11a5.16 5.16 0 0 1 -.46-.29c.08.06.18.15-.09-.1-.1-.1-.21-.21-.3-.32.17.21-.1-.14-.13-.2a3.67 3.67 0 0 1 -.26-.48c.11.27-.17-.77-.13-.47a11.16 11.16 0 0 1 0-1.53v-5.68c0-.24 0-.48 0-.72a.86.86 0 0 1 0-.16 1.85 1.85 0 0 1 0-.24c0-.58-.08.19.06-.36a2.64 2.64 0 0 1 1.86-1.94 6.85 6.85 0 0 1 1.53-.09h2.72c1.45 0 2.95-.12 4.4 0 .38 0-.39-.12.24.05l.43.13c-.23-.09.1.05.12.06a3.52 3.52 0 0 1 .46.28 3.72 3.72 0 0 1 .48.47c-.05-.06-.16-.25.08.11a4.51 4.51 0 0 1 .31.57c-.08-.19.15.61.14.53s0 .42 0 .43v6.64a5.1 5.1 0 0 1 -.19 2c0-.08.14-.27-.06.12a4 4 0 0 1 -.35.56c.15-.2-.55.5-.34.34l-.36.23s-.58.27-.31.17a2.08 2.08 0 0 1 -1 .19c-2.61.06-2.61 4.13 0 4.06a6.79 6.79 0 0 0 6.69-6.73c0-1.84 0-3.69 0-5.54 0-2.4 0-4.69-1.81-6.59a6.81 6.81 0 0 0 -4.88-2.11c-.57 0-1.15 0-1.72 0-1.92 0-3.84 0-5.76 0a6.77 6.77 0 0 0 -6.78 6.22c-.14 1.68 0 3.41 0 5.1 0 2.15-.22 4.4.92 6.34a6.77 6.77 0 0 0 5.2 3.28c.76.07 1.54 0 2.3 0h5.87c2.6.03 2.6-4.03-.02-4.03z"/><rect height="16.91" rx="4.66" width="16.91" x="575.83" y="490.49"/><path d="m588.09 505.37h-7a3.93 3.93 0 0 1 -1.64-.19c.25.09-.16-.08-.21-.11a5.16 5.16 0 0 1 -.46-.29c.08.06.17.15-.09-.1a3 3 0 0 1 -.3-.32c.17.21-.1-.14-.13-.2a2.77 2.77 0 0 1 -.26-.48c.1.27-.18-.77-.14-.47a11.16 11.16 0 0 1 0-1.53v-6.53c0-.08 0-.1 0-.24 0-.58-.08.19.06-.36a2.62 2.62 0 0 1 1.86-1.94 6.81 6.81 0 0 1 1.53-.09h2.69c1.45 0 3-.12 4.4 0 .38 0-.4-.12.24.05l.42.13c-.22-.09.1.05.12.06a4.48 4.48 0 0 1 .47.28 5.84 5.84 0 0 1 .48.47c-.06-.06-.17-.25.07.11a3.59 3.59 0 0 1 .32.57c-.08-.19.15.61.13.53s0 .42 0 .43v.56 6.08a4.91 4.91 0 0 1 -.19 2c0-.08.14-.27-.06.12a4 4 0 0 1 -.34.56c.15-.2-.55.5-.34.34a3.32 3.32 0 0 1 -.37.23s-.58.27-.31.17a2 2 0 0 1 -1 .19c-2.61.06-2.62 4.13 0 4.06a6.8 6.8 0 0 0 6.69-6.73c0-1.84 0-3.69 0-5.54 0-2.4 0-4.69-1.81-6.59a6.82 6.82 0 0 0 -4.88-2.11c-.58 0-1.15 0-1.73 0-1.92 0-3.84 0-5.76 0a6.78 6.78 0 0 0 -6.78 6.22c-.13 1.68 0 3.41 0 5.1 0 2.15-.22 4.4.91 6.34a6.8 6.8 0 0 0 5.2 3.28c.76.07 1.54 0 2.3 0h5.88c2.64 0 2.65-4.06.03-4.06z"/><rect height="16.91" rx="4.66" width="16.91" x="605.04" y="490.49"/><path d="m617.3 505.37h-7a4 4 0 0 1 -1.65-.19c.26.09-.15-.08-.21-.11a5.16 5.16 0 0 1 -.46-.29c.08.06.18.15-.09-.1-.1-.1-.21-.21-.3-.32.17.21-.1-.14-.13-.2a3.67 3.67 0 0 1 -.26-.48c.11.27-.17-.77-.13-.47a11.16 11.16 0 0 1 0-1.53v-5.68c0-.24 0-.48 0-.72a.86.86 0 0 1 0-.16 1.85 1.85 0 0 1 0-.24c0-.58-.08.19.06-.36a2.64 2.64 0 0 1 1.86-1.94 6.85 6.85 0 0 1 1.53-.09h2.72c1.45 0 3-.12 4.4 0 .38 0-.39-.12.24.05l.43.13c-.23-.09.1.05.12.06a3.52 3.52 0 0 1 .46.28 3.72 3.72 0 0 1 .48.47c0-.06-.16-.25.08.11a4.51 4.51 0 0 1 .31.57c-.08-.19.15.61.14.53s0 .42 0 .43v6.64a5.1 5.1 0 0 1 -.19 2c0-.08.14-.27-.06.12a4 4 0 0 1 -.35.56c.15-.2-.55.5-.34.34l-.36.23s-.58.27-.31.17a2.08 2.08 0 0 1 -1 .19c-2.61.06-2.62 4.13 0 4.06a6.79 6.79 0 0 0 6.71-6.73c0-1.84 0-3.69 0-5.54 0-2.4 0-4.69-1.81-6.59a6.81 6.81 0 0 0 -4.88-2.11c-.57 0-1.15 0-1.72 0-1.92 0-3.84 0-5.76 0a6.77 6.77 0 0 0 -6.78 6.22c-.14 1.68 0 3.41 0 5.1 0 2.15-.22 4.4.92 6.34a6.77 6.77 0 0 0 5.2 3.28c.76.07 1.54 0 2.3 0h5.87c2.58.03 2.58-4.03-.04-4.03z"/><rect height="16.91" rx="4.66" width="16.91" x="634.26" y="490.49"/><path d="m646.52 505.37h-7a3.93 3.93 0 0 1 -1.64-.19c.25.09-.16-.08-.21-.11a5.16 5.16 0 0 1 -.46-.29c.08.06.17.15-.09-.1a3 3 0 0 1 -.3-.32c.17.21-.1-.14-.13-.2a2.77 2.77 0 0 1 -.26-.48c.1.27-.18-.77-.14-.47a11.16 11.16 0 0 1 0-1.53v-6.53c0-.08 0-.1 0-.24 0-.58-.08.19.06-.36a2.62 2.62 0 0 1 1.86-1.94 6.81 6.81 0 0 1 1.53-.09h2.72c1.45 0 2.95-.12 4.4 0 .38 0-.4-.12.24.05l.42.13c-.22-.09.1.05.12.06a4.48 4.48 0 0 1 .47.28 5.84 5.84 0 0 1 .48.47c-.06-.06-.17-.25.07.11a3.59 3.59 0 0 1 .32.57c-.08-.19.15.61.13.53s0 .42 0 .43v.56 6.08a4.91 4.91 0 0 1 -.19 2c0-.08.14-.27-.06.12a4 4 0 0 1 -.34.56c.15-.2-.55.5-.34.34a3.32 3.32 0 0 1 -.37.23s-.58.27-.31.17a2 2 0 0 1 -1 .19c-2.61.06-2.62 4.13 0 4.06a6.79 6.79 0 0 0 6.68-6.73c0-1.84 0-3.69 0-5.54 0-2.4 0-4.69-1.8-6.59a6.82 6.82 0 0 0 -4.88-2.11c-.58 0-1.15 0-1.73 0-1.92 0-3.84 0-5.76 0a6.78 6.78 0 0 0 -6.78 6.22c-.13 1.68 0 3.41 0 5.1 0 2.15-.22 4.4.91 6.34a6.8 6.8 0 0 0 5.2 3.28c.76.07 1.54 0 2.3 0h5.88c2.61 0 2.62-4.06 0-4.06z"/><rect height="16.91" rx="4.66" width="16.91" x="327.5" y="517.05"/><path d="m339.76 531.93h-7a4 4 0 0 1 -1.65-.19c.26.1-.16-.08-.21-.11a3.58 3.58 0 0 1 -.46-.29c.08.06.17.16-.09-.1-.1-.1-.21-.2-.3-.31.17.2-.1-.15-.13-.2s-.19-.32-.26-.48c.11.26-.18-.77-.13-.48a11.14 11.14 0 0 1 0-1.53v-6.53c0-.08 0-.1 0-.24 0-.57-.08.19.06-.35a2.65 2.65 0 0 1 1.86-2 7.5 7.5 0 0 1 1.53-.09h2.72c1.45 0 3-.12 4.4 0 .38 0-.39-.11.24.06a3.45 3.45 0 0 1 .43.12c-.23-.08.09.05.12.06a3.52 3.52 0 0 1 .46.28 3.37 3.37 0 0 1 .48.48c0-.07-.16-.26.07.1a3.28 3.28 0 0 1 .32.58c-.08-.19.15.6.14.52s0 .43 0 .43v6.64a4.88 4.88 0 0 1 -.2 2c0-.08.14-.26-.05.12a4 4 0 0 1 -.35.56c.15-.19-.55.5-.34.34-.11.09-.24.16-.36.24s-.59.26-.31.16a2.08 2.08 0 0 1 -1 .19c-2.61.07-2.62 4.13 0 4.06a6.8 6.8 0 0 0 6.69-6.72c0-1.85 0-3.7 0-5.54 0-2.41 0-4.69-1.81-6.6a6.85 6.85 0 0 0 -4.88-2.11h-1.75c-1.91 0-3.83 0-5.75 0a6.77 6.77 0 0 0 -6.78 6.22c-.14 1.69 0 3.41 0 5.1 0 2.15-.22 4.4.92 6.34a6.77 6.77 0 0 0 5.19 3.28 22.22 22.22 0 0 0 2.31 0h5.87c2.62.06 2.62-4.01 0-4.01z"/></g><rect height="16.91" rx="4.66" width="16.91" x="356.72" y="517.05"/><path d="m369 531.93h-7a3.93 3.93 0 0 1 -1.64-.19c.25.1-.16-.08-.22-.11s-.31-.18-.46-.29c.09.06.18.16-.08-.1a2.91 2.91 0 0 1 -.3-.31c.17.2-.1-.15-.14-.2s-.19-.32-.26-.48c.11.26-.17-.77-.13-.48a11.14 11.14 0 0 1 0-1.53v-6.77c0-.57-.08.19.06-.35a2.64 2.64 0 0 1 1.87-2 7.45 7.45 0 0 1 1.53-.09h2.71c1.45 0 3-.12 4.4 0 .39 0-.39-.11.25.06l.42.12c-.23-.08.1.05.12.06a4.48 4.48 0 0 1 .47.28 5 5 0 0 1 .48.48c-.06-.07-.17-.26.07.1a4.08 4.08 0 0 1 .32.58c-.08-.19.15.6.13.52s0 .43 0 .43v.56 6.08a5.07 5.07 0 0 1 -.19 2c0-.08.14-.26-.06.12a4 4 0 0 1 -.34.56c.15-.19-.55.5-.34.34-.12.09-.24.16-.37.24s-.58.26-.31.16a2 2 0 0 1 -1 .19c-2.61.07-2.62 4.13 0 4.06a6.79 6.79 0 0 0 6.68-6.72c0-1.85 0-3.7 0-5.54 0-2.41 0-4.69-1.81-6.6a6.82 6.82 0 0 0 -4.86-2.11h-1.73c-1.92 0-3.84 0-5.76 0a6.78 6.78 0 0 0 -6.78 6.22c-.14 1.69 0 3.41 0 5.1 0 2.15-.23 4.4.91 6.34a6.8 6.8 0 0 0 5.2 3.28 22.06 22.06 0 0 0 2.3 0h5.86c2.59.06 2.59-4.01 0-4.01z"/><g fill="#18c4ff"><rect height="16.91" rx="4.66" width="16.91" x="385.93" y="517.05"/><path d="m398.19 531.93h-7a4 4 0 0 1 -1.65-.19c.26.1-.16-.08-.21-.11a3.58 3.58 0 0 1 -.46-.29c.08.06.17.16-.09-.1-.1-.1-.21-.2-.3-.31.17.2-.1-.15-.13-.2s-.19-.32-.26-.48c.11.26-.18-.77-.13-.48a9.75 9.75 0 0 1 0-1.53v-6.53c0-.08 0-.1 0-.24 0-.57-.08.19.06-.35a2.65 2.65 0 0 1 1.86-2 7.5 7.5 0 0 1 1.53-.09h2.72c1.45 0 2.95-.12 4.4 0 .38 0-.4-.11.24.06a3.45 3.45 0 0 1 .43.12c-.23-.08.09.05.12.06a3.52 3.52 0 0 1 .46.28 4 4 0 0 1 .48.48c0-.07-.16-.26.07.1a3.28 3.28 0 0 1 .32.58c-.08-.19.15.6.14.52s0 .43 0 .43v6.64a4.88 4.88 0 0 1 -.2 2c0-.08.14-.26-.06.12a3.22 3.22 0 0 1 -.34.56c.15-.19-.55.5-.34.34-.11.09-.24.16-.36.24s-.59.26-.31.16a2.08 2.08 0 0 1 -1 .19c-2.61.07-2.62 4.13 0 4.06a6.8 6.8 0 0 0 6.69-6.72c0-1.85 0-3.7 0-5.54 0-2.41 0-4.69-1.81-6.6a6.85 6.85 0 0 0 -4.88-2.11h-1.73c-1.91 0-3.83 0-5.75 0a6.77 6.77 0 0 0 -6.78 6.22c-.14 1.69 0 3.41 0 5.1 0 2.15-.22 4.4.92 6.34a6.77 6.77 0 0 0 5.16 3.34 22.22 22.22 0 0 0 2.31 0h5.87c2.63 0 2.63-4.07.01-4.07z"/><rect height="16.91" rx="4.66" width="16.91" x="415.15" y="517.05"/><path d="m427.41 531.93h-7a3.93 3.93 0 0 1 -1.64-.19c.25.1-.16-.08-.22-.11s-.31-.18-.46-.29c.09.06.18.16-.09-.1-.1-.1-.2-.2-.29-.31.17.2-.1-.15-.14-.2s-.19-.32-.26-.48c.11.26-.17-.77-.13-.48a11.14 11.14 0 0 1 0-1.53v-6.77c0-.57-.08.19.06-.35a2.64 2.64 0 0 1 1.87-2 7.45 7.45 0 0 1 1.53-.09h2.71c1.45 0 3-.12 4.4 0 .39 0-.39-.11.25.06l.42.12c-.23-.08.1.05.12.06a4.48 4.48 0 0 1 .47.28 4.25 4.25 0 0 1 .47.48c-.05-.07-.16-.26.08.1a4.08 4.08 0 0 1 .32.58c-.08-.19.15.6.13.52s0 .43 0 .43v.56 6.08a5.07 5.07 0 0 1 -.19 2c0-.08.14-.26-.06.12a4 4 0 0 1 -.34.56c.15-.19-.55.5-.34.34-.12.09-.24.16-.37.24s-.58.26-.31.16a2 2 0 0 1 -1 .19c-2.61.07-2.62 4.13 0 4.06a6.79 6.79 0 0 0 6.68-6.72c0-1.85 0-3.7 0-5.54 0-2.41 0-4.69-1.81-6.6a6.82 6.82 0 0 0 -4.87-2.11h-1.73c-1.92 0-3.84 0-5.76 0a6.78 6.78 0 0 0 -6.78 6.22c-.14 1.69 0 3.41 0 5.1 0 2.15-.23 4.4.91 6.34a6.8 6.8 0 0 0 5.2 3.28 22.06 22.06 0 0 0 2.3 0h5.88c2.58.06 2.58-4.01-.01-4.01z"/><rect height="16.91" rx="4.66" width="16.91" x="444.36" y="517.05"/><path d="m456.62 531.93h-7a4 4 0 0 1 -1.65-.19c.26.1-.16-.08-.21-.11a3.58 3.58 0 0 1 -.46-.29c.08.06.17.16-.09-.1-.1-.1-.21-.2-.3-.31.17.2-.1-.15-.13-.2s-.19-.32-.26-.48c.11.26-.18-.77-.13-.48a9.75 9.75 0 0 1 0-1.53v-6.53c0-.08 0-.1 0-.24 0-.57-.08.19.06-.35a2.65 2.65 0 0 1 1.86-2 7.5 7.5 0 0 1 1.53-.09h2.72c1.45 0 2.95-.12 4.4 0 .38 0-.4-.11.24.06a3.45 3.45 0 0 1 .43.12c-.23-.08.09.05.12.06a3.52 3.52 0 0 1 .46.28 4 4 0 0 1 .48.48c-.05-.07-.17-.26.07.1a3.28 3.28 0 0 1 .32.58c-.08-.19.15.6.14.52s0 .43 0 .43v6.64a4.88 4.88 0 0 1 -.2 2c0-.08.14-.26-.06.12a3.22 3.22 0 0 1 -.34.56c.15-.19-.55.5-.34.34-.11.09-.24.16-.36.24s-.59.26-.31.16a2.08 2.08 0 0 1 -1 .19c-2.61.07-2.62 4.13 0 4.06a6.8 6.8 0 0 0 6.69-6.72c0-1.85 0-3.7 0-5.54 0-2.41 0-4.69-1.81-6.6a6.85 6.85 0 0 0 -4.88-2.11h-1.73c-1.91 0-3.84 0-5.75 0a6.78 6.78 0 0 0 -6.79 6.22c-.13 1.69 0 3.41 0 5.1 0 2.15-.22 4.4.92 6.34a6.77 6.77 0 0 0 5.19 3.28 22.22 22.22 0 0 0 2.31 0h5.87c2.6.06 2.61-4.01-.01-4.01z"/><rect height="16.91" rx="4.66" width="16.91" x="473.58" y="517.05"/><path d="m485.84 531.93h-7a3.93 3.93 0 0 1 -1.64-.19c.25.1-.16-.08-.22-.11s-.31-.18-.46-.29c.09.06.18.16-.09-.1-.1-.1-.2-.2-.29-.31.17.2-.1-.15-.14-.2s-.19-.32-.26-.48c.11.26-.17-.77-.13-.48a11.14 11.14 0 0 1 0-1.53v-6.77c0-.57-.08.19.06-.35a2.64 2.64 0 0 1 1.87-2 7.45 7.45 0 0 1 1.53-.09h2.71c1.45 0 3-.12 4.4 0 .39 0-.39-.11.25.06l.42.12c-.23-.08.1.05.12.06a4.48 4.48 0 0 1 .47.28 4.25 4.25 0 0 1 .47.48c-.05-.07-.16-.26.08.1a4.08 4.08 0 0 1 .32.58c-.08-.19.15.6.13.52s0 .43 0 .43v.56 6.08a5.07 5.07 0 0 1 -.19 2c0-.08.14-.26-.06.12a4 4 0 0 1 -.34.56c.15-.19-.55.5-.34.34-.12.09-.25.16-.37.24s-.58.26-.31.16a2 2 0 0 1 -1 .19c-2.61.07-2.62 4.13 0 4.06a6.79 6.79 0 0 0 6.68-6.72c0-1.85 0-3.7 0-5.54 0-2.41 0-4.69-1.81-6.6a6.82 6.82 0 0 0 -4.87-2.11h-1.73c-1.92 0-3.84 0-5.76 0a6.78 6.78 0 0 0 -6.78 6.22c-.14 1.69 0 3.41 0 5.1 0 2.15-.23 4.4.91 6.34a6.78 6.78 0 0 0 5.2 3.28 22.06 22.06 0 0 0 2.3 0h5.88c2.6.06 2.6-4.01-.01-4.01z"/><rect height="16.91" rx="4.66" width="16.91" x="502.79" y="517.05"/><path d="m515.05 531.93h-7a4 4 0 0 1 -1.65-.19c.26.1-.16-.08-.21-.11a3.58 3.58 0 0 1 -.46-.29c.08.06.17.16-.09-.1-.1-.1-.21-.2-.3-.31.17.2-.1-.15-.13-.2s-.19-.32-.26-.48c.11.26-.18-.77-.13-.48a9.75 9.75 0 0 1 0-1.53v-6.53c0-.08 0-.1 0-.24 0-.57-.08.19.06-.35a2.65 2.65 0 0 1 1.86-2 7.5 7.5 0 0 1 1.53-.09h2.73c1.45 0 3-.12 4.4 0 .38 0-.4-.11.24.06a3.45 3.45 0 0 1 .43.12c-.23-.08.09.05.12.06a4.34 4.34 0 0 1 .46.28 4 4 0 0 1 .48.48c-.06-.07-.17-.26.07.1a3.28 3.28 0 0 1 .32.58c-.08-.19.15.6.14.52s0 .43 0 .43v6.64a4.88 4.88 0 0 1 -.2 2c0-.08.14-.26-.06.12a3.22 3.22 0 0 1 -.34.56c.15-.19-.55.5-.34.34-.11.09-.24.16-.36.24s-.59.26-.31.16a2.1 2.1 0 0 1 -1 .19c-2.61.07-2.62 4.13 0 4.06a6.8 6.8 0 0 0 6.69-6.72c0-1.85 0-3.7 0-5.54 0-2.41 0-4.69-1.81-6.6a6.85 6.85 0 0 0 -4.88-2.11h-1.73c-1.92 0-3.84 0-5.75 0a6.78 6.78 0 0 0 -6.79 6.22c-.13 1.69 0 3.41 0 5.1 0 2.15-.22 4.4.91 6.34a6.8 6.8 0 0 0 5.2 3.28 22.22 22.22 0 0 0 2.31 0h5.87c2.59.06 2.6-4.01-.02-4.01z"/><rect height="16.91" rx="4.66" width="16.91" x="532.01" y="517.05"/><path d="m544.27 531.93h-7a3.93 3.93 0 0 1 -1.64-.19c.25.1-.16-.08-.22-.11s-.31-.18-.46-.29c.09.06.18.16-.09-.1-.1-.1-.2-.2-.29-.31.17.2-.1-.15-.14-.2s-.19-.32-.26-.48c.11.26-.17-.77-.13-.48a11.14 11.14 0 0 1 0-1.53v-6.77c0-.57-.08.19.06-.35a2.64 2.64 0 0 1 1.87-2 7.45 7.45 0 0 1 1.53-.09h2.71c1.45 0 3-.12 4.4 0 .39 0-.39-.11.25.06l.42.12c-.23-.08.1.05.12.06a4.48 4.48 0 0 1 .47.28 4.25 4.25 0 0 1 .47.48c-.05-.07-.16-.26.08.1a4.08 4.08 0 0 1 .32.58c-.08-.19.15.6.13.52s0 .43 0 .43v.56 6.08a5.07 5.07 0 0 1 -.19 2c0-.08.14-.26-.06.12a4 4 0 0 1 -.34.56c.15-.19-.56.5-.34.34-.12.09-.25.16-.37.24s-.58.26-.31.16a2 2 0 0 1 -1 .19c-2.61.07-2.62 4.13 0 4.06a6.79 6.79 0 0 0 6.68-6.72c0-1.85 0-3.7 0-5.54 0-2.41 0-4.69-1.81-6.6a6.82 6.82 0 0 0 -4.87-2.11h-1.73c-1.92 0-3.84 0-5.76 0a6.78 6.78 0 0 0 -6.78 6.22c-.14 1.69 0 3.41 0 5.1 0 2.15-.23 4.4.91 6.34a6.78 6.78 0 0 0 5.2 3.28 22.06 22.06 0 0 0 2.3 0h5.88c2.6.06 2.6-4.01-.01-4.01z"/><rect height="16.91" rx="4.66" width="16.91" x="561.22" y="517.05"/><path d="m573.48 531.93h-7a4 4 0 0 1 -1.64-.19c.25.1-.16-.08-.21-.11a3.58 3.58 0 0 1 -.46-.29c.08.06.17.16-.09-.1-.1-.1-.21-.2-.3-.31.17.2-.1-.15-.13-.2s-.19-.32-.26-.48c.11.26-.18-.77-.13-.48a9.75 9.75 0 0 1 0-1.53v-6.53c0-.08 0-.1 0-.24 0-.57-.08.19.06-.35a2.65 2.65 0 0 1 1.86-2 7.45 7.45 0 0 1 1.53-.09h2.72c1.45 0 3-.12 4.4 0 .38 0-.4-.11.24.06a3.45 3.45 0 0 1 .43.12c-.23-.08.09.05.12.06a4.34 4.34 0 0 1 .46.28 4 4 0 0 1 .48.48c-.06-.07-.17-.26.07.1a3.28 3.28 0 0 1 .32.58c-.08-.19.15.6.14.52s0 .43 0 .43v6.64a4.88 4.88 0 0 1 -.2 2c0-.08.14-.26-.06.12a3.22 3.22 0 0 1 -.34.56c.15-.19-.55.5-.34.34-.11.09-.24.16-.36.24s-.59.26-.31.16a2.1 2.1 0 0 1 -1 .19c-2.61.07-2.62 4.13 0 4.06a6.8 6.8 0 0 0 6.69-6.72c0-1.85 0-3.7 0-5.54 0-2.41 0-4.69-1.81-6.6a6.85 6.85 0 0 0 -4.88-2.11h-1.73c-1.92 0-3.84 0-5.75 0a6.78 6.78 0 0 0 -6.79 6.22c-.13 1.69 0 3.41 0 5.1 0 2.15-.22 4.4.91 6.34a6.8 6.8 0 0 0 5.2 3.28 22.22 22.22 0 0 0 2.31 0h5.87c2.59.06 2.6-4.01-.02-4.01z"/><rect height="16.91" rx="4.66" width="16.91" x="590.44" y="517.05"/><path d="m602.7 531.93h-7a3.93 3.93 0 0 1 -1.64-.19c.25.1-.16-.08-.22-.11s-.31-.18-.46-.29c.09.06.18.16-.09-.1l-.3-.31c.18.2-.09-.15-.13-.2s-.19-.32-.26-.48c.11.26-.17-.77-.13-.48a11.14 11.14 0 0 1 0-1.53v-6.77c0-.57-.08.19.06-.35a2.64 2.64 0 0 1 1.87-2 7.45 7.45 0 0 1 1.53-.09h2.71c1.45 0 3-.12 4.4 0 .39 0-.39-.11.25.06l.42.12c-.23-.08.1.05.12.06a4.48 4.48 0 0 1 .47.28 4.25 4.25 0 0 1 .47.48c0-.07-.16-.26.08.1a4.08 4.08 0 0 1 .32.58c-.08-.19.15.6.13.52s0 .43 0 .43v.56 6.08a5.07 5.07 0 0 1 -.19 2c0-.08.14-.26-.06.12a4 4 0 0 1 -.34.56c.14-.19-.56.5-.34.34-.12.09-.25.16-.37.24s-.58.26-.31.16a2 2 0 0 1 -1 .19c-2.61.07-2.62 4.13 0 4.06a6.79 6.79 0 0 0 6.68-6.72c0-1.85 0-3.7 0-5.54 0-2.41 0-4.69-1.81-6.6a6.84 6.84 0 0 0 -4.86-2.11h-1.7c-1.92 0-3.84 0-5.76 0a6.78 6.78 0 0 0 -6.78 6.22c-.14 1.69 0 3.41 0 5.1 0 2.15-.23 4.4.91 6.34a6.78 6.78 0 0 0 5.2 3.28 22.06 22.06 0 0 0 2.3 0h5.88c2.56.06 2.56-4.01-.05-4.01z"/></g><rect height="16.91" rx="4.66" width="16.91" x="619.65" y="517.05"/><path d="m631.91 531.93h-7a4 4 0 0 1 -1.64-.19c.25.1-.16-.08-.21-.11a3.58 3.58 0 0 1 -.46-.29c.08.06.17.16-.09-.1-.1-.1-.21-.2-.3-.31.17.2-.1-.15-.13-.2s-.19-.32-.26-.48c.11.26-.18-.77-.13-.48a9.75 9.75 0 0 1 0-1.53v-6.53c0-.08 0-.1 0-.24 0-.57-.08.19.06-.35a2.65 2.65 0 0 1 1.86-2 7.45 7.45 0 0 1 1.53-.09h2.72c1.45 0 2.95-.12 4.4 0 .38 0-.4-.11.24.06a3.45 3.45 0 0 1 .43.12c-.23-.08.09.05.12.06a4.34 4.34 0 0 1 .46.28 4 4 0 0 1 .48.48c-.06-.07-.17-.26.07.1a3.28 3.28 0 0 1 .32.58c-.08-.19.15.6.14.52s0 .43 0 .43v6.64a4.88 4.88 0 0 1 -.2 2c0-.08.14-.26-.06.12a3.22 3.22 0 0 1 -.34.56c.15-.19-.55.5-.34.34-.11.09-.24.16-.36.24s-.59.26-.31.16a2.1 2.1 0 0 1 -1 .19c-2.61.07-2.62 4.13 0 4.06a6.8 6.8 0 0 0 6.69-6.72c0-1.85 0-3.7 0-5.54 0-2.41 0-4.69-1.81-6.6a6.85 6.85 0 0 0 -4.88-2.11h-1.73c-1.92 0-3.84 0-5.75 0a6.78 6.78 0 0 0 -6.79 6.22c-.13 1.69 0 3.41 0 5.1 0 2.15-.22 4.4.91 6.34a6.8 6.8 0 0 0 5.2 3.28 22.22 22.22 0 0 0 2.31 0h5.87c2.59.06 2.6-4.01-.02-4.01z"/><rect fill="#18c4ff" height="16.91" rx="4.66" width="16.91" x="648.87" y="517.05"/><path d="m661.13 531.93h-7a3.93 3.93 0 0 1 -1.64-.19c.25.1-.16-.08-.22-.11s-.31-.18-.46-.29c.09.06.18.16-.09-.1l-.3-.31c.18.2-.09-.15-.13-.2s-.19-.32-.26-.48c.11.26-.17-.77-.13-.48a11.14 11.14 0 0 1 0-1.53v-6.77c0-.57-.08.19.06-.35a2.64 2.64 0 0 1 1.87-2 7.45 7.45 0 0 1 1.53-.09h2.71c1.45 0 3-.12 4.4 0 .39 0-.39-.11.25.06l.42.12c-.23-.08.1.05.12.06a4.48 4.48 0 0 1 .47.28 4.25 4.25 0 0 1 .47.48c-.05-.07-.16-.26.08.1a4.08 4.08 0 0 1 .32.58c-.09-.19.15.6.13.52s0 .43 0 .43v6.64a5.07 5.07 0 0 1 -.19 2c0-.08.14-.26-.06.12a4 4 0 0 1 -.34.56c.14-.19-.56.5-.34.34-.12.09-.25.16-.37.24s-.58.26-.31.16a2 2 0 0 1 -1 .19c-2.61.07-2.62 4.13 0 4.06a6.79 6.79 0 0 0 6.68-6.72c0-1.85 0-3.7 0-5.54 0-2.41 0-4.69-1.81-6.6a6.84 6.84 0 0 0 -4.87-2.11h-1.72c-1.92 0-3.84 0-5.76 0a6.78 6.78 0 0 0 -6.78 6.22c-.14 1.69 0 3.41 0 5.1 0 2.15-.23 4.4.91 6.34a6.78 6.78 0 0 0 5.23 3.34 22.06 22.06 0 0 0 2.3 0h5.88c2.56 0 2.56-4.07-.05-4.07z" fill="#18c4ff"/><path d="m363.02 517.05h265.09v16.91h-265.09z"/><path d="m628.11 531.93h-254.33c-3.42 0-6.89-.17-10.31 0-.15 0-.3 0-.45 0l2 2v-16.88l-2 2h254.33c3.42 0 6.89.17 10.31 0h.45l-2-2v16.95c0 2.62 4.06 2.62 4.06 0v-16.95a2.06 2.06 0 0 0 -2-2h-254.39c-3.43 0-6.87-.07-10.31 0h-.47a2.06 2.06 0 0 0 -2 2v16.95a2.06 2.06 0 0 0 2 2h254.35c3.43 0 6.87.07 10.31 0h.45c2.61 0 2.62-4.07 0-4.07z"/><path d="m160.54 195c-23.82 8.15-46.39 21.8-61.32 42.07s-21.22 47.74-12.67 71.41c8.46 23.38 30.54 40.41 54.75 46s50.07.81 72.47-10c2.73-1.31 5.66-2.75 8.64-2.23s5.17 2.77 7.34 4.8a75.59 75.59 0 0 0 38.41 19.21 167.85 167.85 0 0 1 -27.82-34.56c26.7-11.32 49.41-33.75 57.08-61.72s-1.8-60.89-25.57-77.5c-23.06-16.11-50.7-14.34-78.17-8.23-8.34 1.86-25.78 6.34-33.14 10.68" fill="#18c4ff"/><path d="m160.31 194.15c-22.25 7.53-43.56 19.73-58.69 38-15 18.06-23.19 42.27-19.21 65.69 3.74 22 19 40.21 38.48 50.48 22 11.64 48.05 12.27 71.74 5.69a132.66 132.66 0 0 0 18.23-6.6c3-1.31 6-3.31 9.25-3.75s5.61 1.6 7.8 3.64a79.54 79.54 0 0 0 31 18.24 75.26 75.26 0 0 0 8.87 2.12c1.27.22 2.41-1.28 1.34-2.3a167.48 167.48 0 0 1 -27.64-34.27l-.48 1.83a105.88 105.88 0 0 0 44.7-35.48c10.94-15.37 16.83-34 15.4-52.89-1.37-18.08-9-36-22.53-48.28a67.29 67.29 0 0 0 -26.83-14.62c-10.23-2.89-21-3.46-31.57-2.72a188 188 0 0 0 -30.46 5 159.43 159.43 0 0 0 -25.13 7.75 40.09 40.09 0 0 0 -4.65 2.29 1.2 1.2 0 0 0 1.21 2.08 55.63 55.63 0 0 1 10.45-4.37c4.24-1.42 8.55-2.64 12.88-3.78a217.12 217.12 0 0 1 27.41-5.56c10.32-1.33 20.89-1.7 31.18 0a68.41 68.41 0 0 1 28.7 11.72c14.45 10.36 23.26 27.08 26 44.42a77 77 0 0 1 -10.68 52c-9.73 16-24.45 28.8-41.15 37.18-2.07 1-4.18 2-6.31 2.91a1.36 1.36 0 0 0 -.48 1.83 171.8 171.8 0 0 0 28 34.87l1.33-2.3a75.13 75.13 0 0 1 -32.76-14.55c-2.26-1.77-4.34-3.72-6.46-5.65s-4.43-3.66-7.34-3.94c-3.24-.31-6.25 1.23-9.08 2.58s-5.82 2.67-8.8 3.83c-23 9-49.24 11.65-72.68 2.82-19.71-7.42-37.09-22.87-44-43.1-7.57-22.19-2.07-47.23 10.73-66.37 13-19.43 33.3-33.14 54.71-41.81 2.61-1.06 5.26-2 7.92-3 1.06-.36.61-2.05-.47-1.69z" fill="#18c4ff"/><path d="m583.63 124.64-153.47-4.52c-21.44-.64-45.65-.19-60.43 15.34-10.29 10.82-13.37 26.5-14.93 41.34a315.65 315.65 0 0 0 8.69 113.39c1.85 7 4 14.13 8.41 19.9 7.45 9.83 20 14.19 31.94 17.19a266 266 0 0 0 62.05 8l5.77 31.09 8.3-25.66c.51-1.61 1.15-3.36 2.64-4.16a6.71 6.71 0 0 1 3.24-.53l57.08.38c9.59.07 19.31.11 28.59-2.3 17-4.43 31.18-17 40.56-31.86s14.5-32.08 18.27-49.28c4.49-20.51 6.86-41.4 8.63-62.3 1.4-16.45 4.07-36.42-8.42-49.55-11.63-12.23-31-14.63-46.92-16.43"/><path d="m583.63 123.9q-54.64-1.83-109.3-3.58c-17.43-.56-34.88-1.43-52.32-1.59-13.45-.12-27.5.68-39.91 6.38a42.86 42.86 0 0 0 -15.94 12.48 54.56 54.56 0 0 0 -9.16 19.07 128.19 128.19 0 0 0 -3.7 21.76c-.86 8.62-1.37 17.29-1.51 26a317.69 317.69 0 0 0 3.44 52.2q1.9 12.87 4.88 25.55c1.81 7.73 3.6 15.73 7.13 22.89 6.61 13.4 20.4 19.36 34.12 23a262.11 262.11 0 0 0 51.33 8.1q6.58.39 13.19.45l-1.27-1 5.77 31.1c.25 1.36 2.18 1.14 2.55 0l6.9-21.39c.53-1.61 1-3.24 1.57-4.84s1.22-2.91 3-3.12a38.76 38.76 0 0 1 4.82 0h6.22l44.64.29c13.55.09 27.26.27 39.94-5.16 10.7-4.58 19.93-12.25 27.19-21.28 16.8-20.91 23.16-48.47 27.51-74.36 2.43-14.49 4-29.1 5.3-43.73 1-11.12 2.44-22.49.57-33.6a38.31 38.31 0 0 0 -5.65-15 36.83 36.83 0 0 0 -11.79-10.94c-9.5-5.7-20.82-7.94-31.68-9.28-2.61-.32-5.23-.57-7.85-.86-1.47-.17-1.46 2.14 0 2.3 20.53 2.34 46.92 6.39 53.47 29.59 3 10.51 1.8 21.73.85 32.45-1.25 14.13-2.58 28.26-4.72 42.29a292.82 292.82 0 0 1 -8.8 40.71c-3.74 12.4-8.84 24.54-16.43 35.11-6.71 9.34-15.42 17.44-25.71 22.65a57.81 57.81 0 0 1 -17.49 5.51c-7.06 1-14.23 1-21.34 1l-44.05-.3-10.74-.07c-2.95 0-6.36-.51-8.36 2.13-1.74 2.29-2.31 5.63-3.18 8.31l-3.46 10.69q-1.66 5.1-3.27 10.19h2.55l-5.77-31.09a1.34 1.34 0 0 0 -1.28-1 265.46 265.46 0 0 1 -52.05-5.69c-13.55-2.87-29.26-6.12-39.06-16.75-5.19-5.63-7.67-13-9.64-20.24-2.21-8.14-4.05-16.38-5.58-24.67a315 315 0 0 1 -5.11-50.81q-.24-12.73.54-25.46a219 219 0 0 1 2.49-23.56c2.38-13.73 7.52-27.58 19.52-35.73 11.09-7.51 24.94-9.34 38-9.73 7.49-.22 15 .06 22.46.26l26.62.72q53.24 1.44 106.47 2.81l13 .33a.74.74 0 0 0 0-1.48z"/><path d="m812.52 220a139.71 139.71 0 0 0 -68.47-7.66c-19.45 2.66-41.22 9.26-53.56 25.66a36.57 36.57 0 0 0 -7.43 22.68c.12 7.6 2.56 15.36 7.77 21a24.31 24.31 0 0 0 9.37 6.27c4.41 1.66 10 1.4 13.29-2.37 5.21-5.92.28-15.13-6.29-17.44-4.82-1.7-10.25-.25-14.59 2.09a40.69 40.69 0 0 0 -11.7 9.92c-6.31 7.62-10.45 17.28-10.45 27.26a32.94 32.94 0 0 0 11.33 24.9c6.85 5.95 16.62 9.35 25.57 6.61 4.62-1.41 8.9-4.92 9.12-10.07a8.29 8.29 0 0 0 -2.57-6.52 9.91 9.91 0 0 0 -5.23-2.17c-10.26-1.48-19.89 4.76-24.35 13.82-8.14 16.54-.49 39.5 16.16 47.58a27.23 27.23 0 0 0 15.31 2.55 28.79 28.79 0 0 0 7.92-2.19 10.83 10.83 0 0 0 4.76-3.55c3.92-5.5 0-14.07-6.62-14.9-4.37-.55-8.7 2.42-10.94 6a16.79 16.79 0 0 0 -1.92 12.11 19.43 19.43 0 0 0 6.5 11.06 21.89 21.89 0 0 0 13.5 4.75 27.79 27.79 0 0 0 14-3.54l-2.12-2.11a100.74 100.74 0 0 1 -31.13 39.26c-1.28 1-.61 3.23 1.16 2.76a78.23 78.23 0 0 0 41.45-27.64 75.14 75.14 0 0 0 7.64-12.12h-2.45c7.14 11.11 21.61 15.29 34.12 12.57 13.93-3 25.54-14 32.57-26 3.58-6.12 5.7-14.58-.21-20.11a8 8 0 0 0 -8.2-1.89 8 8 0 0 0 -5.18 7c-.06 3 1.84 5.69 4 7.6a19.22 19.22 0 0 0 8.51 4.38 41.37 41.37 0 0 0 18.75-.12c12.22-2.85 23.43-10.95 29.34-22.1 5.17-9.77 6-23-.67-32.29-3.14-4.4-8.13-7.69-13.64-8a6.67 6.67 0 0 0 -6.89 5.42c-.57 3.61 2.5 5.95 5.46 7.23 6.2 2.69 13.2 1.34 19-1.8a35.9 35.9 0 0 0 14.27-15.1 44.23 44.23 0 0 0 0-41.25 45.25 45.25 0 0 0 -13.29-15.1 42.55 42.55 0 0 0 -8.93-4.94c-3.51-1.44-7.29-2.4-11-1.18-4.89 1.6-7.16 6.34-5.79 11.22a11.8 11.8 0 0 0 11 8.77c7 .23 13.37-4.78 17-10.4a29.85 29.85 0 0 0 4.64-15c.47-10.51-4-21.61-12.23-28.31-4.25-3.45-9.79-6.1-15.36-6.17-6-.08-12.16 4.25-11.08 10.79a12.64 12.64 0 0 0 9.89 9.91c5.92 1 11.09-3.39 13.29-8.57a19.33 19.33 0 0 0 -2-18.22c-4-6.16-10.29-10.52-16.68-13.89a76.26 76.26 0 0 0 -45.71-8.11c-12.93 1.76-26 7.87-33.87 18.59a28.73 28.73 0 0 0 -5.75 17.51 27.67 27.67 0 0 0 7.32 17.72 26.14 26.14 0 0 0 35.06 4.11 27.62 27.62 0 0 0 10.9-14.69c.43-1.41-1.77-2-2.2-.61-3.36 11-15.43 18.67-26.83 17.21s-20.8-12-21.24-23.39c-.44-11.57 7.63-21 17.09-26.65 11.13-6.61 24.39-8.4 37.13-7.11a73.65 73.65 0 0 1 20.19 5 58 58 0 0 1 17.19 10.29c4.35 4 8 9.28 7.85 15.38-.13 4.82-2.64 10.28-7.44 12-4.13 1.51-8.39-.95-10.39-4.63a6.54 6.54 0 0 1 -.57-5.5c1-2.45 3.85-3.83 6.35-4.13 4.82-.56 10.09 1.81 13.9 4.61a29.47 29.47 0 0 1 8.6 10.43c4.08 8 5 18.19 1.17 26.49-2.33 5-6.46 9.7-11.83 11.52-2.56.87-5.67 1.15-8.14-.16a9.07 9.07 0 0 1 -3.76-3.92c-1.71-3.28-1.29-7.49 2.44-9.06 3.16-1.32 6.43-.41 9.46.78a39.44 39.44 0 0 1 8 4.31 41.15 41.15 0 0 1 17.59 30.3c.91 12.45-3.9 26.35-14.08 34.06-4.53 3.44-10.42 5.95-16.2 5.14a14.25 14.25 0 0 1 -3.94-1.14c-1.21-.55-2.77-1.33-3.36-2.61a3 3 0 0 1 1.09-3.44 4.66 4.66 0 0 1 3.85-.62c9.89 1.83 14.29 12.06 14.29 21.22 0 10.78-6 20.61-14.37 27.14-8.65 6.79-20.15 10.37-31.12 8.8a20.85 20.85 0 0 1 -8.14-2.63c-2.21-1.37-4.61-3.49-5.18-6.14a5 5 0 0 1 3.59-5.53c2.92-.84 5.39 1.37 6.69 3.76 3.28 6.06-.93 13-4.36 18a58.22 58.22 0 0 1 -13.11 13.83 40.24 40.24 0 0 1 -16.81 7.53 32.58 32.58 0 0 1 -16.88-1.6 25.53 25.53 0 0 1 -12.69-10 1.43 1.43 0 0 0 -2.45 0 75.76 75.76 0 0 1 -34.57 33.61 72.28 72.28 0 0 1 -12.93 4.74l1.16 2.76a103.45 103.45 0 0 0 32.22-40.33 1.56 1.56 0 0 0 -2.11-2.11c-7.39 4.09-17.9 4.73-24.46-1.37-5.23-4.86-7.57-14.41-2.34-20.16 2.1-2.31 5.66-4.2 8.71-2.61a7.13 7.13 0 0 1 3.68 5.89c.15 3.35-2.14 5.23-5 6.42a24.81 24.81 0 0 1 -14.24 1.46c-16.67-3.38-26.2-22.86-23-38.67 1.64-8.06 7-15.76 15.12-18.32a19 19 0 0 1 7.34-.81 8.06 8.06 0 0 1 4.67 1.54 5.71 5.71 0 0 1 1.24 6 8.51 8.51 0 0 1 -4.21 4.49c-7.19 3.84-16.49 1.28-22.77-3.13a30 30 0 0 1 -12.49-20.48c-1.1-8.81 1.54-17.73 6.3-25.12a44.93 44.93 0 0 1 8.89-10.07c3.58-3 8-5.64 12.8-6a10.2 10.2 0 0 1 9.22 3.94c1.69 2.27 2.76 5.56 1.42 8.25-1.95 3.92-7.08 4.3-10.77 3a21.34 21.34 0 0 1 -8.26-5.24c-9.68-9.85-9.53-26.76-2.51-38 9.61-15.38 28.06-22.54 45-26.17a136.62 136.62 0 0 1 76.29 5.61c1.07.4 1.52-1.29.47-1.69z" fill="#18c4ff"/><g fill="#fff"><path d="m84.39 726.48a16.41 16.41 0 0 1 12.73-.65c3.8 1.39 6.59 4.71 10.63 5.56 6.41 1.36 12.4-2.84 17.9-5.46 2.85-1.37 5.95-2.59 9.17-2.46s6.12 1.92 8.49 4.08c4.62 4.21 8.47 10.14 15 11.5 7.12 1.5 13.84-2.48 20.54-4.16 3.28-.82 6.81-1.1 9.94.42a23.73 23.73 0 0 1 6.86 5.72c3.64 4 7.5 9.35 13.41 9.66 4.05.22 7.22-2.48 10.9-3.66a19.41 19.41 0 0 1 10.42-.33 20 20 0 0 1 9.22 4.95c2.54 2.45 4 5.69 6.09 8.46a11.39 11.39 0 0 0 3.49 3.21 9.72 9.72 0 0 0 5.63.87 9.55 9.55 0 0 1 9.32 4.57 9.7 9.7 0 0 1 1.38 5 1.17 1.17 0 0 0 2.34 0 11.35 11.35 0 0 0 -4.37-9.47 11.75 11.75 0 0 0 -4.7-2.37c-2.1-.48-4.12 0-6.22-.11-3.67-.28-5.64-4.14-7.36-6.9a23.32 23.32 0 0 0 -7.21-7.61 22.36 22.36 0 0 0 -20.59-1.85c-3.4 1.47-6.59 3.77-10.42 2.43-2.7-.94-4.82-3.18-6.72-5.23-4.24-4.57-8.37-9.92-15-10.58-7.35-.73-14 3.78-21.05 4.94a13.43 13.43 0 0 1 -9.79-1.94c-2.76-1.83-5-4.4-7.25-6.75s-4.67-4.6-7.68-5.87a14 14 0 0 0 -9.29-.4c-6.46 1.78-11.87 6.84-18.59 7.68a10.42 10.42 0 0 1 -4.64-.43c-2.07-.7-3.8-2.11-5.63-3.25a17.83 17.83 0 0 0 -17.63-.81c-.85.43-.1 1.69.75 1.28z"/><path d="m734.6 784.19c2.82-5.87 5.68-12.61 11.58-16 3.52-2 7.47-2 11.41-2.12s7.53-.37 11-2.12c6.67-3.38 10.74-10.21 17.37-13.67 3.53-1.84 7.3-2.29 10.92-.45 3 1.51 5.84 3.34 9.34 2.64 6.11-1.22 9-8.14 13.08-12.07a21 21 0 0 1 19.55-5c6.66 1.71 14 6.31 21 3.42 6.38-2.63 8-10 13-14.18a16.73 16.73 0 0 1 9.18-3.72 18.58 18.58 0 0 1 10 2.23c3.29 1.6 6.36 2.74 10.06 2.14 3.12-.51 6.14-2 9.32-2.13a4.23 4.23 0 0 1 3.51 1.33c1.11 1.18 2.83-.57 1.77-1.76-4.79-5.37-12.24.82-18 .13-3.72-.45-6.83-3.06-10.43-4a19.31 19.31 0 0 0 -10 .14 18.84 18.84 0 0 0 -8.71 5.21c-2.3 2.47-3.82 5.52-5.83 8.21-2.14 2.85-5 4.79-8.62 4.8s-7.39-1.5-10.87-2.72a31.63 31.63 0 0 0 -10.93-2.23 23.42 23.42 0 0 0 -17.95 8.95c-2 2.5-3.83 5.31-6.36 7.33a7.58 7.58 0 0 1 -3.84 1.74 8.92 8.92 0 0 1 -5-1.35 24.67 24.67 0 0 0 -4.9-2.25 12.32 12.32 0 0 0 -5.37-.19c-7.83 1.34-12.65 8.22-18.43 12.93a18.62 18.62 0 0 1 -10.7 4.38c-4.07.3-8.27-.08-12.21 1.21-6.53 2.14-10.48 8.19-13.29 14.1-.72 1.5-1.36 3-2 4.57-.29.77 1 1.3 1.34.56z"/><path d="m209.71 305a72.68 72.68 0 0 1 -53.77-18.34c-3.69-3.35-7.11-7.19-8.92-11.83s-1.78-10.23 1-14.33c2-2.91 5.17-4.81 8.43-6.17 9.61-4 21.74-3.5 29.25 3.69a2.17 2.17 0 0 1 -.95 3 5.71 5.71 0 0 1 -1.88-3.42c-2.41-9.36-1.22-20.12 5.16-27.38s18.56-9.5 26-3.31c5.29 4.41 7.13 11.67 8 18.5a104 104 0 0 1 -10 58.9"/><path d="m209.71 304.15a72.85 72.85 0 0 1 -48-14.27c-6.51-4.88-14-11.62-14.65-20.29a12.55 12.55 0 0 1 4.55-11.06 26 26 0 0 1 10.86-4.71 28.53 28.53 0 0 1 12.64.05 22.67 22.67 0 0 1 5.85 2.29 18.92 18.92 0 0 1 2.68 1.83c.62.52 1.5 1.22.43 1.79l1.69.22c-1.6-1.27-1.84-3.91-2.16-5.8a34.05 34.05 0 0 1 -.45-6.53 27.66 27.66 0 0 1 3-12.27 19.72 19.72 0 0 1 19.14-10.62 14.53 14.53 0 0 1 9.91 5.22c2.74 3.3 4.06 7.59 4.86 11.73a93.89 93.89 0 0 1 .53 29.41 102.25 102.25 0 0 1 -9.8 32.4c-.81 1.64 1.65 3.09 2.47 1.44a105.26 105.26 0 0 0 9.82-31.25 98.78 98.78 0 0 0 -.22-32.37c-.86-4.61-2.37-9.21-5.31-12.92a17.09 17.09 0 0 0 -10.69-6.31 22.36 22.36 0 0 0 -21.94 9.87 29.68 29.68 0 0 0 -4.52 14.86 37.33 37.33 0 0 0 .53 8c.41 2.4.86 5.43 2.88 7a1.47 1.47 0 0 0 1.7.22 3.6 3.6 0 0 0 1.45-4.93 9.77 9.77 0 0 0 -2.31-2 21 21 0 0 0 -2.72-1.75 27.32 27.32 0 0 0 -12.41-3.05 33.38 33.38 0 0 0 -12.69 2.31c-4.25 1.67-8.53 4.19-10.67 8.4-4.61 9.06 1 18.76 7.56 25a72.94 72.94 0 0 0 56 19.57c1-.09 1-1.67 0-1.61z"/></g><circle cx="500" cy="223.99" fill="#18c4ff" r="55.35"/><g fill="#fff"><path d="m152.86 231.24 2.47 4a.78.78 0 0 0 1 .28.77.77 0 0 0 .27-1l-2.52-4a.73.73 0 0 0 -1.26.74z"/><path d="m166.89 220 1.48 6.06a.76.76 0 0 0 1.46-.41l-1.53-6a.73.73 0 0 0 -1.41.38z"/><path d="m185.49 212.49c-.18.59-.38 1.17-.55 1.75s-.33 1.18-.49 1.77a.79.79 0 1 0 1.53.42c.17-.59.35-1.17.51-1.76s.29-1.19.43-1.78a.74.74 0 0 0 -1.43-.4z"/><path d="m125.82 259.49a9.17 9.17 0 0 0 -.76 1.83c-.21.54-.52 1-.71 1.58a40.22 40.22 0 0 0 -1.16 3.88 7.92 7.92 0 0 0 1.13 5.87 5.49 5.49 0 0 0 9.32-.06c.78-1.22 1.44-3.89-.28-4.69-2-.94-3.38 2.07-3.81 3.55a10.93 10.93 0 0 0 15.45 13.12c1.15-.57.14-2.26-1-1.72a9.16 9.16 0 0 1 -10.11-1.67 8.93 8.93 0 0 1 -1.74-9.94c.12-.26.63-.94.6-1.22-.36-.34-.49-.31-.42.09a2.86 2.86 0 0 1 -.13.58 3.4 3.4 0 0 1 -1.55 1.77 2.9 2.9 0 0 1 -3.94-.82 7.19 7.19 0 0 1 -.85-5.24 33.26 33.26 0 0 1 1-3.27 12.64 12.64 0 0 0 .83-3.15 1 1 0 0 0 -1.8-.49z"/><path d="m247.14 221.16c1.46-1.14 3.31.15 4.1 1.43a11.78 11.78 0 0 1 1.4 4.29 18.84 18.84 0 0 1 -.61 8.34 19.47 19.47 0 0 1 -10.54 12.24l1.52 1.17c.45-1.38 2.12-1.76 3.38-2 .77-.13 2-.44 2.54.19a3.13 3.13 0 0 1 .51 2.16 15.14 15.14 0 0 1 -4 9.81c-.92 1 .59 2.54 1.51 1.51a17.78 17.78 0 0 0 3.84-6.69c.66-2.16 1.22-5 .3-7.19s-3.32-2.19-5.43-1.77-4 1.32-4.67 3.42c-.3.94.76 1.51 1.53 1.17a21.52 21.52 0 0 0 11.94-15.81 19.38 19.38 0 0 0 -.8-10.18c-1.2-3.09-4.66-5.9-7.81-3.37-.91.72.37 2 1.27 1.27z"/><path d="m246.72 280.64a.94.94 0 0 0 0-1.88.94.94 0 0 0 0 1.88z"/><path d="m162.16 319.56 1.54-1.23c.51-.41 1-.85 1.49-1.28a.81.81 0 0 0 0-1.14.83.83 0 0 0 -.57-.23.93.93 0 0 0 -.57.23c-.51.41-1 .81-1.53 1.24l-1.52 1.29a.79.79 0 0 0 0 1.12.84.84 0 0 0 .56.24.92.92 0 0 0 .56-.24z"/><path d="m176.46 326 3-5a.89.89 0 1 0 -1.53-.9l-3 5a.9.9 0 0 0 .32 1.22.91.91 0 0 0 1.21-.32z"/></g><path d="m769 278.67a99.91 99.91 0 0 1 42-24.87c3-.89 6.77-1.48 9 .79 3 3 .52 8.14-2.22 11.41a86.21 86.21 0 0 1 -15.6 14.45c-.45-1.6 1.19-3 2.7-3.68a21.89 21.89 0 0 1 23.54 3.7c2.16 2 4 4.85 3.4 7.73s-4.77 4.73-6.64 2.46c2.07-2.07 5.57.35 6.85 3 1.68 3.45 2.07 7.71.21 11.07s-6.3 5.31-9.79 3.7c3.36-1.84 8 .31 9.37 3.89s-.14 7.83-3 10.36a16 16 0 0 1 -10.66 3.52c.31-2.27 3.36-3.42 5.36-2.31s2.8 3.75 2.28 6a10.68 10.68 0 0 1 -3.83 5.56c-5 4.17-11.58 5.87-18 6.47a65.65 65.65 0 0 1 -42.8-11.14" fill="#18c4ff"/><path d="m769.54 279.25a103.77 103.77 0 0 1 29.15-19.59c2.7-1.21 5.46-2.29 8.26-3.24a32 32 0 0 1 8-2.09c2.49-.16 5.06.83 5.12 3.68.05 2.52-1.55 5.06-3.08 6.93a82 82 0 0 1 -15.46 14.37l1.93.79c-.29-1.56 2.82-2.54 3.86-2.88a19.63 19.63 0 0 1 5.09-1 21 21 0 0 1 10.32 2c3.09 1.49 6.65 4 7.67 7.45a3.48 3.48 0 0 1 -1.1 4 2.32 2.32 0 0 1 -3.16 0v1.88c1.48-1.32 3.7.94 4.44 2.13a11.59 11.59 0 0 1 1.52 7.1c-.45 4.06-4.63 8.27-8.95 6.42v2.31a5.37 5.37 0 0 1 5.82 1 6.33 6.33 0 0 1 1.82 6.44c-1.4 5.65-7.36 7.82-12.62 7.86l1.29 1.7c.38-2 3-2.26 4.18-.89 1.62 1.8 1 4.46-.22 6.28-2.88 4.25-8.46 6.46-13.26 7.6-10.4 2.47-21.81 1.39-31.91-1.87a64.23 64.23 0 0 1 -16.43-8.08c-1.43-1-2.78 1.35-1.36 2.32a67.34 67.34 0 0 0 36.25 11.58c6.2.13 12.7-.45 18.53-2.69 5-1.92 11.75-5.88 12.06-12 .14-2.75-1.4-5.85-4.24-6.57-2.58-.65-5.66.85-6.19 3.58a1.36 1.36 0 0 0 1.3 1.69c6.94-.05 14.57-3.61 15.45-11.27a8.71 8.71 0 0 0 -3.4-8.11 8 8 0 0 0 -8.42-.88 1.34 1.34 0 0 0 0 2.31 8.83 8.83 0 0 0 8.63-1 10.51 10.51 0 0 0 4.37-8.16 13.3 13.3 0 0 0 -3-9.41c-1.94-2.17-5.18-3.48-7.59-1.3a1.34 1.34 0 0 0 0 1.88c2.15 2.37 5.86 1.43 7.73-.81 2.59-3.12.85-7.39-1.48-10.09-5-5.74-13.34-8-20.66-6.83-3.41.56-9.8 2.34-8.92 6.93a1.32 1.32 0 0 0 1.93.79 88.23 88.23 0 0 0 15.43-14.16c3.19-3.73 7.2-11 1.59-14.62-2.29-1.49-5.26-1.23-7.8-.63a69.43 69.43 0 0 0 -9.29 3.12 98 98 0 0 0 -34.36 22.79.82.82 0 0 0 1.15 1.16z" fill="#18c4ff"/><path d="m758.4 273.37a67.14 67.14 0 0 0 -14.09-.83 5.14 5.14 0 0 0 -2.13.43c-1.43.75-1.83 2.58-2.08 4.17q-3.45 22.69-6 45.5c-.29 2.57-.45 5.52 1.34 7.37a8.33 8.33 0 0 0 3.45 1.86c6.24 2.09 13.1 3.19 19.38 1.2a4.12 4.12 0 0 0 2.16-1.28 4.51 4.51 0 0 0 .65-2.11l6.3-46.35c.3-2.21.59-4.52-.2-6.6s-3.07-3.77-5.19-3.12"/><path d="m758.59 272.68a61 61 0 0 0 -8.92-1.15c-1.46-.08-2.92-.12-4.39-.11a7.53 7.53 0 0 0 -3.84.63c-2 1.19-2.33 3.64-2.66 5.75q-.72 4.62-1.39 9.27c-1.76 12-3.49 24.05-4.72 36.13-.23 2.21-.26 4.66.92 6.64 1.32 2.22 3.85 3 6.19 3.75a34.26 34.26 0 0 0 16.22 1.47c2.33-.43 5.19-1.05 6.08-3.55a20 20 0 0 0 .66-3.92l.64-4.68 2.55-18.48q1.44-10.35 2.86-20.71c.37-2.7.91-6.13-.74-8.54-1.4-2.06-3.94-3.68-6.46-2.85a1.32 1.32 0 0 0 .71 2.55c2.25-.37 3.47 1.88 3.76 3.76.38 2.4-.27 5-.58 7.4l-2.15 16-2.11 15.79-1.09 8.17c-.17 1.23-.29 2.47-.5 3.7s-.76 1.73-2 2.11c-4.72 1.46-9.79 1.07-14.53-.1-2-.49-4.82-1-6.47-2.36s-1.5-3.69-1.35-5.57c.41-5.2 1.17-10.4 1.81-15.57q1-8 2.08-16.06c.4-2.93.81-5.87 1.24-8.8.21-1.47.42-2.93.64-4.4a17 17 0 0 1 .68-3.54c.54-1.46 1.6-1.68 3.06-1.77s3.08-.15 4.63-.14a79.18 79.18 0 0 1 9 .61c.8.09 1-1.25.19-1.41z"/><ellipse cx="481.3" cy="214.85" rx="4.53" ry="8.44"/><path d="m483.8 214.85a12.21 12.21 0 0 1 -.66 4.06 6.71 6.71 0 0 1 -.65 1.33c-.06.09-.43.57-.21.31-.08.1-.17.19-.25.28s-.48.39-.13.14c-.12.09-.66.34-.23.18-.14.06-.69.3-.21.1a1.92 1.92 0 0 1 -.24 0c-.27 0 .34.1.08 0l-.3-.08c-.11 0 .16.2 0 0a1.92 1.92 0 0 0 -.28-.18c.31.22.06.05 0 0s-.52-.57-.3-.3a7 7 0 0 1 -.83-1.44 12.45 12.45 0 0 1 -.3-7.85 6.18 6.18 0 0 1 .58-1.46 6.52 6.52 0 0 1 .43-.72c0-.05.25-.29 0-.05.1-.12.21-.23.32-.34s.33-.28.13-.13.09 0 .14-.08c.4-.27-.2 0 .24-.12s-.2 0 .15 0 0 0-.08 0l.45.13c-.5-.18.32.26.16.13s.09.09.13.13.22.22.32.34c-.21-.24 0 0 0 .05s.19.29.27.44a5.61 5.61 0 0 1 .45.88 12.42 12.42 0 0 1 .76 4.34c0 2.61 4.09 2.62 4.06 0 0-3.44-.93-7.73-4.05-9.73s-6.32.28-7.67 3.13a16.06 16.06 0 0 0 -.64 11.63c1 3 3.59 6.36 7.18 5.22 4-1.29 5.15-6.61 5.18-10.25.09-2.71-3.97-2.71-4-.09z"/><ellipse cx="518.7" cy="214.85" rx="4.53" ry="8.44"/><path d="m521.2 214.85a12.21 12.21 0 0 1 -.66 4.06 6.71 6.71 0 0 1 -.65 1.33c-.06.09-.43.57-.21.31-.08.1-.17.19-.25.28s-.48.39-.13.14c-.12.09-.66.34-.23.18-.14.06-.69.3-.21.1a1.92 1.92 0 0 1 -.24 0c-.27 0 .34.1.08 0l-.3-.08c-.11 0 .16.2 0 0a1.92 1.92 0 0 0 -.28-.18c.31.22.06.05 0 0s-.52-.57-.3-.3a7 7 0 0 1 -.83-1.44 12.45 12.45 0 0 1 -.3-7.85 6.18 6.18 0 0 1 .58-1.46 6.52 6.52 0 0 1 .43-.72c0-.05.25-.29 0-.05.1-.12.21-.23.32-.34s.33-.28.13-.13.09 0 .14-.08c.4-.27-.2 0 .24-.12s-.2 0 .15 0 0 0-.08 0l.45.13c-.5-.18.32.26.16.13s.09.09.13.13.22.22.32.34c-.21-.24 0 0 0 .05s.19.29.27.44a5.61 5.61 0 0 1 .45.88 12.42 12.42 0 0 1 .76 4.34c0 2.61 4.09 2.62 4.06 0 0-3.44-.93-7.73-4-9.73s-6.31.28-7.67 3.13a16.06 16.06 0 0 0 -.64 11.63c1 3 3.59 6.36 7.18 5.22 4-1.29 5.15-6.61 5.18-10.25.04-2.71-4.02-2.71-4.05-.09z"/><path d="m480.48 238.91a36.39 36.39 0 0 0 19.6 6.52 36 36 0 0 0 10.48-1.23 34.38 34.38 0 0 0 4.82-1.68c1.52-.66 3.64-1.41 4.7-2.72a1.46 1.46 0 0 0 -1.4-2.41c-1.58.32-3.08 1.49-4.57 2.11a38.53 38.53 0 0 1 -4.42 1.54 39 39 0 0 1 -9.61 1.35 36.14 36.14 0 0 1 -18.86-4.74c-.82-.48-1.5.73-.74 1.26z"/><path d="m478.69 239.62a2.39 2.39 0 0 0 .52-.22l.33-.22a8.59 8.59 0 0 0 .76-.59 8 8 0 0 0 1.19-1.34.84.84 0 0 0 .08-.66.86.86 0 0 0 -.39-.51.87.87 0 0 0 -1.17.31c-.12.19-.25.37-.39.55l.13-.17a6.9 6.9 0 0 1 -1.29 1.3l.16-.13c-.21.17-.42.32-.61.5a.73.73 0 0 0 -.12.86.72.72 0 0 0 .8.32z"/><path d="m518.32 236.81a9 9 0 0 0 1.06 3.72.89.89 0 1 0 1.54-.9 5.62 5.62 0 0 1 -.45-.74c-.07-.12-.13-.24-.19-.36a1.89 1.89 0 0 1 -.09-.21 7.91 7.91 0 0 1 -.45-1.65.71.71 0 0 0 -1.4.19z"/><path d="m476.75 197.87a12.85 12.85 0 0 1 1.58-1.55 6.57 6.57 0 0 1 2-.95 7 7 0 0 1 4.29 0 1 1 0 0 0 .55-2 7.57 7.57 0 0 0 -5.48.08c-1.65.67-3.5 1.93-4.14 3.67-.26.71.73 1.2 1.22.71z"/><path d="m514.71 197a12.81 12.81 0 0 1 4.57-1.5 4.93 4.93 0 0 1 1.91.25 4.84 4.84 0 0 1 1.47.95 1.22 1.22 0 0 0 1.91-1.47c-1-1.64-3.27-2.18-5.09-1.95a12.87 12.87 0 0 0 -5.48 2.51.7.7 0 0 0 .71 1.21z"/><g fill="#fff"><path d="m803.76 275.4a22.2 22.2 0 0 1 3.61-.64 9.62 9.62 0 0 1 1.78 0 17.43 17.43 0 0 1 1.73.42.94.94 0 0 0 .72-1.72 5.84 5.84 0 0 0 -2.19-.5 10 10 0 0 0 -2 .07 25.79 25.79 0 0 0 -4.07.93.74.74 0 0 0 .39 1.43z"/><path d="m825.43 288.18a2.39 2.39 0 0 0 .16 1.12 8.28 8.28 0 0 1 .16.84v-.23a7.47 7.47 0 0 1 0 1.25.85.85 0 0 0 .84.85.88.88 0 0 0 .6-.25 1 1 0 0 0 .25-.6 5.71 5.71 0 0 0 -.1-1.7 3.12 3.12 0 0 0 -.21-.72 1.72 1.72 0 0 0 -.64-1 .73.73 0 0 0 -1.07.43z"/><path d="m824.75 304.26v.2a.34.34 0 0 0 0 .1c0-.12 0-.14 0-.05s0 .23-.07.34-.12.51-.2.76l-.06.17c0 .07-.14.26 0 0-.07.11-.11.23-.17.34a5.83 5.83 0 0 1 -.39.69.86.86 0 0 0 1.35 1 4.22 4.22 0 0 0 .57-.83 6.76 6.76 0 0 0 .36-1 4.18 4.18 0 0 0 .16-1 6.89 6.89 0 0 0 -.09-1 .73.73 0 0 0 -.8-.52.74.74 0 0 0 -.64.72z"/><path d="m820 322.27c0 .08 0 .06 0 0s0 .06 0 .09v.18l-.09.37-.12.36a.36.36 0 0 0 0 .09q0 .12 0-.06a.65.65 0 0 0 -.08.17 3.86 3.86 0 0 1 -.39.65l-.11.16c.15-.23 0-.05 0 0a3.47 3.47 0 0 1 -.25.29 1 1 0 0 0 -.26.63.92.92 0 0 0 .26.63.91.91 0 0 0 1.26 0 5.42 5.42 0 0 0 1.28-3.51.72.72 0 0 0 -.72-.72.74.74 0 0 0 -.51.21.8.8 0 0 0 -.21.51z"/></g><g fill="#18c4ff"><path d="m423.15 160.71a38.47 38.47 0 0 0 -15.62 16.19c-3.1 6.1-6.71 16.58-.3 21.83 3.24 2.66 7.33 1.73 10.54-.49a8 8 0 0 0 3.43-4.1 3.06 3.06 0 0 0 -1.76-3.76c-3.25-1.31-6.92 1.47-8.75 3.9a20.92 20.92 0 0 0 -3.69 10.66 18.52 18.52 0 0 0 3.34 13.14 13.32 13.32 0 0 0 10.66 5.47 1.05 1.05 0 0 0 0-2.1c-6.74-.24-11.29-6.36-11.81-12.68-.45-5.37 1.13-13.8 6.85-16.07.93-.37 3.48-1 3.07.86-.37 1.64-2.33 2.84-3.68 3.6-2.94 1.65-6.2 1.4-8.19-1.52s-1.56-6.87-.77-10.19a35.33 35.33 0 0 1 3.27-8.59 36.67 36.67 0 0 1 14.26-14.65.87.87 0 0 0 -.88-1.5z"/><path d="m467.19 151.64 2.51 5.54a.75.75 0 0 0 1 .27.77.77 0 0 0 .28-1l-2.53-5.53a.76.76 0 0 0 -1-.27.78.78 0 0 0 -.27 1z"/><path d="m494.79 144.71a19.08 19.08 0 0 1 -.51 6.34c-.26 1 1.33 1.45 1.57.43a20.56 20.56 0 0 0 .42-6.77.74.74 0 0 0 -1.48 0z"/><path d="m520.29 146.71a14.25 14.25 0 0 1 -1.34 6.62.84.84 0 0 0 .3 1.12.82.82 0 0 0 1.11-.29 15.75 15.75 0 0 0 1.3-7.45.71.71 0 0 0 -.66-.71.69.69 0 0 0 -.68.69z"/><path d="m545.21 153.36a38.92 38.92 0 0 0 -3.15 8.75c-.25 1.09 1.43 1.55 1.67.46a36.94 36.94 0 0 1 2.89-8.38.84.84 0 0 0 -.29-1.12.83.83 0 0 0 -1.12.29z"/><path d="m597.3 182.62c3.09.24 4.5 3.65 4.93 6.31a20.91 20.91 0 0 1 -1.16 9.69 25.71 25.71 0 0 1 -13 14.85l1.62.67a2.92 2.92 0 0 1 1.78-3.37 3.86 3.86 0 0 1 4.19.41c2.48 1.83 3.32 5.3 3.3 8.22a16 16 0 0 1 -9.42 14.31c-1 .43-.59 1.85.28 2.12 2.75.87 3.7 4.31 2.93 6.85-1 3.28-4.21 5.45-7.06 7-1.2.65-.15 2.34 1 1.79 3.8-1.74 7.75-4.66 8.48-9.08.61-3.62-1.09-7.64-4.77-8.79l.28 2.13a18.28 18.28 0 0 0 10.4-14.26 15 15 0 0 0 -1.45-8.94c-1.36-2.55-4-4.79-7.05-4.42s-6.07 3.34-5.06 6.62a1.12 1.12 0 0 0 1.62.66 27.85 27.85 0 0 0 14.3-17.61 20.29 20.29 0 0 0 .27-11c-.95-3.09-3.06-5.86-6.49-6.09-1.24-.08-1.22 1.83 0 1.92z"/></g></svg>